{"asset":{"generator":"FBX2glTF v0.9.7","version":"2.0"},"scene":0,"buffers":[{"byteLength":1718792,"uri":"cupboard-buffer.bin"}],"bufferViews":[{"buffer":0,"byteLength":424,"byteOffset":0},{"buffer":0,"byteLength":1696,"byteOffset":424},{"buffer":0,"byteLength":1272,"byteOffset":2120},{"buffer":0,"byteLength":1272,"byteOffset":3392},{"buffer":0,"byteLength":1696,"byteOffset":4664},{"buffer":0,"byteLength":1696,"byteOffset":6360},{"buffer":0,"byteLength":1272,"byteOffset":8056},{"buffer":0,"byteLength":1272,"byteOffset":9328},{"buffer":0,"byteLength":1696,"byteOffset":10600},{"buffer":0,"byteLength":27624,"byteOffset":12296,"target":34963},{"buffer":0,"byteLength":57660,"byteOffset":39920,"target":34962},{"buffer":0,"byteLength":57660,"byteOffset":97580,"target":34962},{"buffer":0,"byteLength":38440,"byteOffset":155240,"target":34962},{"buffer":0,"byteLength":27624,"byteOffset":193680,"target":34963},{"buffer":0,"byteLength":57660,"byteOffset":221304,"target":34962},{"buffer":0,"byteLength":57660,"byteOffset":278964,"target":34962},{"buffer":0,"byteLength":38440,"byteOffset":336624,"target":34962},{"buffer":0,"byteLength":27624,"byteOffset":375064,"target":34963},{"buffer":0,"byteLength":57660,"byteOffset":402688,"target":34962},{"buffer":0,"byteLength":57660,"byteOffset":460348,"target":34962},{"buffer":0,"byteLength":38440,"byteOffset":518008,"target":34962},{"buffer":0,"byteLength":27624,"byteOffset":556448,"target":34963},{"buffer":0,"byteLength":57660,"byteOffset":584072,"target":34962},{"buffer":0,"byteLength":57660,"byteOffset":641732,"target":34962},{"buffer":0,"byteLength":38440,"byteOffset":699392,"target":34962},{"buffer":0,"byteLength":2112,"byteOffset":737832,"target":34963},{"buffer":0,"byteLength":3660,"byteOffset":739944,"target":34962},{"buffer":0,"byteLength":3660,"byteOffset":743604,"target":34962},{"buffer":0,"byteLength":2440,"byteOffset":747264,"target":34962},{"buffer":0,"byteLength":1128,"byteOffset":749704,"target":34963},{"buffer":0,"byteLength":1824,"byteOffset":750832,"target":34962},{"buffer":0,"byteLength":1824,"byteOffset":752656,"target":34962},{"buffer":0,"byteLength":1216,"byteOffset":754480,"target":34962},{"buffer":0,"byteLength":1216,"byteOffset":755696,"target":34962},{"buffer":0,"byteLength":2432,"byteOffset":756912,"target":34962},{"buffer":0,"byteLength":1128,"byteOffset":759344,"target":34963},{"buffer":0,"byteLength":1824,"byteOffset":760472,"target":34962},{"buffer":0,"byteLength":1824,"byteOffset":762296,"target":34962},{"buffer":0,"byteLength":1216,"byteOffset":764120,"target":34962},{"buffer":0,"byteLength":1216,"byteOffset":765336,"target":34962},{"buffer":0,"byteLength":2432,"byteOffset":766552,"target":34962},{"buffer":0,"byteLength":2112,"byteOffset":768984,"target":34963},{"buffer":0,"byteLength":3384,"byteOffset":771096,"target":34962},{"buffer":0,"byteLength":3384,"byteOffset":774480,"target":34962},{"buffer":0,"byteLength":2256,"byteOffset":777864,"target":34962},{"buffer":0,"byteLength":2256,"byteOffset":780120,"target":34962},{"buffer":0,"byteLength":4512,"byteOffset":782376,"target":34962},{"buffer":0,"byteLength":2112,"byteOffset":786888,"target":34963},{"buffer":0,"byteLength":3384,"byteOffset":789000,"target":34962},{"buffer":0,"byteLength":3384,"byteOffset":792384,"target":34962},{"buffer":0,"byteLength":2256,"byteOffset":795768,"target":34962},{"buffer":0,"byteLength":2256,"byteOffset":798024,"target":34962},{"buffer":0,"byteLength":4512,"byteOffset":800280,"target":34962},{"buffer":0,"byteLength":25968,"byteOffset":804792,"target":34963},{"buffer":0,"byteLength":51408,"byteOffset":830760,"target":34962},{"buffer":0,"byteLength":51408,"byteOffset":882168,"target":34962},{"buffer":0,"byteLength":34272,"byteOffset":933576,"target":34962},{"buffer":0,"byteLength":34272,"byteOffset":967848,"target":34962},{"buffer":0,"byteLength":68544,"byteOffset":1002120,"target":34962},{"buffer":0,"byteLength":25968,"byteOffset":1070664,"target":34963},{"buffer":0,"byteLength":51408,"byteOffset":1096632,"target":34962},{"buffer":0,"byteLength":51408,"byteOffset":1148040,"target":34962},{"buffer":0,"byteLength":34272,"byteOffset":1199448,"target":34962},{"buffer":0,"byteLength":34272,"byteOffset":1233720,"target":34962},{"buffer":0,"byteLength":68544,"byteOffset":1267992,"target":34962},{"buffer":0,"byteLength":8592,"byteOffset":1336536,"target":34963},{"buffer":0,"byteLength":12480,"byteOffset":1345128,"target":34962},{"buffer":0,"byteLength":12480,"byteOffset":1357608,"target":34962},{"buffer":0,"byteLength":8320,"byteOffset":1370088,"target":34962},{"buffer":0,"byteLength":8320,"byteOffset":1378408,"target":34962},{"buffer":0,"byteLength":16640,"byteOffset":1386728,"target":34962},{"buffer":0,"byteLength":9288,"byteOffset":1403368,"target":34963},{"buffer":0,"byteLength":12936,"byteOffset":1412656,"target":34962},{"buffer":0,"byteLength":12936,"byteOffset":1425592,"target":34962},{"buffer":0,"byteLength":8624,"byteOffset":1438528,"target":34962},{"buffer":0,"byteLength":8624,"byteOffset":1447152,"target":34962},{"buffer":0,"byteLength":17248,"byteOffset":1455776,"target":34962},{"buffer":0,"byteLength":7680,"byteOffset":1473024,"target":34963},{"buffer":0,"byteLength":10008,"byteOffset":1480704,"target":34962},{"buffer":0,"byteLength":10008,"byteOffset":1490712,"target":34962},{"buffer":0,"byteLength":6672,"byteOffset":1500720,"target":34962},{"buffer":0,"byteLength":6672,"byteOffset":1507392,"target":34962},{"buffer":0,"byteLength":13344,"byteOffset":1514064,"target":34962},{"buffer":0,"byteLength":8592,"byteOffset":1527408,"target":34963},{"buffer":0,"byteLength":12480,"byteOffset":1536000,"target":34962},{"buffer":0,"byteLength":12480,"byteOffset":1548480,"target":34962},{"buffer":0,"byteLength":8320,"byteOffset":1560960,"target":34962},{"buffer":0,"byteLength":8320,"byteOffset":1569280,"target":34962},{"buffer":0,"byteLength":16640,"byteOffset":1577600,"target":34962},{"buffer":0,"byteLength":9288,"byteOffset":1594240,"target":34963},{"buffer":0,"byteLength":12936,"byteOffset":1603528,"target":34962},{"buffer":0,"byteLength":12936,"byteOffset":1616464,"target":34962},{"buffer":0,"byteLength":8624,"byteOffset":1629400,"target":34962},{"buffer":0,"byteLength":8624,"byteOffset":1638024,"target":34962},{"buffer":0,"byteLength":17248,"byteOffset":1646648,"target":34962},{"buffer":0,"byteLength":7680,"byteOffset":1663896,"target":34963},{"buffer":0,"byteLength":10008,"byteOffset":1671576,"target":34962},{"buffer":0,"byteLength":10008,"byteOffset":1681584,"target":34962},{"buffer":0,"byteLength":6672,"byteOffset":1691592,"target":34962},{"buffer":0,"byteLength":6672,"byteOffset":1698264,"target":34962},{"buffer":0,"byteLength":13344,"byteOffset":1704936,"target":34962},{"buffer":0,"byteLength":64,"byteOffset":1718280},{"buffer":0,"byteLength":64,"byteOffset":1718344},{"buffer":0,"byteLength":64,"byteOffset":1718408},{"buffer":0,"byteLength":64,"byteOffset":1718472},{"buffer":0,"byteLength":64,"byteOffset":1718536},{"buffer":0,"byteLength":64,"byteOffset":1718600},{"buffer":0,"byteLength":64,"byteOffset":1718664},{"buffer":0,"byteLength":64,"byteOffset":1718728}],"scenes":[{"name":"Root Scene","nodes":[0]}],"accessors":[{"componentType":5126,"type":"SCALAR","count":106,"bufferView":0,"byteOffset":0,"min":[0.0],"max":[4.375]},{"componentType":5126,"type":"VEC4","count":106,"bufferView":1,"byteOffset":0},{"componentType":5126,"type":"VEC3","count":106,"bufferView":2,"byteOffset":0},{"componentType":5126,"type":"VEC3","count":106,"bufferView":3,"byteOffset":0},{"componentType":5126,"type":"VEC4","count":106,"bufferView":4,"byteOffset":0},{"componentType":5126,"type":"VEC4","count":106,"bufferView":5,"byteOffset":0},{"componentType":5126,"type":"VEC3","count":106,"bufferView":6,"byteOffset":0},{"componentType":5126,"type":"VEC3","count":106,"bufferView":7,"byteOffset":0},{"componentType":5126,"type":"VEC4","count":106,"bufferView":8,"byteOffset":0},{"componentType":5123,"type":"SCALAR","count":13812,"bufferView":9,"byteOffset":0},{"componentType":5126,"type":"VEC3","count":4805,"bufferView":10,"byteOffset":0,"min":[-0.258925288915634,-0.302724540233612,-0.198047533631325],"max":[0.25940990447998,0.356804221868515,0.137334421277046]},{"componentType":5126,"type":"VEC3","count":4805,"bufferView":11,"byteOffset":0},{"componentType":5126,"type":"VEC2","count":4805,"bufferView":12,"byteOffset":0},{"componentType":5123,"type":"SCALAR","count":13812,"bufferView":13,"byteOffset":0},{"componentType":5126,"type":"VEC3","count":4805,"bufferView":14,"byteOffset":0,"min":[-0.258925288915634,-0.302724540233612,-0.198047533631325],"max":[0.25940990447998,0.356804221868515,0.137334421277046]},{"componentType":5126,"type":"VEC3","count":4805,"bufferView":15,"byteOffset":0},{"componentType":5126,"type":"VEC2","count":4805,"bufferView":16,"byteOffset":0},{"componentType":5123,"type":"SCALAR","count":13812,"bufferView":17,"byteOffset":0},{"componentType":5126,"type":"VEC3","count":4805,"bufferView":18,"byteOffset":0,"min":[-0.258925288915634,-0.302724540233612,-0.198047533631325],"max":[0.25940990447998,0.356804221868515,0.137334421277046]},{"componentType":5126,"type":"VEC3","count":4805,"bufferView":19,"byteOffset":0},{"componentType":5126,"type":"VEC2","count":4805,"bufferView":20,"byteOffset":0},{"componentType":5123,"type":"SCALAR","count":13812,"bufferView":21,"byteOffset":0},{"componentType":5126,"type":"VEC3","count":4805,"bufferView":22,"byteOffset":0,"min":[-0.258925288915634,-0.302724540233612,-0.198047533631325],"max":[0.25940990447998,0.356804221868515,0.137334421277046]},{"componentType":5126,"type":"VEC3","count":4805,"bufferView":23,"byteOffset":0},{"componentType":5126,"type":"VEC2","count":4805,"bufferView":24,"byteOffset":0},{"componentType":5123,"type":"SCALAR","count":1056,"bufferView":25,"byteOffset":0},{"componentType":5126,"type":"VEC3","count":305,"bufferView":26,"byteOffset":0,"min":[-10.75,-3.00000047683716,-2.36500000953674],"max":[10.75,3.00000023841858,2.36500000953674]},{"componentType":5126,"type":"VEC3","count":305,"bufferView":27,"byteOffset":0},{"componentType":5126,"type":"VEC2","count":305,"bufferView":28,"byteOffset":0},{"componentType":5123,"type":"SCALAR","count":564,"bufferView":29,"byteOffset":0},{"componentType":5126,"type":"VEC3","count":152,"bufferView":30,"byteOffset":0,"min":[-5.2649998664856,-1.80000007152557,-0.0800000056624413],"max":[5.2649998664856,1.79999983310699,0.0799999907612801]},{"componentType":5126,"type":"VEC3","count":152,"bufferView":31,"byteOffset":0},{"componentType":5126,"type":"VEC2","count":152,"bufferView":32,"byteOffset":0},{"componentType":5123,"type":"VEC4","count":152,"bufferView":33,"byteOffset":0},{"componentType":5126,"type":"VEC4","count":152,"bufferView":34,"byteOffset":0},{"componentType":5123,"type":"SCALAR","count":564,"bufferView":35,"byteOffset":0},{"componentType":5126,"type":"VEC3","count":152,"bufferView":36,"byteOffset":0,"min":[-5.2649998664856,-1.80000007152557,-0.0800000056624413],"max":[5.2649998664856,1.79999983310699,0.0799999907612801]},{"componentType":5126,"type":"VEC3","count":152,"bufferView":37,"byteOffset":0},{"componentType":5126,"type":"VEC2","count":152,"bufferView":38,"byteOffset":0},{"componentType":5123,"type":"VEC4","count":152,"bufferView":39,"byteOffset":0},{"componentType":5126,"type":"VEC4","count":152,"bufferView":40,"byteOffset":0},{"componentType":5123,"type":"SCALAR","count":1056,"bufferView":41,"byteOffset":0},{"componentType":5126,"type":"VEC3","count":282,"bufferView":42,"byteOffset":0,"min":[-0.770001232624054,-0.96027410030365,0.080000601708889],"max":[0.769998788833618,-0.860273718833923,0.381212443113327]},{"componentType":5126,"type":"VEC3","count":282,"bufferView":43,"byteOffset":0},{"componentType":5126,"type":"VEC2","count":282,"bufferView":44,"byteOffset":0},{"componentType":5123,"type":"VEC4","count":282,"bufferView":45,"byteOffset":0},{"componentType":5126,"type":"VEC4","count":282,"bufferView":46,"byteOffset":0},{"componentType":5123,"type":"SCALAR","count":1056,"bufferView":47,"byteOffset":0},{"componentType":5126,"type":"VEC3","count":282,"bufferView":48,"byteOffset":0,"min":[-0.770001232624054,-0.96027410030365,0.080000601708889],"max":[0.769998788833618,-0.860273718833923,0.381212443113327]},{"componentType":5126,"type":"VEC3","count":282,"bufferView":49,"byteOffset":0},{"componentType":5126,"type":"VEC2","count":282,"bufferView":50,"byteOffset":0},{"componentType":5123,"type":"VEC4","count":282,"bufferView":51,"byteOffset":0},{"componentType":5126,"type":"VEC4","count":282,"bufferView":52,"byteOffset":0},{"componentType":5123,"type":"SCALAR","count":12984,"bufferView":53,"byteOffset":0},{"componentType":5126,"type":"VEC3","count":4284,"bufferView":54,"byteOffset":0,"min":[-4.10232877731323,1.49466776847839,-0.136144757270813],"max":[4.01459932327271,1.87979292869568,0.0263349805027246]},{"componentType":5126,"type":"VEC3","count":4284,"bufferView":55,"byteOffset":0},{"componentType":5126,"type":"VEC2","count":4284,"bufferView":56,"byteOffset":0},{"componentType":5123,"type":"VEC4","count":4284,"bufferView":57,"byteOffset":0},{"componentType":5126,"type":"VEC4","count":4284,"bufferView":58,"byteOffset":0},{"componentType":5123,"type":"SCALAR","count":12984,"bufferView":59,"byteOffset":0},{"componentType":5126,"type":"VEC3","count":4284,"bufferView":60,"byteOffset":0,"min":[-4.10233497619629,1.49466753005981,-0.136144757270813],"max":[4.01457595825195,1.87979292869568,0.0263349805027246]},{"componentType":5126,"type":"VEC3","count":4284,"bufferView":61,"byteOffset":0},{"componentType":5126,"type":"VEC2","count":4284,"bufferView":62,"byteOffset":0},{"componentType":5123,"type":"VEC4","count":4284,"bufferView":63,"byteOffset":0},{"componentType":5126,"type":"VEC4","count":4284,"bufferView":64,"byteOffset":0},{"componentType":5123,"type":"SCALAR","count":4296,"bufferView":65,"byteOffset":0},{"componentType":5126,"type":"VEC3","count":1040,"bufferView":66,"byteOffset":0,"min":[1.90734859017994e-08,-0.1397854834795,-0.137661814689636],"max":[10.4497213363647,0.139785900712013,1.10679769515991]},{"componentType":5126,"type":"VEC3","count":1040,"bufferView":67,"byteOffset":0},{"componentType":5126,"type":"VEC2","count":1040,"bufferView":68,"byteOffset":0},{"componentType":5123,"type":"VEC4","count":1040,"bufferView":69,"byteOffset":0},{"componentType":5126,"type":"VEC4","count":1040,"bufferView":70,"byteOffset":0},{"componentType":5123,"type":"SCALAR","count":4644,"bufferView":71,"byteOffset":0},{"componentType":5126,"type":"VEC3","count":1078,"bufferView":72,"byteOffset":0,"min":[-0.00144744873978198,-0.16992175579071,1.32540261745453],"max":[10.451171875,0.0493429377675056,1.83509016036987]},{"componentType":5126,"type":"VEC3","count":1078,"bufferView":73,"byteOffset":0},{"componentType":5126,"type":"VEC2","count":1078,"bufferView":74,"byteOffset":0},{"componentType":5123,"type":"VEC4","count":1078,"bufferView":75,"byteOffset":0},{"componentType":5126,"type":"VEC4","count":1078,"bufferView":76,"byteOffset":0},{"componentType":5123,"type":"SCALAR","count":3840,"bufferView":77,"byteOffset":0},{"componentType":5126,"type":"VEC3","count":834,"bufferView":78,"byteOffset":0,"min":[0.0890084132552147,-0.0867489948868752,0.190062865614891],"max":[10.3607130050659,0.08549914509058,1.69005882740021]},{"componentType":5126,"type":"VEC3","count":834,"bufferView":79,"byteOffset":0},{"componentType":5126,"type":"VEC2","count":834,"bufferView":80,"byteOffset":0},{"componentType":5123,"type":"VEC4","count":834,"bufferView":81,"byteOffset":0},{"componentType":5126,"type":"VEC4","count":834,"bufferView":82,"byteOffset":0},{"componentType":5123,"type":"SCALAR","count":4296,"bufferView":83,"byteOffset":0},{"componentType":5126,"type":"VEC3","count":1040,"bufferView":84,"byteOffset":0,"min":[1.90734859017994e-08,-0.1397854834795,-0.137661814689636],"max":[10.4497213363647,0.139785900712013,1.10679769515991]},{"componentType":5126,"type":"VEC3","count":1040,"bufferView":85,"byteOffset":0},{"componentType":5126,"type":"VEC2","count":1040,"bufferView":86,"byteOffset":0},{"componentType":5123,"type":"VEC4","count":1040,"bufferView":87,"byteOffset":0},{"componentType":5126,"type":"VEC4","count":1040,"bufferView":88,"byteOffset":0},{"componentType":5123,"type":"SCALAR","count":4644,"bufferView":89,"byteOffset":0},{"componentType":5126,"type":"VEC3","count":1078,"bufferView":90,"byteOffset":0,"min":[-0.00144744873978198,-0.16992175579071,1.32540261745453],"max":[10.451171875,0.0493429377675056,1.83509016036987]},{"componentType":5126,"type":"VEC3","count":1078,"bufferView":91,"byteOffset":0},{"componentType":5126,"type":"VEC2","count":1078,"bufferView":92,"byteOffset":0},{"componentType":5123,"type":"VEC4","count":1078,"bufferView":93,"byteOffset":0},{"componentType":5126,"type":"VEC4","count":1078,"bufferView":94,"byteOffset":0},{"componentType":5123,"type":"SCALAR","count":3840,"bufferView":95,"byteOffset":0},{"componentType":5126,"type":"VEC3","count":834,"bufferView":96,"byteOffset":0,"min":[0.0890084132552147,-0.0867489948868752,0.190062865614891],"max":[10.3607130050659,0.08549914509058,1.69005882740021]},{"componentType":5126,"type":"VEC3","count":834,"bufferView":97,"byteOffset":0},{"componentType":5126,"type":"VEC2","count":834,"bufferView":98,"byteOffset":0},{"componentType":5123,"type":"VEC4","count":834,"bufferView":99,"byteOffset":0},{"componentType":5126,"type":"VEC4","count":834,"bufferView":100,"byteOffset":0},{"componentType":5126,"type":"MAT4","count":1,"bufferView":101,"byteOffset":0},{"componentType":5126,"type":"MAT4","count":1,"bufferView":102,"byteOffset":0},{"componentType":5126,"type":"MAT4","count":1,"bufferView":103,"byteOffset":0},{"componentType":5126,"type":"MAT4","count":1,"bufferView":104,"byteOffset":0},{"componentType":5126,"type":"MAT4","count":1,"bufferView":105,"byteOffset":0},{"componentType":5126,"type":"MAT4","count":1,"bufferView":106,"byteOffset":0},{"componentType":5126,"type":"MAT4","count":1,"bufferView":107,"byteOffset":0},{"componentType":5126,"type":"MAT4","count":1,"bufferView":108,"byteOffset":0}],"materials":[{"name":"Mexanizm","alphaMode":"OPAQUE","extras":{"fromFBX":{"shadingModel":"Phong","isTruePBR":false}},"pbrMetallicRoughness":{"baseColorFactor":[0.587999999523163,0.587999999523163,0.587999999523163,1.0],"metallicFactor":0.400000005960464,"roughnessFactor":0.70710676908493}},{"name":"Korpus","alphaMode":"OPAQUE","extras":{"fromFBX":{"shadingModel":"Phong","isTruePBR":false}},"pbrMetallicRoughness":{"baseColorFactor":[0.587999999523163,0.587999999523163,0.587999999523163,1.0],"metallicFactor":0.400000005960464,"roughnessFactor":0.70710676908493}},{"name":"Fasad","alphaMode":"OPAQUE","extras":{"fromFBX":{"shadingModel":"Phong","isTruePBR":false}},"pbrMetallicRoughness":{"baseColorFactor":[0.587999999523163,0.587999999523163,0.587999999523163,1.0],"metallicFactor":0.400000005960464,"roughnessFactor":0.70710676908493}},{"name":"Ru4ki","alphaMode":"OPAQUE","extras":{"fromFBX":{"shadingModel":"Phong","isTruePBR":false}},"pbrMetallicRoughness":{"baseColorFactor":[0.587999999523163,0.587999999523163,0.587999999523163,1.0],"metallicFactor":0.400000005960464,"roughnessFactor":0.70710676908493}},{"name":"Mexanizm","alphaMode":"OPAQUE","extras":{"fromFBX":{"shadingModel":"Phong","isTruePBR":false}},"pbrMetallicRoughness":{"baseColorFactor":[0.587999999523163,0.587999999523163,0.587999999523163,1.0],"metallicFactor":0.400000005960464,"roughnessFactor":0.70710676908493}},{"name":"Podbemnik","alphaMode":"OPAQUE","extras":{"fromFBX":{"shadingModel":"Phong","isTruePBR":false}},"pbrMetallicRoughness":{"baseColorFactor":[0.587999999523163,0.587999999523163,0.587999999523163,1.0],"metallicFactor":0.400000005960464,"roughnessFactor":0.70710676908493}}],"meshes":[{"name":"Object223","primitives":[{"material":4,"mode":4,"attributes":{"NORMAL":11,"POSITION":10,"TEXCOORD_0":12},"indices":9}]},{"name":"Object239","primitives":[{"material":4,"mode":4,"attributes":{"NORMAL":15,"POSITION":14,"TEXCOORD_0":16},"indices":13}]},{"name":"Object240","primitives":[{"material":4,"mode":4,"attributes":{"NORMAL":19,"POSITION":18,"TEXCOORD_0":20},"indices":17}]},{"name":"Object241","primitives":[{"material":4,"mode":4,"attributes":{"NORMAL":23,"POSITION":22,"TEXCOORD_0":24},"indices":21}]},{"name":"VIFS027","primitives":[{"material":1,"mode":4,"attributes":{"NORMAL":27,"POSITION":26,"TEXCOORD_0":28},"indices":25}]},{"name":"Object229","primitives":[{"material":2,"mode":4,"attributes":{"JOINTS_0":33,"NORMAL":31,"POSITION":30,"TEXCOORD_0":32,"WEIGHTS_0":34},"indices":29},{"material":3,"mode":4,"attributes":{"JOINTS_0":45,"NORMAL":43,"POSITION":42,"TEXCOORD_0":44,"WEIGHTS_0":46},"indices":41},{"material":4,"mode":4,"attributes":{"JOINTS_0":57,"NORMAL":55,"POSITION":54,"TEXCOORD_0":56,"WEIGHTS_0":58},"indices":53}]},{"name":"Object235","primitives":[{"material":2,"mode":4,"attributes":{"JOINTS_0":39,"NORMAL":37,"POSITION":36,"TEXCOORD_0":38,"WEIGHTS_0":40},"indices":35},{"material":3,"mode":4,"attributes":{"JOINTS_0":51,"NORMAL":49,"POSITION":48,"TEXCOORD_0":50,"WEIGHTS_0":52},"indices":47},{"material":4,"mode":4,"attributes":{"JOINTS_0":63,"NORMAL":61,"POSITION":60,"TEXCOORD_0":62,"WEIGHTS_0":64},"indices":59}]},{"name":"Object","primitives":[{"material":5,"mode":4,"attributes":{"JOINTS_0":69,"NORMAL":67,"POSITION":66,"TEXCOORD_0":68,"WEIGHTS_0":70},"indices":65}]},{"name":"Object233","primitives":[{"material":5,"mode":4,"attributes":{"JOINTS_0":75,"NORMAL":73,"POSITION":72,"TEXCOORD_0":74,"WEIGHTS_0":76},"indices":71}]},{"name":"Object234","primitives":[{"material":5,"mode":4,"attributes":{"JOINTS_0":81,"NORMAL":79,"POSITION":78,"TEXCOORD_0":80,"WEIGHTS_0":82},"indices":77}]},{"name":"Object236","primitives":[{"material":5,"mode":4,"attributes":{"JOINTS_0":87,"NORMAL":85,"POSITION":84,"TEXCOORD_0":86,"WEIGHTS_0":88},"indices":83}]},{"name":"Object237","primitives":[{"material":5,"mode":4,"attributes":{"JOINTS_0":93,"NORMAL":91,"POSITION":90,"TEXCOORD_0":92,"WEIGHTS_0":94},"indices":89}]},{"name":"Object238","primitives":[{"material":5,"mode":4,"attributes":{"JOINTS_0":99,"NORMAL":97,"POSITION":96,"TEXCOORD_0":98,"WEIGHTS_0":100},"indices":95}]}],"skins":[{"joints":[7],"inverseBindMatrices":101,"skeleton":7},{"joints":[5],"inverseBindMatrices":102,"skeleton":5},{"joints":[7],"inverseBindMatrices":103,"skeleton":7},{"joints":[6],"inverseBindMatrices":104,"skeleton":6},{"joints":[7],"inverseBindMatrices":105,"skeleton":7},{"joints":[11],"inverseBindMatrices":106,"skeleton":11},{"joints":[13],"inverseBindMatrices":107,"skeleton":13},{"joints":[12],"inverseBindMatrices":108,"skeleton":12}],"animations":[{"name":"Take 001","channels":[{"sampler":0,"target":{"node":5,"path":"rotation"}},{"sampler":1,"target":{"node":6,"path":"translation"}},{"sampler":2,"target":{"node":7,"path":"translation"}},{"sampler":3,"target":{"node":7,"path":"rotation"}},{"sampler":4,"target":{"node":11,"path":"rotation"}},{"sampler":5,"target":{"node":12,"path":"translation"}},{"sampler":6,"target":{"node":13,"path":"translation"}},{"sampler":7,"target":{"node":13,"path":"rotation"}}],"samplers":[{"input":0,"interpolation":"LINEAR","output":1},{"input":0,"interpolation":"LINEAR","output":2},{"input":0,"interpolation":"LINEAR","output":3},{"input":0,"interpolation":"LINEAR","output":4},{"input":0,"interpolation":"LINEAR","output":5},{"input":0,"interpolation":"LINEAR","output":6},{"input":0,"interpolation":"LINEAR","output":7},{"input":0,"interpolation":"LINEAR","output":8}]}],"nodes":[{"name":"RootNode","translation":[0.0,0.0,0.0],"rotation":[0.0,0.0,0.0,1.0],"scale":[1.0,1.0,1.0],"children":[1,2,3,4,5,8,9,10,11,14,15,16,17,18,19]},{"name":"Object223","translation":[0.899408400058746,0.571486175060272,0.195390596985817],"rotation":[-5.33850759154575e-08,-0.70710676908493,0.70710676908493,5.33850794681712e-08],"scale":[0.100000001490116,0.100000001490116,0.100000001490116],"mesh":0},{"name":"VIFS027","translation":[0.000269309035502374,0.299999922513962,0.00274432357400656],"rotation":[8.14603424714733e-08,0.0,0.0,1.0],"scale":[0.100000001490116,0.100000001490116,0.100000001490116],"mesh":4},{"name":"Object229","translation":[-0.528230667114258,0.400999933481216,0.230244323611259],"rotation":[8.14603424714733e-08,0.0,0.0,1.0],"scale":[0.100000001490116,0.100000001490116,0.100000001490116],"mesh":5,"skin":0},{"name":"Object","translation":[-1.05296778678894,0.324633240699768,0.205143511295319],"rotation":[-0.70710676908493,-0.0,0.0,0.70710676908493],"scale":[0.100000001490116,0.100000001490116,0.100000001490116],"mesh":7,"skin":1},{"name":"Dummy001","translation":[-1.05296778678894,0.324633240699768,0.205143511295319],"rotation":[-0.70710676908493,-0.0,0.0,0.70710676908493],"scale":[0.100000001490116,0.100000001490116,0.100000001490116],"children":[6]},{"name":"Dummy002","translation":[0.173493653535843,-0.000625152548309416,0.190063163638115],"rotation":[0.0,0.0,0.0,1.0],"scale":[1.0,1.0,1.0],"children":[7]},{"name":"Dummy003","translation":[-0.153623044490814,0.000625457731075585,1.39029777050018],"rotation":[0.0,0.0,0.0,1.0],"scale":[1.0,1.0,1.0]},{"name":"Object233","translation":[-1.05296778678894,0.324633240699768,0.205143511295319],"rotation":[-0.70710676908493,-0.0,0.0,0.70710676908493],"scale":[0.100000001490116,0.100000001490116,0.100000001490116],"mesh":8,"skin":2},{"name":"Object234","translation":[-1.05296778678894,0.324633240699768,0.205143511295319],"rotation":[-0.70710676908493,-0.0,0.0,0.70710676908493],"scale":[0.100000001490116,0.100000001490116,0.100000001490116],"mesh":9,"skin":3},{"name":"Object235","translation":[0.528768956661224,0.400999933481216,0.230244323611259],"rotation":[8.14603424714733e-08,0.0,0.0,1.0],"scale":[0.100000001490116,0.100000001490116,0.100000001490116],"mesh":6,"skin":4},{"name":"Dummy004","translation":[0.00855589099228382,0.324633240699768,0.205143511295319],"rotation":[-0.70710676908493,-0.0,0.0,0.70710676908493],"scale":[0.100000001490116,0.100000001490116,0.100000001490116],"children":[12]},{"name":"Dummy005","translation":[0.173494264483452,-0.000625152548309416,0.190063163638115],"rotation":[0.0,0.0,0.0,1.0],"scale":[1.0,1.0,1.0],"children":[13]},{"name":"Dummy006","translation":[-0.153622731566429,0.000625457731075585,1.39029777050018],"rotation":[0.0,0.0,0.0,1.0],"scale":[1.0,1.0,1.0]},{"name":"Object236","translation":[0.00855589099228382,0.324633240699768,0.205143511295319],"rotation":[-0.70710676908493,-0.0,0.0,0.70710676908493],"scale":[0.100000001490116,0.100000001490116,0.100000001490116],"mesh":10,"skin":5},{"name":"Object237","translation":[0.00855589099228382,0.324633240699768,0.205143511295319],"rotation":[-0.70710676908493,-0.0,0.0,0.70710676908493],"scale":[0.100000001490116,0.100000001490116,0.100000001490116],"mesh":11,"skin":6},{"name":"Object238","translation":[0.00855589099228382,0.324633240699768,0.205143511295319],"rotation":[-0.70710676908493,-0.0,0.0,0.70710676908493],"scale":[0.100000001490116,0.100000001490116,0.100000001490116],"mesh":12,"skin":7},{"name":"Object239","translation":[0.149354487657547,0.571486175060272,0.195390596985817],"rotation":[-5.33850759154575e-08,-0.70710676908493,0.70710676908493,5.33850794681712e-08],"scale":[0.100000001490116,0.100000001490116,0.100000001490116],"mesh":1},{"name":"Object240","translation":[-0.157591298222542,0.571486175060272,0.195390596985817],"rotation":[-5.33850759154575e-08,-0.70710676908493,0.70710676908493,5.33850794681712e-08],"scale":[0.100000001490116,0.100000001490116,0.100000001490116],"mesh":2},{"name":"Object241","translation":[-0.907645225524902,0.571486175060272,0.195390596985817],"rotation":[-5.33850759154575e-08,-0.70710676908493,0.70710676908493,5.33850794681712e-08],"scale":[0.100000001490116,0.100000001490116,0.100000001490116],"mesh":3}]}