{"asset":{"generator":"FBX2glTF v0.9.7","version":"2.0"},"scene":0,"buffers":[{"byteLength":337892,"uri":"gun-revolver-buffer.bin"}],"bufferViews":[{"buffer":0,"byteLength":20,"byteOffset":0},{"buffer":0,"byteLength":60,"byteOffset":20},{"buffer":0,"byteLength":80,"byteOffset":80},{"buffer":0,"byteLength":60,"byteOffset":160},{"buffer":0,"byteLength":80,"byteOffset":220},{"buffer":0,"byteLength":80,"byteOffset":300},{"buffer":0,"byteLength":60,"byteOffset":380},{"buffer":0,"byteLength":60,"byteOffset":440},{"buffer":0,"byteLength":33804,"byteOffset":500,"target":34963},{"buffer":0,"byteLength":66204,"byteOffset":34304,"target":34962},{"buffer":0,"byteLength":66204,"byteOffset":100508,"target":34962},{"buffer":0,"byteLength":44136,"byteOffset":166712,"target":34962},{"buffer":0,"byteLength":1044,"byteOffset":210848,"target":34963},{"buffer":0,"byteLength":2088,"byteOffset":211892,"target":34962},{"buffer":0,"byteLength":2088,"byteOffset":213980,"target":34962},{"buffer":0,"byteLength":1392,"byteOffset":216068,"target":34962},{"buffer":0,"byteLength":1428,"byteOffset":217460,"target":34963},{"buffer":0,"byteLength":2928,"byteOffset":218888,"target":34962},{"buffer":0,"byteLength":2928,"byteOffset":221816,"target":34962},{"buffer":0,"byteLength":1952,"byteOffset":224744,"target":34962},{"buffer":0,"byteLength":17196,"byteOffset":226696,"target":34963},{"buffer":0,"byteLength":35124,"byteOffset":243892,"target":34962},{"buffer":0,"byteLength":35124,"byteOffset":279016,"target":34962},{"buffer":0,"byteLength":23416,"byteOffset":314140,"target":34962},{"buffer":0,"byteLength":48,"byteOffset":337556,"target":34963},{"buffer":0,"byteLength":108,"byteOffset":337604,"target":34962},{"buffer":0,"byteLength":108,"byteOffset":337712,"target":34962},{"buffer":0,"byteLength":72,"byteOffset":337820,"target":34962}],"scenes":[{"name":"Root Scene","nodes":[0]}],"accessors":[{"componentType":5126,"type":"SCALAR","count":5,"bufferView":0,"byteOffset":0,"min":[0.0],"max":[0.16666667163372]},{"componentType":5126,"type":"VEC3","count":5,"bufferView":1,"byteOffset":0},{"componentType":5126,"type":"VEC4","count":5,"bufferView":2,"byteOffset":0},{"componentType":5126,"type":"VEC3","count":5,"bufferView":3,"byteOffset":0},{"componentType":5126,"type":"VEC4","count":5,"bufferView":4,"byteOffset":0},{"componentType":5126,"type":"VEC4","count":5,"bufferView":5,"byteOffset":0},{"componentType":5126,"type":"VEC3","count":5,"bufferView":6,"byteOffset":0},{"componentType":5126,"type":"VEC3","count":5,"bufferView":7,"byteOffset":0},{"componentType":5123,"type":"SCALAR","count":16902,"bufferView":8,"byteOffset":0},{"componentType":5126,"type":"VEC3","count":5517,"bufferView":9,"byteOffset":0,"min":[-0.00289997016079724,-0.0113504193723202,-0.0447257682681084],"max":[0.00289997016079724,0.00929800979793072,0.00631896965205669]},{"componentType":5126,"type":"VEC3","count":5517,"bufferView":10,"byteOffset":0},{"componentType":5126,"type":"VEC2","count":5517,"bufferView":11,"byteOffset":0},{"componentType":5123,"type":"SCALAR","count":522,"bufferView":12,"byteOffset":0},{"componentType":5126,"type":"VEC3","count":174,"bufferView":13,"byteOffset":0,"min":[0.000427847146056592,0.000310744042508304,-0.00198790198192],"max":[0.00103138713166118,0.00461771385744214,0.00158211763482541]},{"componentType":5126,"type":"VEC3","count":174,"bufferView":14,"byteOffset":0},{"componentType":5126,"type":"VEC2","count":174,"bufferView":15,"byteOffset":0},{"componentType":5123,"type":"SCALAR","count":714,"bufferView":16,"byteOffset":0},{"componentType":5126,"type":"VEC3","count":244,"bufferView":17,"byteOffset":0,"min":[-0.000583437911700457,-0.00138211483135819,-0.00208282051607966],"max":[0.000583462067879736,0.00331370532512665,0.00264680944383144]},{"componentType":5126,"type":"VEC3","count":244,"bufferView":18,"byteOffset":0},{"componentType":5126,"type":"VEC2","count":244,"bufferView":19,"byteOffset":0},{"componentType":5123,"type":"SCALAR","count":8598,"bufferView":20,"byteOffset":0},{"componentType":5126,"type":"VEC3","count":2927,"bufferView":21,"byteOffset":0,"min":[-0.00328271999023855,-0.00328273698687553,-0.00321157556027174],"max":[0.00328271999023855,0.00328270252794027,0.00313961389474571]},{"componentType":5126,"type":"VEC3","count":2927,"bufferView":22,"byteOffset":0},{"componentType":5126,"type":"VEC2","count":2927,"bufferView":23,"byteOffset":0},{"componentType":5123,"type":"SCALAR","count":24,"bufferView":24,"byteOffset":0},{"componentType":5126,"type":"VEC3","count":9,"bufferView":25,"byteOffset":0,"min":[-1.27530092868255e-05,-0.000250401062658057,-0.000262666930211708],"max":[0.000229332435992546,0.000277254672255367,0.000264989124843851]},{"componentType":5126,"type":"VEC3","count":9,"bufferView":26,"byteOffset":0},{"componentType":5126,"type":"VEC2","count":9,"bufferView":27,"byteOffset":0}],"materials":[{"name":"RevMat","alphaMode":"OPAQUE","extras":{"fromFBX":{"shadingModel":"Phong","isTruePBR":false}},"pbrMetallicRoughness":{"baseColorFactor":[1.0,1.0,1.0,1.0],"metallicFactor":0.400000005960464,"roughnessFactor":0.272165536880493}},{"name":"muzzle1.008","alphaMode":"BLEND","extras":{"fromFBX":{"shadingModel":"Phong","isTruePBR":false}},"emissiveFactor":[1.0,1.0,1.0],"pbrMetallicRoughness":{"baseColorFactor":[1.0,1.0,1.0,1.0],"metallicFactor":0.400000005960464,"roughnessFactor":1.0}}],"meshes":[{"name":"Revolver2","primitives":[{"material":0,"mode":4,"attributes":{"NORMAL":10,"POSITION":9,"TEXCOORD_0":11},"indices":8}]},{"name":"Revolver2.002","primitives":[{"material":0,"mode":4,"attributes":{"NORMAL":14,"POSITION":13,"TEXCOORD_0":15},"indices":12}]},{"name":"Revolver2.003","primitives":[{"material":0,"mode":4,"attributes":{"NORMAL":18,"POSITION":17,"TEXCOORD_0":19},"indices":16}]},{"name":"Revolver2.001","primitives":[{"material":0,"mode":4,"attributes":{"NORMAL":22,"POSITION":21,"TEXCOORD_0":23},"indices":20}]},{"name":"muzzlemesh_1_muzzle1_0.008","primitives":[{"material":1,"mode":4,"attributes":{"NORMAL":26,"POSITION":25,"TEXCOORD_0":27},"indices":24}]}],"nodes":[{"name":"RootNode","translation":[0.0,0.0,0.0],"rotation":[0.0,0.0,0.0,1.0],"scale":[1.0,1.0,1.0],"children":[1]},{"name":"Revolver2.004","translation":[0.0,0.0,0.0],"rotation":[-0.707106828689575,0.0,0.0,0.707106709480286],"scale":[100.0,100.0,100.0],"children":[2]},{"name":"root","translation":[0.0,0.0,0.0],"rotation":[-0.5,0.5,0.5,-0.499999970197678],"scale":[1.0,0.999999940395355,1.0],"children":[3,4,7,10,13]},{"name":"Revolver2","translation":[-0.00481542572379112,0.00483639445155859,-0.00115803652442992],"rotation":[0.707109391689301,2.21971646396923e-07,-0.70710414648056,2.2197329485607e-07],"scale":[0.448884069919586,0.448884099721909,0.448884040117264],"mesh":0},{"name":"ammo pack","translation":[-0.000951790774706751,0.00485635129734874,-0.0011489944299683],"rotation":[-0.000498333596624434,-3.57402086592629e-07,-0.0356838293373585,0.999363005161285],"scale":[1.0,1.0,1.0],"children":[5,6]},{"name":"Revolver2.002","translation":[1.11603731056675e-05,0.00120997347403318,0.000318302278174087],"rotation":[0.707109153270721,3.06265150129548e-07,-0.707104444503784,3.06267196492627e-07],"scale":[0.448884069919586,0.448884099721909,0.448884069919586],"mesh":1},{"name":"ammo pack_end","translation":[0.0,0.00127881078515202,0.0],"rotation":[-1.3446648037662e-19,-1.35525271560688e-20,-1.82236062688514e-39,1.0],"scale":[1.0,1.0,1.0]},{"name":"muzzle.001","translation":[-0.00295326882041991,0.00872218515723944,-0.00115801731590182],"rotation":[6.02437532757454e-24,-3.57627897074053e-07,2.1544846024018e-30,1.0],"scale":[1.0,1.0,1.0],"children":[8,9]},{"name":"Revolver2.003","translation":[5.55111499904869e-19,1.78813930329369e-09,1.49011608607807e-10],"rotation":[0.707109153270721,3.06265150129548e-07,-0.707104444503784,3.06267196492627e-07],"scale":[0.448884069919586,0.448884099721909,0.448884040117264],"mesh":2},{"name":"muzzle.001_end","translation":[0.0,0.00535450922325253,0.0],"rotation":[1.94812040443588e-24,-2.11758236813575e-22,2.64697796016969e-23,1.0],"scale":[1.0,1.0,1.0]},{"name":"empty bullet","translation":[0.000395164446672425,0.00778311397880316,-0.001157998573035],"rotation":[-0.34852933883667,-0.348529398441315,-0.615245699882507,0.615245759487152],"scale":[1.0,1.0,1.0],"children":[11,12]},{"name":"Revolver2.001","translation":[-1.04308128801023e-09,-5.9604643443123e-10,-1.49011608607807e-10],"rotation":[0.500001668930054,0.499998331069946,-0.499997943639755,0.500002086162567],"scale":[0.448884069919586,0.448884129524231,0.448884040117264],"mesh":3},{"name":"empty bullet_end","translation":[0.0,0.00535450782626867,0.0],"rotation":[-2.64697796016969e-23,5.51374153140747e-18,-6.61744490042422e-24,1.0],"scale":[1.0,1.0,1.0]},{"name":"muzzle","translation":[0.0155256418511271,0.00865721236914396,-0.000506344251334667],"rotation":[-0.00591568648815155,0.0522602424025536,-0.00691411644220352,0.998592019081116],"scale":[49.0017929077148,49.0017929077148,49.0017890930176],"children":[14,15]},{"name":"muzzlemesh_1_muzzle1_0.008","translation":[-2.6449560319719e-09,5.9604643443123e-10,1.14087010671948e-10],"rotation":[-0.707106828689575,-8.04556208322538e-08,-8.38615576981283e-08,0.707106709480286],"scale":[0.99999988079071,1.0,1.00000011920929],"mesh":4},{"name":"muzzle_end","translation":[0.0,0.00383462989702821,-2.16840421572404e-20],"rotation":[-1.51788304147971e-18,-2.63310734584192e-36,1.73472347597681e-18,1.0],"scale":[1.0,1.0,1.0]}]}