{"asset":{"generator":"FBX2glTF v0.9.7","version":"2.0"},"scene":0,"extensionsUsed":["KHR_lights_punctual"],"buffers":[{"byteLength":739812,"uri":"gun-pistol-buffer.bin"}],"bufferViews":[{"buffer":0,"byteLength":20,"byteOffset":0},{"buffer":0,"byteLength":60,"byteOffset":20},{"buffer":0,"byteLength":40,"byteOffset":80},{"buffer":0,"byteLength":120,"byteOffset":120},{"buffer":0,"byteLength":8,"byteOffset":240},{"buffer":0,"byteLength":24,"byteOffset":248},{"buffer":0,"byteLength":24,"byteOffset":272},{"buffer":0,"byteLength":72,"byteOffset":296},{"buffer":0,"byteLength":44,"byteOffset":368},{"buffer":0,"byteLength":132,"byteOffset":412},{"buffer":0,"byteLength":24,"byteOffset":544},{"buffer":0,"byteLength":72,"byteOffset":568},{"buffer":0,"byteLength":24,"byteOffset":640},{"buffer":0,"byteLength":72,"byteOffset":664},{"buffer":0,"byteLength":20,"byteOffset":736},{"buffer":0,"byteLength":60,"byteOffset":756},{"buffer":0,"byteLength":40,"byteOffset":816},{"buffer":0,"byteLength":120,"byteOffset":856},{"buffer":0,"byteLength":8,"byteOffset":976},{"buffer":0,"byteLength":24,"byteOffset":984},{"buffer":0,"byteLength":24,"byteOffset":1008},{"buffer":0,"byteLength":72,"byteOffset":1032},{"buffer":0,"byteLength":44,"byteOffset":1104},{"buffer":0,"byteLength":132,"byteOffset":1148},{"buffer":0,"byteLength":24,"byteOffset":1280},{"buffer":0,"byteLength":72,"byteOffset":1304},{"buffer":0,"byteLength":24,"byteOffset":1376},{"buffer":0,"byteLength":72,"byteOffset":1400},{"buffer":0,"byteLength":20,"byteOffset":1472},{"buffer":0,"byteLength":60,"byteOffset":1492},{"buffer":0,"byteLength":40,"byteOffset":1552},{"buffer":0,"byteLength":120,"byteOffset":1592},{"buffer":0,"byteLength":8,"byteOffset":1712},{"buffer":0,"byteLength":24,"byteOffset":1720},{"buffer":0,"byteLength":24,"byteOffset":1744},{"buffer":0,"byteLength":72,"byteOffset":1768},{"buffer":0,"byteLength":44,"byteOffset":1840},{"buffer":0,"byteLength":132,"byteOffset":1884},{"buffer":0,"byteLength":24,"byteOffset":2016},{"buffer":0,"byteLength":72,"byteOffset":2040},{"buffer":0,"byteLength":24,"byteOffset":2112},{"buffer":0,"byteLength":72,"byteOffset":2136},{"buffer":0,"byteLength":20,"byteOffset":2208},{"buffer":0,"byteLength":60,"byteOffset":2228},{"buffer":0,"byteLength":40,"byteOffset":2288},{"buffer":0,"byteLength":120,"byteOffset":2328},{"buffer":0,"byteLength":8,"byteOffset":2448},{"buffer":0,"byteLength":24,"byteOffset":2456},{"buffer":0,"byteLength":24,"byteOffset":2480},{"buffer":0,"byteLength":72,"byteOffset":2504},{"buffer":0,"byteLength":44,"byteOffset":2576},{"buffer":0,"byteLength":132,"byteOffset":2620},{"buffer":0,"byteLength":24,"byteOffset":2752},{"buffer":0,"byteLength":72,"byteOffset":2776},{"buffer":0,"byteLength":24,"byteOffset":2848},{"buffer":0,"byteLength":72,"byteOffset":2872},{"buffer":0,"byteLength":20,"byteOffset":2944},{"buffer":0,"byteLength":60,"byteOffset":2964},{"buffer":0,"byteLength":40,"byteOffset":3024},{"buffer":0,"byteLength":120,"byteOffset":3064},{"buffer":0,"byteLength":8,"byteOffset":3184},{"buffer":0,"byteLength":24,"byteOffset":3192},{"buffer":0,"byteLength":24,"byteOffset":3216},{"buffer":0,"byteLength":72,"byteOffset":3240},{"buffer":0,"byteLength":44,"byteOffset":3312},{"buffer":0,"byteLength":132,"byteOffset":3356},{"buffer":0,"byteLength":24,"byteOffset":3488},{"buffer":0,"byteLength":72,"byteOffset":3512},{"buffer":0,"byteLength":24,"byteOffset":3584},{"buffer":0,"byteLength":72,"byteOffset":3608},{"buffer":0,"byteLength":20,"byteOffset":3680},{"buffer":0,"byteLength":60,"byteOffset":3700},{"buffer":0,"byteLength":40,"byteOffset":3760},{"buffer":0,"byteLength":120,"byteOffset":3800},{"buffer":0,"byteLength":8,"byteOffset":3920},{"buffer":0,"byteLength":24,"byteOffset":3928},{"buffer":0,"byteLength":24,"byteOffset":3952},{"buffer":0,"byteLength":72,"byteOffset":3976},{"buffer":0,"byteLength":44,"byteOffset":4048},{"buffer":0,"byteLength":132,"byteOffset":4092},{"buffer":0,"byteLength":24,"byteOffset":4224},{"buffer":0,"byteLength":72,"byteOffset":4248},{"buffer":0,"byteLength":24,"byteOffset":4320},{"buffer":0,"byteLength":72,"byteOffset":4344},{"buffer":0,"byteLength":20,"byteOffset":4416},{"buffer":0,"byteLength":60,"byteOffset":4436},{"buffer":0,"byteLength":40,"byteOffset":4496},{"buffer":0,"byteLength":120,"byteOffset":4536},{"buffer":0,"byteLength":160,"byteOffset":4656},{"buffer":0,"byteLength":8,"byteOffset":4816},{"buffer":0,"byteLength":24,"byteOffset":4824},{"buffer":0,"byteLength":24,"byteOffset":4848},{"buffer":0,"byteLength":72,"byteOffset":4872},{"buffer":0,"byteLength":96,"byteOffset":4944},{"buffer":0,"byteLength":44,"byteOffset":5040},{"buffer":0,"byteLength":132,"byteOffset":5084},{"buffer":0,"byteLength":176,"byteOffset":5216},{"buffer":0,"byteLength":24,"byteOffset":5392},{"buffer":0,"byteLength":72,"byteOffset":5416},{"buffer":0,"byteLength":72,"byteOffset":5488},{"buffer":0,"byteLength":24,"byteOffset":5560},{"buffer":0,"byteLength":72,"byteOffset":5584},{"buffer":0,"byteLength":20,"byteOffset":5656},{"buffer":0,"byteLength":60,"byteOffset":5676},{"buffer":0,"byteLength":40,"byteOffset":5736},{"buffer":0,"byteLength":120,"byteOffset":5776},{"buffer":0,"byteLength":160,"byteOffset":5896},{"buffer":0,"byteLength":8,"byteOffset":6056},{"buffer":0,"byteLength":24,"byteOffset":6064},{"buffer":0,"byteLength":24,"byteOffset":6088},{"buffer":0,"byteLength":72,"byteOffset":6112},{"buffer":0,"byteLength":96,"byteOffset":6184},{"buffer":0,"byteLength":44,"byteOffset":6280},{"buffer":0,"byteLength":132,"byteOffset":6324},{"buffer":0,"byteLength":176,"byteOffset":6456},{"buffer":0,"byteLength":24,"byteOffset":6632},{"buffer":0,"byteLength":72,"byteOffset":6656},{"buffer":0,"byteLength":72,"byteOffset":6728},{"buffer":0,"byteLength":24,"byteOffset":6800},{"buffer":0,"byteLength":72,"byteOffset":6824},{"buffer":0,"byteLength":20,"byteOffset":6896},{"buffer":0,"byteLength":60,"byteOffset":6916},{"buffer":0,"byteLength":80,"byteOffset":6976},{"buffer":0,"byteLength":40,"byteOffset":7056},{"buffer":0,"byteLength":120,"byteOffset":7096},{"buffer":0,"byteLength":160,"byteOffset":7216},{"buffer":0,"byteLength":8,"byteOffset":7376},{"buffer":0,"byteLength":24,"byteOffset":7384},{"buffer":0,"byteLength":32,"byteOffset":7408},{"buffer":0,"byteLength":24,"byteOffset":7440},{"buffer":0,"byteLength":72,"byteOffset":7464},{"buffer":0,"byteLength":96,"byteOffset":7536},{"buffer":0,"byteLength":44,"byteOffset":7632},{"buffer":0,"byteLength":132,"byteOffset":7676},{"buffer":0,"byteLength":176,"byteOffset":7808},{"buffer":0,"byteLength":24,"byteOffset":7984},{"buffer":0,"byteLength":72,"byteOffset":8008},{"buffer":0,"byteLength":96,"byteOffset":8080},{"buffer":0,"byteLength":72,"byteOffset":8176},{"buffer":0,"byteLength":24,"byteOffset":8248},{"buffer":0,"byteLength":72,"byteOffset":8272},{"buffer":0,"byteLength":96,"byteOffset":8344},{"buffer":0,"byteLength":20,"byteOffset":8440},{"buffer":0,"byteLength":60,"byteOffset":8460},{"buffer":0,"byteLength":40,"byteOffset":8520},{"buffer":0,"byteLength":120,"byteOffset":8560},{"buffer":0,"byteLength":160,"byteOffset":8680},{"buffer":0,"byteLength":8,"byteOffset":8840},{"buffer":0,"byteLength":24,"byteOffset":8848},{"buffer":0,"byteLength":24,"byteOffset":8872},{"buffer":0,"byteLength":72,"byteOffset":8896},{"buffer":0,"byteLength":96,"byteOffset":8968},{"buffer":0,"byteLength":44,"byteOffset":9064},{"buffer":0,"byteLength":132,"byteOffset":9108},{"buffer":0,"byteLength":176,"byteOffset":9240},{"buffer":0,"byteLength":24,"byteOffset":9416},{"buffer":0,"byteLength":72,"byteOffset":9440},{"buffer":0,"byteLength":72,"byteOffset":9512},{"buffer":0,"byteLength":24,"byteOffset":9584},{"buffer":0,"byteLength":72,"byteOffset":9608},{"buffer":0,"byteLength":20,"byteOffset":9680},{"buffer":0,"byteLength":60,"byteOffset":9700},{"buffer":0,"byteLength":80,"byteOffset":9760},{"buffer":0,"byteLength":40,"byteOffset":9840},{"buffer":0,"byteLength":120,"byteOffset":9880},{"buffer":0,"byteLength":160,"byteOffset":10000},{"buffer":0,"byteLength":8,"byteOffset":10160},{"buffer":0,"byteLength":24,"byteOffset":10168},{"buffer":0,"byteLength":32,"byteOffset":10192},{"buffer":0,"byteLength":24,"byteOffset":10224},{"buffer":0,"byteLength":72,"byteOffset":10248},{"buffer":0,"byteLength":96,"byteOffset":10320},{"buffer":0,"byteLength":44,"byteOffset":10416},{"buffer":0,"byteLength":132,"byteOffset":10460},{"buffer":0,"byteLength":176,"byteOffset":10592},{"buffer":0,"byteLength":24,"byteOffset":10768},{"buffer":0,"byteLength":72,"byteOffset":10792},{"buffer":0,"byteLength":96,"byteOffset":10864},{"buffer":0,"byteLength":72,"byteOffset":10960},{"buffer":0,"byteLength":24,"byteOffset":11032},{"buffer":0,"byteLength":72,"byteOffset":11056},{"buffer":0,"byteLength":96,"byteOffset":11128},{"buffer":0,"byteLength":20,"byteOffset":11224},{"buffer":0,"byteLength":60,"byteOffset":11244},{"buffer":0,"byteLength":80,"byteOffset":11304},{"buffer":0,"byteLength":60,"byteOffset":11384},{"buffer":0,"byteLength":40,"byteOffset":11444},{"buffer":0,"byteLength":120,"byteOffset":11484},{"buffer":0,"byteLength":160,"byteOffset":11604},{"buffer":0,"byteLength":120,"byteOffset":11764},{"buffer":0,"byteLength":8,"byteOffset":11884},{"buffer":0,"byteLength":24,"byteOffset":11892},{"buffer":0,"byteLength":32,"byteOffset":11916},{"buffer":0,"byteLength":24,"byteOffset":11948},{"buffer":0,"byteLength":24,"byteOffset":11972},{"buffer":0,"byteLength":72,"byteOffset":11996},{"buffer":0,"byteLength":96,"byteOffset":12068},{"buffer":0,"byteLength":72,"byteOffset":12164},{"buffer":0,"byteLength":44,"byteOffset":12236},{"buffer":0,"byteLength":132,"byteOffset":12280},{"buffer":0,"byteLength":176,"byteOffset":12412},{"buffer":0,"byteLength":132,"byteOffset":12588},{"buffer":0,"byteLength":24,"byteOffset":12720},{"buffer":0,"byteLength":72,"byteOffset":12744},{"buffer":0,"byteLength":96,"byteOffset":12816},{"buffer":0,"byteLength":72,"byteOffset":12912},{"buffer":0,"byteLength":24,"byteOffset":12984},{"buffer":0,"byteLength":72,"byteOffset":13008},{"buffer":0,"byteLength":96,"byteOffset":13080},{"buffer":0,"byteLength":72,"byteOffset":13176},{"buffer":0,"byteLength":20,"byteOffset":13248},{"buffer":0,"byteLength":60,"byteOffset":13268},{"buffer":0,"byteLength":80,"byteOffset":13328},{"buffer":0,"byteLength":40,"byteOffset":13408},{"buffer":0,"byteLength":120,"byteOffset":13448},{"buffer":0,"byteLength":160,"byteOffset":13568},{"buffer":0,"byteLength":8,"byteOffset":13728},{"buffer":0,"byteLength":24,"byteOffset":13736},{"buffer":0,"byteLength":32,"byteOffset":13760},{"buffer":0,"byteLength":24,"byteOffset":13792},{"buffer":0,"byteLength":72,"byteOffset":13816},{"buffer":0,"byteLength":96,"byteOffset":13888},{"buffer":0,"byteLength":44,"byteOffset":13984},{"buffer":0,"byteLength":132,"byteOffset":14028},{"buffer":0,"byteLength":176,"byteOffset":14160},{"buffer":0,"byteLength":24,"byteOffset":14336},{"buffer":0,"byteLength":72,"byteOffset":14360},{"buffer":0,"byteLength":96,"byteOffset":14432},{"buffer":0,"byteLength":72,"byteOffset":14528},{"buffer":0,"byteLength":24,"byteOffset":14600},{"buffer":0,"byteLength":72,"byteOffset":14624},{"buffer":0,"byteLength":96,"byteOffset":14696},{"buffer":0,"byteLength":20,"byteOffset":14792},{"buffer":0,"byteLength":60,"byteOffset":14812},{"buffer":0,"byteLength":80,"byteOffset":14872},{"buffer":0,"byteLength":40,"byteOffset":14952},{"buffer":0,"byteLength":120,"byteOffset":14992},{"buffer":0,"byteLength":160,"byteOffset":15112},{"buffer":0,"byteLength":8,"byteOffset":15272},{"buffer":0,"byteLength":24,"byteOffset":15280},{"buffer":0,"byteLength":32,"byteOffset":15304},{"buffer":0,"byteLength":24,"byteOffset":15336},{"buffer":0,"byteLength":72,"byteOffset":15360},{"buffer":0,"byteLength":96,"byteOffset":15432},{"buffer":0,"byteLength":44,"byteOffset":15528},{"buffer":0,"byteLength":132,"byteOffset":15572},{"buffer":0,"byteLength":176,"byteOffset":15704},{"buffer":0,"byteLength":24,"byteOffset":15880},{"buffer":0,"byteLength":72,"byteOffset":15904},{"buffer":0,"byteLength":96,"byteOffset":15976},{"buffer":0,"byteLength":72,"byteOffset":16072},{"buffer":0,"byteLength":24,"byteOffset":16144},{"buffer":0,"byteLength":72,"byteOffset":16168},{"buffer":0,"byteLength":96,"byteOffset":16240},{"buffer":0,"byteLength":20,"byteOffset":16336},{"buffer":0,"byteLength":60,"byteOffset":16356},{"buffer":0,"byteLength":40,"byteOffset":16416},{"buffer":0,"byteLength":120,"byteOffset":16456},{"buffer":0,"byteLength":160,"byteOffset":16576},{"buffer":0,"byteLength":8,"byteOffset":16736},{"buffer":0,"byteLength":24,"byteOffset":16744},{"buffer":0,"byteLength":24,"byteOffset":16768},{"buffer":0,"byteLength":72,"byteOffset":16792},{"buffer":0,"byteLength":96,"byteOffset":16864},{"buffer":0,"byteLength":44,"byteOffset":16960},{"buffer":0,"byteLength":132,"byteOffset":17004},{"buffer":0,"byteLength":176,"byteOffset":17136},{"buffer":0,"byteLength":24,"byteOffset":17312},{"buffer":0,"byteLength":72,"byteOffset":17336},{"buffer":0,"byteLength":72,"byteOffset":17408},{"buffer":0,"byteLength":24,"byteOffset":17480},{"buffer":0,"byteLength":72,"byteOffset":17504},{"buffer":0,"byteLength":20,"byteOffset":17576},{"buffer":0,"byteLength":60,"byteOffset":17596},{"buffer":0,"byteLength":80,"byteOffset":17656},{"buffer":0,"byteLength":40,"byteOffset":17736},{"buffer":0,"byteLength":120,"byteOffset":17776},{"buffer":0,"byteLength":160,"byteOffset":17896},{"buffer":0,"byteLength":8,"byteOffset":18056},{"buffer":0,"byteLength":24,"byteOffset":18064},{"buffer":0,"byteLength":32,"byteOffset":18088},{"buffer":0,"byteLength":24,"byteOffset":18120},{"buffer":0,"byteLength":72,"byteOffset":18144},{"buffer":0,"byteLength":96,"byteOffset":18216},{"buffer":0,"byteLength":44,"byteOffset":18312},{"buffer":0,"byteLength":132,"byteOffset":18356},{"buffer":0,"byteLength":176,"byteOffset":18488},{"buffer":0,"byteLength":24,"byteOffset":18664},{"buffer":0,"byteLength":72,"byteOffset":18688},{"buffer":0,"byteLength":96,"byteOffset":18760},{"buffer":0,"byteLength":72,"byteOffset":18856},{"buffer":0,"byteLength":24,"byteOffset":18928},{"buffer":0,"byteLength":72,"byteOffset":18952},{"buffer":0,"byteLength":96,"byteOffset":19024},{"buffer":0,"byteLength":20,"byteOffset":19120},{"buffer":0,"byteLength":60,"byteOffset":19140},{"buffer":0,"byteLength":80,"byteOffset":19200},{"buffer":0,"byteLength":40,"byteOffset":19280},{"buffer":0,"byteLength":120,"byteOffset":19320},{"buffer":0,"byteLength":160,"byteOffset":19440},{"buffer":0,"byteLength":8,"byteOffset":19600},{"buffer":0,"byteLength":24,"byteOffset":19608},{"buffer":0,"byteLength":32,"byteOffset":19632},{"buffer":0,"byteLength":24,"byteOffset":19664},{"buffer":0,"byteLength":72,"byteOffset":19688},{"buffer":0,"byteLength":96,"byteOffset":19760},{"buffer":0,"byteLength":44,"byteOffset":19856},{"buffer":0,"byteLength":132,"byteOffset":19900},{"buffer":0,"byteLength":176,"byteOffset":20032},{"buffer":0,"byteLength":24,"byteOffset":20208},{"buffer":0,"byteLength":72,"byteOffset":20232},{"buffer":0,"byteLength":96,"byteOffset":20304},{"buffer":0,"byteLength":72,"byteOffset":20400},{"buffer":0,"byteLength":24,"byteOffset":20472},{"buffer":0,"byteLength":72,"byteOffset":20496},{"buffer":0,"byteLength":96,"byteOffset":20568},{"buffer":0,"byteLength":20,"byteOffset":20664},{"buffer":0,"byteLength":60,"byteOffset":20684},{"buffer":0,"byteLength":80,"byteOffset":20744},{"buffer":0,"byteLength":60,"byteOffset":20824},{"buffer":0,"byteLength":40,"byteOffset":20884},{"buffer":0,"byteLength":120,"byteOffset":20924},{"buffer":0,"byteLength":160,"byteOffset":21044},{"buffer":0,"byteLength":120,"byteOffset":21204},{"buffer":0,"byteLength":8,"byteOffset":21324},{"buffer":0,"byteLength":24,"byteOffset":21332},{"buffer":0,"byteLength":32,"byteOffset":21356},{"buffer":0,"byteLength":24,"byteOffset":21388},{"buffer":0,"byteLength":24,"byteOffset":21412},{"buffer":0,"byteLength":72,"byteOffset":21436},{"buffer":0,"byteLength":96,"byteOffset":21508},{"buffer":0,"byteLength":72,"byteOffset":21604},{"buffer":0,"byteLength":44,"byteOffset":21676},{"buffer":0,"byteLength":132,"byteOffset":21720},{"buffer":0,"byteLength":176,"byteOffset":21852},{"buffer":0,"byteLength":132,"byteOffset":22028},{"buffer":0,"byteLength":24,"byteOffset":22160},{"buffer":0,"byteLength":72,"byteOffset":22184},{"buffer":0,"byteLength":96,"byteOffset":22256},{"buffer":0,"byteLength":72,"byteOffset":22352},{"buffer":0,"byteLength":24,"byteOffset":22424},{"buffer":0,"byteLength":72,"byteOffset":22448},{"buffer":0,"byteLength":96,"byteOffset":22520},{"buffer":0,"byteLength":72,"byteOffset":22616},{"buffer":0,"byteLength":20,"byteOffset":22688},{"buffer":0,"byteLength":60,"byteOffset":22708},{"buffer":0,"byteLength":40,"byteOffset":22768},{"buffer":0,"byteLength":120,"byteOffset":22808},{"buffer":0,"byteLength":160,"byteOffset":22928},{"buffer":0,"byteLength":8,"byteOffset":23088},{"buffer":0,"byteLength":24,"byteOffset":23096},{"buffer":0,"byteLength":24,"byteOffset":23120},{"buffer":0,"byteLength":72,"byteOffset":23144},{"buffer":0,"byteLength":96,"byteOffset":23216},{"buffer":0,"byteLength":44,"byteOffset":23312},{"buffer":0,"byteLength":132,"byteOffset":23356},{"buffer":0,"byteLength":176,"byteOffset":23488},{"buffer":0,"byteLength":24,"byteOffset":23664},{"buffer":0,"byteLength":72,"byteOffset":23688},{"buffer":0,"byteLength":72,"byteOffset":23760},{"buffer":0,"byteLength":24,"byteOffset":23832},{"buffer":0,"byteLength":72,"byteOffset":23856},{"buffer":0,"byteLength":20,"byteOffset":23928},{"buffer":0,"byteLength":60,"byteOffset":23948},{"buffer":0,"byteLength":40,"byteOffset":24008},{"buffer":0,"byteLength":120,"byteOffset":24048},{"buffer":0,"byteLength":160,"byteOffset":24168},{"buffer":0,"byteLength":8,"byteOffset":24328},{"buffer":0,"byteLength":24,"byteOffset":24336},{"buffer":0,"byteLength":24,"byteOffset":24360},{"buffer":0,"byteLength":72,"byteOffset":24384},{"buffer":0,"byteLength":96,"byteOffset":24456},{"buffer":0,"byteLength":44,"byteOffset":24552},{"buffer":0,"byteLength":132,"byteOffset":24596},{"buffer":0,"byteLength":176,"byteOffset":24728},{"buffer":0,"byteLength":132,"byteOffset":24904},{"buffer":0,"byteLength":24,"byteOffset":25036},{"buffer":0,"byteLength":72,"byteOffset":25060},{"buffer":0,"byteLength":72,"byteOffset":25132},{"buffer":0,"byteLength":24,"byteOffset":25204},{"buffer":0,"byteLength":72,"byteOffset":25228},{"buffer":0,"byteLength":20,"byteOffset":25300},{"buffer":0,"byteLength":60,"byteOffset":25320},{"buffer":0,"byteLength":80,"byteOffset":25380},{"buffer":0,"byteLength":40,"byteOffset":25460},{"buffer":0,"byteLength":120,"byteOffset":25500},{"buffer":0,"byteLength":160,"byteOffset":25620},{"buffer":0,"byteLength":8,"byteOffset":25780},{"buffer":0,"byteLength":24,"byteOffset":25788},{"buffer":0,"byteLength":32,"byteOffset":25812},{"buffer":0,"byteLength":24,"byteOffset":25844},{"buffer":0,"byteLength":72,"byteOffset":25868},{"buffer":0,"byteLength":96,"byteOffset":25940},{"buffer":0,"byteLength":44,"byteOffset":26036},{"buffer":0,"byteLength":132,"byteOffset":26080},{"buffer":0,"byteLength":176,"byteOffset":26212},{"buffer":0,"byteLength":132,"byteOffset":26388},{"buffer":0,"byteLength":24,"byteOffset":26520},{"buffer":0,"byteLength":72,"byteOffset":26544},{"buffer":0,"byteLength":96,"byteOffset":26616},{"buffer":0,"byteLength":72,"byteOffset":26712},{"buffer":0,"byteLength":24,"byteOffset":26784},{"buffer":0,"byteLength":72,"byteOffset":26808},{"buffer":0,"byteLength":96,"byteOffset":26880},{"buffer":0,"byteLength":20,"byteOffset":26976},{"buffer":0,"byteLength":60,"byteOffset":26996},{"buffer":0,"byteLength":40,"byteOffset":27056},{"buffer":0,"byteLength":120,"byteOffset":27096},{"buffer":0,"byteLength":160,"byteOffset":27216},{"buffer":0,"byteLength":8,"byteOffset":27376},{"buffer":0,"byteLength":24,"byteOffset":27384},{"buffer":0,"byteLength":24,"byteOffset":27408},{"buffer":0,"byteLength":72,"byteOffset":27432},{"buffer":0,"byteLength":96,"byteOffset":27504},{"buffer":0,"byteLength":44,"byteOffset":27600},{"buffer":0,"byteLength":132,"byteOffset":27644},{"buffer":0,"byteLength":176,"byteOffset":27776},{"buffer":0,"byteLength":24,"byteOffset":27952},{"buffer":0,"byteLength":72,"byteOffset":27976},{"buffer":0,"byteLength":72,"byteOffset":28048},{"buffer":0,"byteLength":24,"byteOffset":28120},{"buffer":0,"byteLength":72,"byteOffset":28144},{"buffer":0,"byteLength":20,"byteOffset":28216},{"buffer":0,"byteLength":60,"byteOffset":28236},{"buffer":0,"byteLength":80,"byteOffset":28296},{"buffer":0,"byteLength":40,"byteOffset":28376},{"buffer":0,"byteLength":120,"byteOffset":28416},{"buffer":0,"byteLength":160,"byteOffset":28536},{"buffer":0,"byteLength":8,"byteOffset":28696},{"buffer":0,"byteLength":24,"byteOffset":28704},{"buffer":0,"byteLength":32,"byteOffset":28728},{"buffer":0,"byteLength":24,"byteOffset":28760},{"buffer":0,"byteLength":72,"byteOffset":28784},{"buffer":0,"byteLength":96,"byteOffset":28856},{"buffer":0,"byteLength":44,"byteOffset":28952},{"buffer":0,"byteLength":132,"byteOffset":28996},{"buffer":0,"byteLength":176,"byteOffset":29128},{"buffer":0,"byteLength":132,"byteOffset":29304},{"buffer":0,"byteLength":24,"byteOffset":29436},{"buffer":0,"byteLength":72,"byteOffset":29460},{"buffer":0,"byteLength":96,"byteOffset":29532},{"buffer":0,"byteLength":72,"byteOffset":29628},{"buffer":0,"byteLength":24,"byteOffset":29700},{"buffer":0,"byteLength":72,"byteOffset":29724},{"buffer":0,"byteLength":96,"byteOffset":29796},{"buffer":0,"byteLength":20,"byteOffset":29892},{"buffer":0,"byteLength":60,"byteOffset":29912},{"buffer":0,"byteLength":80,"byteOffset":29972},{"buffer":0,"byteLength":60,"byteOffset":30052},{"buffer":0,"byteLength":40,"byteOffset":30112},{"buffer":0,"byteLength":120,"byteOffset":30152},{"buffer":0,"byteLength":160,"byteOffset":30272},{"buffer":0,"byteLength":120,"byteOffset":30432},{"buffer":0,"byteLength":8,"byteOffset":30552},{"buffer":0,"byteLength":24,"byteOffset":30560},{"buffer":0,"byteLength":32,"byteOffset":30584},{"buffer":0,"byteLength":24,"byteOffset":30616},{"buffer":0,"byteLength":24,"byteOffset":30640},{"buffer":0,"byteLength":72,"byteOffset":30664},{"buffer":0,"byteLength":96,"byteOffset":30736},{"buffer":0,"byteLength":72,"byteOffset":30832},{"buffer":0,"byteLength":44,"byteOffset":30904},{"buffer":0,"byteLength":132,"byteOffset":30948},{"buffer":0,"byteLength":176,"byteOffset":31080},{"buffer":0,"byteLength":132,"byteOffset":31256},{"buffer":0,"byteLength":24,"byteOffset":31388},{"buffer":0,"byteLength":72,"byteOffset":31412},{"buffer":0,"byteLength":96,"byteOffset":31484},{"buffer":0,"byteLength":72,"byteOffset":31580},{"buffer":0,"byteLength":24,"byteOffset":31652},{"buffer":0,"byteLength":72,"byteOffset":31676},{"buffer":0,"byteLength":96,"byteOffset":31748},{"buffer":0,"byteLength":72,"byteOffset":31844},{"buffer":0,"byteLength":912,"byteOffset":31916,"target":34963},{"buffer":0,"byteLength":1608,"byteOffset":32828,"target":34962},{"buffer":0,"byteLength":1608,"byteOffset":34436,"target":34962},{"buffer":0,"byteLength":1072,"byteOffset":36044,"target":34962},{"buffer":0,"byteLength":118308,"byteOffset":37116,"target":34963},{"buffer":0,"byteLength":142512,"byteOffset":155424,"target":34962},{"buffer":0,"byteLength":142512,"byteOffset":297936,"target":34962},{"buffer":0,"byteLength":95008,"byteOffset":440448,"target":34962},{"buffer":0,"byteLength":44868,"byteOffset":535456,"target":34963},{"buffer":0,"byteLength":59808,"byteOffset":580324,"target":34962},{"buffer":0,"byteLength":59808,"byteOffset":640132,"target":34962},{"buffer":0,"byteLength":39872,"byteOffset":699940,"target":34962}],"scenes":[{"name":"Root Scene","nodes":[0]}],"accessors":[{"componentType":5126,"type":"SCALAR","count":5,"bufferView":0,"byteOffset":0,"min":[0.0],"max":[0.16666667163372]},{"componentType":5126,"type":"VEC3","count":5,"bufferView":1,"byteOffset":0},{"componentType":5126,"type":"SCALAR","count":10,"bufferView":2,"byteOffset":0,"min":[0.0],"max":[0.375]},{"componentType":5126,"type":"VEC3","count":10,"bufferView":3,"byteOffset":0},{"componentType":5126,"type":"SCALAR","count":2,"bufferView":4,"byteOffset":0,"min":[0.0],"max":[0.0416666679084301]},{"componentType":5126,"type":"VEC3","count":2,"bufferView":5,"byteOffset":0},{"componentType":5126,"type":"SCALAR","count":6,"bufferView":6,"byteOffset":0,"min":[0.0],"max":[0.20833332836628]},{"componentType":5126,"type":"VEC3","count":6,"bufferView":7,"byteOffset":0},{"componentType":5126,"type":"SCALAR","count":11,"bufferView":8,"byteOffset":0,"min":[0.0],"max":[0.416666656732559]},{"componentType":5126,"type":"VEC3","count":11,"bufferView":9,"byteOffset":0},{"componentType":5126,"type":"SCALAR","count":6,"bufferView":10,"byteOffset":0,"min":[0.0],"max":[0.20833332836628]},{"componentType":5126,"type":"VEC3","count":6,"bufferView":11,"byteOffset":0},{"componentType":5126,"type":"SCALAR","count":6,"bufferView":12,"byteOffset":0,"min":[0.0],"max":[0.20833332836628]},{"componentType":5126,"type":"VEC3","count":6,"bufferView":13,"byteOffset":0},{"componentType":5126,"type":"SCALAR","count":5,"bufferView":14,"byteOffset":0,"min":[0.0],"max":[0.16666667163372]},{"componentType":5126,"type":"VEC3","count":5,"bufferView":15,"byteOffset":0},{"componentType":5126,"type":"SCALAR","count":10,"bufferView":16,"byteOffset":0,"min":[0.0],"max":[0.375]},{"componentType":5126,"type":"VEC3","count":10,"bufferView":17,"byteOffset":0},{"componentType":5126,"type":"SCALAR","count":2,"bufferView":18,"byteOffset":0,"min":[0.0],"max":[0.0416666679084301]},{"componentType":5126,"type":"VEC3","count":2,"bufferView":19,"byteOffset":0},{"componentType":5126,"type":"SCALAR","count":6,"bufferView":20,"byteOffset":0,"min":[0.0],"max":[0.20833332836628]},{"componentType":5126,"type":"VEC3","count":6,"bufferView":21,"byteOffset":0},{"componentType":5126,"type":"SCALAR","count":11,"bufferView":22,"byteOffset":0,"min":[0.0],"max":[0.416666656732559]},{"componentType":5126,"type":"VEC3","count":11,"bufferView":23,"byteOffset":0},{"componentType":5126,"type":"SCALAR","count":6,"bufferView":24,"byteOffset":0,"min":[0.0],"max":[0.20833332836628]},{"componentType":5126,"type":"VEC3","count":6,"bufferView":25,"byteOffset":0},{"componentType":5126,"type":"SCALAR","count":6,"bufferView":26,"byteOffset":0,"min":[0.0],"max":[0.20833332836628]},{"componentType":5126,"type":"VEC3","count":6,"bufferView":27,"byteOffset":0},{"componentType":5126,"type":"SCALAR","count":5,"bufferView":28,"byteOffset":0,"min":[0.0],"max":[0.16666667163372]},{"componentType":5126,"type":"VEC3","count":5,"bufferView":29,"byteOffset":0},{"componentType":5126,"type":"SCALAR","count":10,"bufferView":30,"byteOffset":0,"min":[0.0],"max":[0.375]},{"componentType":5126,"type":"VEC3","count":10,"bufferView":31,"byteOffset":0},{"componentType":5126,"type":"SCALAR","count":2,"bufferView":32,"byteOffset":0,"min":[0.0],"max":[0.0416666679084301]},{"componentType":5126,"type":"VEC3","count":2,"bufferView":33,"byteOffset":0},{"componentType":5126,"type":"SCALAR","count":6,"bufferView":34,"byteOffset":0,"min":[0.0],"max":[0.20833332836628]},{"componentType":5126,"type":"VEC3","count":6,"bufferView":35,"byteOffset":0},{"componentType":5126,"type":"SCALAR","count":11,"bufferView":36,"byteOffset":0,"min":[0.0],"max":[0.416666656732559]},{"componentType":5126,"type":"VEC3","count":11,"bufferView":37,"byteOffset":0},{"componentType":5126,"type":"SCALAR","count":6,"bufferView":38,"byteOffset":0,"min":[0.0],"max":[0.20833332836628]},{"componentType":5126,"type":"VEC3","count":6,"bufferView":39,"byteOffset":0},{"componentType":5126,"type":"SCALAR","count":6,"bufferView":40,"byteOffset":0,"min":[0.0],"max":[0.20833332836628]},{"componentType":5126,"type":"VEC3","count":6,"bufferView":41,"byteOffset":0},{"componentType":5126,"type":"SCALAR","count":5,"bufferView":42,"byteOffset":0,"min":[0.0],"max":[0.16666667163372]},{"componentType":5126,"type":"VEC3","count":5,"bufferView":43,"byteOffset":0},{"componentType":5126,"type":"SCALAR","count":10,"bufferView":44,"byteOffset":0,"min":[0.0],"max":[0.375]},{"componentType":5126,"type":"VEC3","count":10,"bufferView":45,"byteOffset":0},{"componentType":5126,"type":"SCALAR","count":2,"bufferView":46,"byteOffset":0,"min":[0.0],"max":[0.0416666679084301]},{"componentType":5126,"type":"VEC3","count":2,"bufferView":47,"byteOffset":0},{"componentType":5126,"type":"SCALAR","count":6,"bufferView":48,"byteOffset":0,"min":[0.0],"max":[0.20833332836628]},{"componentType":5126,"type":"VEC3","count":6,"bufferView":49,"byteOffset":0},{"componentType":5126,"type":"SCALAR","count":11,"bufferView":50,"byteOffset":0,"min":[0.0],"max":[0.416666656732559]},{"componentType":5126,"type":"VEC3","count":11,"bufferView":51,"byteOffset":0},{"componentType":5126,"type":"SCALAR","count":6,"bufferView":52,"byteOffset":0,"min":[0.0],"max":[0.20833332836628]},{"componentType":5126,"type":"VEC3","count":6,"bufferView":53,"byteOffset":0},{"componentType":5126,"type":"SCALAR","count":6,"bufferView":54,"byteOffset":0,"min":[0.0],"max":[0.20833332836628]},{"componentType":5126,"type":"VEC3","count":6,"bufferView":55,"byteOffset":0},{"componentType":5126,"type":"SCALAR","count":5,"bufferView":56,"byteOffset":0,"min":[0.0],"max":[0.16666667163372]},{"componentType":5126,"type":"VEC3","count":5,"bufferView":57,"byteOffset":0},{"componentType":5126,"type":"SCALAR","count":10,"bufferView":58,"byteOffset":0,"min":[0.0],"max":[0.375]},{"componentType":5126,"type":"VEC3","count":10,"bufferView":59,"byteOffset":0},{"componentType":5126,"type":"SCALAR","count":2,"bufferView":60,"byteOffset":0,"min":[0.0],"max":[0.0416666679084301]},{"componentType":5126,"type":"VEC3","count":2,"bufferView":61,"byteOffset":0},{"componentType":5126,"type":"SCALAR","count":6,"bufferView":62,"byteOffset":0,"min":[0.0],"max":[0.20833332836628]},{"componentType":5126,"type":"VEC3","count":6,"bufferView":63,"byteOffset":0},{"componentType":5126,"type":"SCALAR","count":11,"bufferView":64,"byteOffset":0,"min":[0.0],"max":[0.416666656732559]},{"componentType":5126,"type":"VEC3","count":11,"bufferView":65,"byteOffset":0},{"componentType":5126,"type":"SCALAR","count":6,"bufferView":66,"byteOffset":0,"min":[0.0],"max":[0.20833332836628]},{"componentType":5126,"type":"VEC3","count":6,"bufferView":67,"byteOffset":0},{"componentType":5126,"type":"SCALAR","count":6,"bufferView":68,"byteOffset":0,"min":[0.0],"max":[0.20833332836628]},{"componentType":5126,"type":"VEC3","count":6,"bufferView":69,"byteOffset":0},{"componentType":5126,"type":"SCALAR","count":5,"bufferView":70,"byteOffset":0,"min":[0.0],"max":[0.16666667163372]},{"componentType":5126,"type":"VEC3","count":5,"bufferView":71,"byteOffset":0},{"componentType":5126,"type":"SCALAR","count":10,"bufferView":72,"byteOffset":0,"min":[0.0],"max":[0.375]},{"componentType":5126,"type":"VEC3","count":10,"bufferView":73,"byteOffset":0},{"componentType":5126,"type":"SCALAR","count":2,"bufferView":74,"byteOffset":0,"min":[0.0],"max":[0.0416666679084301]},{"componentType":5126,"type":"VEC3","count":2,"bufferView":75,"byteOffset":0},{"componentType":5126,"type":"SCALAR","count":6,"bufferView":76,"byteOffset":0,"min":[0.0],"max":[0.20833332836628]},{"componentType":5126,"type":"VEC3","count":6,"bufferView":77,"byteOffset":0},{"componentType":5126,"type":"SCALAR","count":11,"bufferView":78,"byteOffset":0,"min":[0.0],"max":[0.416666656732559]},{"componentType":5126,"type":"VEC3","count":11,"bufferView":79,"byteOffset":0},{"componentType":5126,"type":"SCALAR","count":6,"bufferView":80,"byteOffset":0,"min":[0.0],"max":[0.20833332836628]},{"componentType":5126,"type":"VEC3","count":6,"bufferView":81,"byteOffset":0},{"componentType":5126,"type":"SCALAR","count":6,"bufferView":82,"byteOffset":0,"min":[0.0],"max":[0.20833332836628]},{"componentType":5126,"type":"VEC3","count":6,"bufferView":83,"byteOffset":0},{"componentType":5126,"type":"SCALAR","count":5,"bufferView":84,"byteOffset":0,"min":[0.0],"max":[0.16666667163372]},{"componentType":5126,"type":"VEC3","count":5,"bufferView":85,"byteOffset":0},{"componentType":5126,"type":"SCALAR","count":10,"bufferView":86,"byteOffset":0,"min":[0.0],"max":[0.375]},{"componentType":5126,"type":"VEC3","count":10,"bufferView":87,"byteOffset":0},{"componentType":5126,"type":"VEC4","count":10,"bufferView":88,"byteOffset":0},{"componentType":5126,"type":"SCALAR","count":2,"bufferView":89,"byteOffset":0,"min":[0.0],"max":[0.0416666679084301]},{"componentType":5126,"type":"VEC3","count":2,"bufferView":90,"byteOffset":0},{"componentType":5126,"type":"SCALAR","count":6,"bufferView":91,"byteOffset":0,"min":[0.0],"max":[0.20833332836628]},{"componentType":5126,"type":"VEC3","count":6,"bufferView":92,"byteOffset":0},{"componentType":5126,"type":"VEC4","count":6,"bufferView":93,"byteOffset":0},{"componentType":5126,"type":"SCALAR","count":11,"bufferView":94,"byteOffset":0,"min":[0.0],"max":[0.416666656732559]},{"componentType":5126,"type":"VEC3","count":11,"bufferView":95,"byteOffset":0},{"componentType":5126,"type":"VEC4","count":11,"bufferView":96,"byteOffset":0},{"componentType":5126,"type":"SCALAR","count":6,"bufferView":97,"byteOffset":0,"min":[0.0],"max":[0.20833332836628]},{"componentType":5126,"type":"VEC3","count":6,"bufferView":98,"byteOffset":0},{"componentType":5126,"type":"VEC3","count":6,"bufferView":99,"byteOffset":0},{"componentType":5126,"type":"SCALAR","count":6,"bufferView":100,"byteOffset":0,"min":[0.0],"max":[0.20833332836628]},{"componentType":5126,"type":"VEC3","count":6,"bufferView":101,"byteOffset":0},{"componentType":5126,"type":"SCALAR","count":5,"bufferView":102,"byteOffset":0,"min":[0.0],"max":[0.16666667163372]},{"componentType":5126,"type":"VEC3","count":5,"bufferView":103,"byteOffset":0},{"componentType":5126,"type":"SCALAR","count":10,"bufferView":104,"byteOffset":0,"min":[0.0],"max":[0.375]},{"componentType":5126,"type":"VEC3","count":10,"bufferView":105,"byteOffset":0},{"componentType":5126,"type":"VEC4","count":10,"bufferView":106,"byteOffset":0},{"componentType":5126,"type":"SCALAR","count":2,"bufferView":107,"byteOffset":0,"min":[0.0],"max":[0.0416666679084301]},{"componentType":5126,"type":"VEC3","count":2,"bufferView":108,"byteOffset":0},{"componentType":5126,"type":"SCALAR","count":6,"bufferView":109,"byteOffset":0,"min":[0.0],"max":[0.20833332836628]},{"componentType":5126,"type":"VEC3","count":6,"bufferView":110,"byteOffset":0},{"componentType":5126,"type":"VEC4","count":6,"bufferView":111,"byteOffset":0},{"componentType":5126,"type":"SCALAR","count":11,"bufferView":112,"byteOffset":0,"min":[0.0],"max":[0.416666656732559]},{"componentType":5126,"type":"VEC3","count":11,"bufferView":113,"byteOffset":0},{"componentType":5126,"type":"VEC4","count":11,"bufferView":114,"byteOffset":0},{"componentType":5126,"type":"SCALAR","count":6,"bufferView":115,"byteOffset":0,"min":[0.0],"max":[0.20833332836628]},{"componentType":5126,"type":"VEC3","count":6,"bufferView":116,"byteOffset":0},{"componentType":5126,"type":"VEC3","count":6,"bufferView":117,"byteOffset":0},{"componentType":5126,"type":"SCALAR","count":6,"bufferView":118,"byteOffset":0,"min":[0.0],"max":[0.20833332836628]},{"componentType":5126,"type":"VEC3","count":6,"bufferView":119,"byteOffset":0},{"componentType":5126,"type":"SCALAR","count":5,"bufferView":120,"byteOffset":0,"min":[0.0],"max":[0.16666667163372]},{"componentType":5126,"type":"VEC3","count":5,"bufferView":121,"byteOffset":0},{"componentType":5126,"type":"VEC4","count":5,"bufferView":122,"byteOffset":0},{"componentType":5126,"type":"SCALAR","count":10,"bufferView":123,"byteOffset":0,"min":[0.0],"max":[0.375]},{"componentType":5126,"type":"VEC3","count":10,"bufferView":124,"byteOffset":0},{"componentType":5126,"type":"VEC4","count":10,"bufferView":125,"byteOffset":0},{"componentType":5126,"type":"SCALAR","count":2,"bufferView":126,"byteOffset":0,"min":[0.0],"max":[0.0416666679084301]},{"componentType":5126,"type":"VEC3","count":2,"bufferView":127,"byteOffset":0},{"componentType":5126,"type":"VEC4","count":2,"bufferView":128,"byteOffset":0},{"componentType":5126,"type":"SCALAR","count":6,"bufferView":129,"byteOffset":0,"min":[0.0],"max":[0.20833332836628]},{"componentType":5126,"type":"VEC3","count":6,"bufferView":130,"byteOffset":0},{"componentType":5126,"type":"VEC4","count":6,"bufferView":131,"byteOffset":0},{"componentType":5126,"type":"SCALAR","count":11,"bufferView":132,"byteOffset":0,"min":[0.0],"max":[0.416666656732559]},{"componentType":5126,"type":"VEC3","count":11,"bufferView":133,"byteOffset":0},{"componentType":5126,"type":"VEC4","count":11,"bufferView":134,"byteOffset":0},{"componentType":5126,"type":"SCALAR","count":6,"bufferView":135,"byteOffset":0,"min":[0.0],"max":[0.20833332836628]},{"componentType":5126,"type":"VEC3","count":6,"bufferView":136,"byteOffset":0},{"componentType":5126,"type":"VEC4","count":6,"bufferView":137,"byteOffset":0},{"componentType":5126,"type":"VEC3","count":6,"bufferView":138,"byteOffset":0},{"componentType":5126,"type":"SCALAR","count":6,"bufferView":139,"byteOffset":0,"min":[0.0],"max":[0.20833332836628]},{"componentType":5126,"type":"VEC3","count":6,"bufferView":140,"byteOffset":0},{"componentType":5126,"type":"VEC4","count":6,"bufferView":141,"byteOffset":0},{"componentType":5126,"type":"SCALAR","count":5,"bufferView":142,"byteOffset":0,"min":[0.0],"max":[0.16666667163372]},{"componentType":5126,"type":"VEC3","count":5,"bufferView":143,"byteOffset":0},{"componentType":5126,"type":"SCALAR","count":10,"bufferView":144,"byteOffset":0,"min":[0.0],"max":[0.375]},{"componentType":5126,"type":"VEC3","count":10,"bufferView":145,"byteOffset":0},{"componentType":5126,"type":"VEC4","count":10,"bufferView":146,"byteOffset":0},{"componentType":5126,"type":"SCALAR","count":2,"bufferView":147,"byteOffset":0,"min":[0.0],"max":[0.0416666679084301]},{"componentType":5126,"type":"VEC3","count":2,"bufferView":148,"byteOffset":0},{"componentType":5126,"type":"SCALAR","count":6,"bufferView":149,"byteOffset":0,"min":[0.0],"max":[0.20833332836628]},{"componentType":5126,"type":"VEC3","count":6,"bufferView":150,"byteOffset":0},{"componentType":5126,"type":"VEC4","count":6,"bufferView":151,"byteOffset":0},{"componentType":5126,"type":"SCALAR","count":11,"bufferView":152,"byteOffset":0,"min":[0.0],"max":[0.416666656732559]},{"componentType":5126,"type":"VEC3","count":11,"bufferView":153,"byteOffset":0},{"componentType":5126,"type":"VEC4","count":11,"bufferView":154,"byteOffset":0},{"componentType":5126,"type":"SCALAR","count":6,"bufferView":155,"byteOffset":0,"min":[0.0],"max":[0.20833332836628]},{"componentType":5126,"type":"VEC3","count":6,"bufferView":156,"byteOffset":0},{"componentType":5126,"type":"VEC3","count":6,"bufferView":157,"byteOffset":0},{"componentType":5126,"type":"SCALAR","count":6,"bufferView":158,"byteOffset":0,"min":[0.0],"max":[0.20833332836628]},{"componentType":5126,"type":"VEC3","count":6,"bufferView":159,"byteOffset":0},{"componentType":5126,"type":"SCALAR","count":5,"bufferView":160,"byteOffset":0,"min":[0.0],"max":[0.16666667163372]},{"componentType":5126,"type":"VEC3","count":5,"bufferView":161,"byteOffset":0},{"componentType":5126,"type":"VEC4","count":5,"bufferView":162,"byteOffset":0},{"componentType":5126,"type":"SCALAR","count":10,"bufferView":163,"byteOffset":0,"min":[0.0],"max":[0.375]},{"componentType":5126,"type":"VEC3","count":10,"bufferView":164,"byteOffset":0},{"componentType":5126,"type":"VEC4","count":10,"bufferView":165,"byteOffset":0},{"componentType":5126,"type":"SCALAR","count":2,"bufferView":166,"byteOffset":0,"min":[0.0],"max":[0.0416666679084301]},{"componentType":5126,"type":"VEC3","count":2,"bufferView":167,"byteOffset":0},{"componentType":5126,"type":"VEC4","count":2,"bufferView":168,"byteOffset":0},{"componentType":5126,"type":"SCALAR","count":6,"bufferView":169,"byteOffset":0,"min":[0.0],"max":[0.20833332836628]},{"componentType":5126,"type":"VEC3","count":6,"bufferView":170,"byteOffset":0},{"componentType":5126,"type":"VEC4","count":6,"bufferView":171,"byteOffset":0},{"componentType":5126,"type":"SCALAR","count":11,"bufferView":172,"byteOffset":0,"min":[0.0],"max":[0.416666656732559]},{"componentType":5126,"type":"VEC3","count":11,"bufferView":173,"byteOffset":0},{"componentType":5126,"type":"VEC4","count":11,"bufferView":174,"byteOffset":0},{"componentType":5126,"type":"SCALAR","count":6,"bufferView":175,"byteOffset":0,"min":[0.0],"max":[0.20833332836628]},{"componentType":5126,"type":"VEC3","count":6,"bufferView":176,"byteOffset":0},{"componentType":5126,"type":"VEC4","count":6,"bufferView":177,"byteOffset":0},{"componentType":5126,"type":"VEC3","count":6,"bufferView":178,"byteOffset":0},{"componentType":5126,"type":"SCALAR","count":6,"bufferView":179,"byteOffset":0,"min":[0.0],"max":[0.20833332836628]},{"componentType":5126,"type":"VEC3","count":6,"bufferView":180,"byteOffset":0},{"componentType":5126,"type":"VEC4","count":6,"bufferView":181,"byteOffset":0},{"componentType":5126,"type":"SCALAR","count":5,"bufferView":182,"byteOffset":0,"min":[0.0],"max":[0.16666667163372]},{"componentType":5126,"type":"VEC3","count":5,"bufferView":183,"byteOffset":0},{"componentType":5126,"type":"VEC4","count":5,"bufferView":184,"byteOffset":0},{"componentType":5126,"type":"VEC3","count":5,"bufferView":185,"byteOffset":0},{"componentType":5126,"type":"SCALAR","count":10,"bufferView":186,"byteOffset":0,"min":[0.0],"max":[0.375]},{"componentType":5126,"type":"VEC3","count":10,"bufferView":187,"byteOffset":0},{"componentType":5126,"type":"VEC4","count":10,"bufferView":188,"byteOffset":0},{"componentType":5126,"type":"VEC3","count":10,"bufferView":189,"byteOffset":0},{"componentType":5126,"type":"SCALAR","count":2,"bufferView":190,"byteOffset":0,"min":[0.0],"max":[0.0416666679084301]},{"componentType":5126,"type":"VEC3","count":2,"bufferView":191,"byteOffset":0},{"componentType":5126,"type":"VEC4","count":2,"bufferView":192,"byteOffset":0},{"componentType":5126,"type":"VEC3","count":2,"bufferView":193,"byteOffset":0},{"componentType":5126,"type":"SCALAR","count":6,"bufferView":194,"byteOffset":0,"min":[0.0],"max":[0.20833332836628]},{"componentType":5126,"type":"VEC3","count":6,"bufferView":195,"byteOffset":0},{"componentType":5126,"type":"VEC4","count":6,"bufferView":196,"byteOffset":0},{"componentType":5126,"type":"VEC3","count":6,"bufferView":197,"byteOffset":0},{"componentType":5126,"type":"SCALAR","count":11,"bufferView":198,"byteOffset":0,"min":[0.0],"max":[0.416666656732559]},{"componentType":5126,"type":"VEC3","count":11,"bufferView":199,"byteOffset":0},{"componentType":5126,"type":"VEC4","count":11,"bufferView":200,"byteOffset":0},{"componentType":5126,"type":"VEC3","count":11,"bufferView":201,"byteOffset":0},{"componentType":5126,"type":"SCALAR","count":6,"bufferView":202,"byteOffset":0,"min":[0.0],"max":[0.20833332836628]},{"componentType":5126,"type":"VEC3","count":6,"bufferView":203,"byteOffset":0},{"componentType":5126,"type":"VEC4","count":6,"bufferView":204,"byteOffset":0},{"componentType":5126,"type":"VEC3","count":6,"bufferView":205,"byteOffset":0},{"componentType":5126,"type":"SCALAR","count":6,"bufferView":206,"byteOffset":0,"min":[0.0],"max":[0.20833332836628]},{"componentType":5126,"type":"VEC3","count":6,"bufferView":207,"byteOffset":0},{"componentType":5126,"type":"VEC4","count":6,"bufferView":208,"byteOffset":0},{"componentType":5126,"type":"VEC3","count":6,"bufferView":209,"byteOffset":0},{"componentType":5126,"type":"SCALAR","count":5,"bufferView":210,"byteOffset":0,"min":[0.0],"max":[0.16666667163372]},{"componentType":5126,"type":"VEC3","count":5,"bufferView":211,"byteOffset":0},{"componentType":5126,"type":"VEC4","count":5,"bufferView":212,"byteOffset":0},{"componentType":5126,"type":"SCALAR","count":10,"bufferView":213,"byteOffset":0,"min":[0.0],"max":[0.375]},{"componentType":5126,"type":"VEC3","count":10,"bufferView":214,"byteOffset":0},{"componentType":5126,"type":"VEC4","count":10,"bufferView":215,"byteOffset":0},{"componentType":5126,"type":"SCALAR","count":2,"bufferView":216,"byteOffset":0,"min":[0.0],"max":[0.0416666679084301]},{"componentType":5126,"type":"VEC3","count":2,"bufferView":217,"byteOffset":0},{"componentType":5126,"type":"VEC4","count":2,"bufferView":218,"byteOffset":0},{"componentType":5126,"type":"SCALAR","count":6,"bufferView":219,"byteOffset":0,"min":[0.0],"max":[0.20833332836628]},{"componentType":5126,"type":"VEC3","count":6,"bufferView":220,"byteOffset":0},{"componentType":5126,"type":"VEC4","count":6,"bufferView":221,"byteOffset":0},{"componentType":5126,"type":"SCALAR","count":11,"bufferView":222,"byteOffset":0,"min":[0.0],"max":[0.416666656732559]},{"componentType":5126,"type":"VEC3","count":11,"bufferView":223,"byteOffset":0},{"componentType":5126,"type":"VEC4","count":11,"bufferView":224,"byteOffset":0},{"componentType":5126,"type":"SCALAR","count":6,"bufferView":225,"byteOffset":0,"min":[0.0],"max":[0.20833332836628]},{"componentType":5126,"type":"VEC3","count":6,"bufferView":226,"byteOffset":0},{"componentType":5126,"type":"VEC4","count":6,"bufferView":227,"byteOffset":0},{"componentType":5126,"type":"VEC3","count":6,"bufferView":228,"byteOffset":0},{"componentType":5126,"type":"SCALAR","count":6,"bufferView":229,"byteOffset":0,"min":[0.0],"max":[0.20833332836628]},{"componentType":5126,"type":"VEC3","count":6,"bufferView":230,"byteOffset":0},{"componentType":5126,"type":"VEC4","count":6,"bufferView":231,"byteOffset":0},{"componentType":5126,"type":"SCALAR","count":5,"bufferView":232,"byteOffset":0,"min":[0.0],"max":[0.16666667163372]},{"componentType":5126,"type":"VEC3","count":5,"bufferView":233,"byteOffset":0},{"componentType":5126,"type":"VEC4","count":5,"bufferView":234,"byteOffset":0},{"componentType":5126,"type":"SCALAR","count":10,"bufferView":235,"byteOffset":0,"min":[0.0],"max":[0.375]},{"componentType":5126,"type":"VEC3","count":10,"bufferView":236,"byteOffset":0},{"componentType":5126,"type":"VEC4","count":10,"bufferView":237,"byteOffset":0},{"componentType":5126,"type":"SCALAR","count":2,"bufferView":238,"byteOffset":0,"min":[0.0],"max":[0.0416666679084301]},{"componentType":5126,"type":"VEC3","count":2,"bufferView":239,"byteOffset":0},{"componentType":5126,"type":"VEC4","count":2,"bufferView":240,"byteOffset":0},{"componentType":5126,"type":"SCALAR","count":6,"bufferView":241,"byteOffset":0,"min":[0.0],"max":[0.20833332836628]},{"componentType":5126,"type":"VEC3","count":6,"bufferView":242,"byteOffset":0},{"componentType":5126,"type":"VEC4","count":6,"bufferView":243,"byteOffset":0},{"componentType":5126,"type":"SCALAR","count":11,"bufferView":244,"byteOffset":0,"min":[0.0],"max":[0.416666656732559]},{"componentType":5126,"type":"VEC3","count":11,"bufferView":245,"byteOffset":0},{"componentType":5126,"type":"VEC4","count":11,"bufferView":246,"byteOffset":0},{"componentType":5126,"type":"SCALAR","count":6,"bufferView":247,"byteOffset":0,"min":[0.0],"max":[0.20833332836628]},{"componentType":5126,"type":"VEC3","count":6,"bufferView":248,"byteOffset":0},{"componentType":5126,"type":"VEC4","count":6,"bufferView":249,"byteOffset":0},{"componentType":5126,"type":"VEC3","count":6,"bufferView":250,"byteOffset":0},{"componentType":5126,"type":"SCALAR","count":6,"bufferView":251,"byteOffset":0,"min":[0.0],"max":[0.20833332836628]},{"componentType":5126,"type":"VEC3","count":6,"bufferView":252,"byteOffset":0},{"componentType":5126,"type":"VEC4","count":6,"bufferView":253,"byteOffset":0},{"componentType":5126,"type":"SCALAR","count":5,"bufferView":254,"byteOffset":0,"min":[0.0],"max":[0.16666667163372]},{"componentType":5126,"type":"VEC3","count":5,"bufferView":255,"byteOffset":0},{"componentType":5126,"type":"SCALAR","count":10,"bufferView":256,"byteOffset":0,"min":[0.0],"max":[0.375]},{"componentType":5126,"type":"VEC3","count":10,"bufferView":257,"byteOffset":0},{"componentType":5126,"type":"VEC4","count":10,"bufferView":258,"byteOffset":0},{"componentType":5126,"type":"SCALAR","count":2,"bufferView":259,"byteOffset":0,"min":[0.0],"max":[0.0416666679084301]},{"componentType":5126,"type":"VEC3","count":2,"bufferView":260,"byteOffset":0},{"componentType":5126,"type":"SCALAR","count":6,"bufferView":261,"byteOffset":0,"min":[0.0],"max":[0.20833332836628]},{"componentType":5126,"type":"VEC3","count":6,"bufferView":262,"byteOffset":0},{"componentType":5126,"type":"VEC4","count":6,"bufferView":263,"byteOffset":0},{"componentType":5126,"type":"SCALAR","count":11,"bufferView":264,"byteOffset":0,"min":[0.0],"max":[0.416666656732559]},{"componentType":5126,"type":"VEC3","count":11,"bufferView":265,"byteOffset":0},{"componentType":5126,"type":"VEC4","count":11,"bufferView":266,"byteOffset":0},{"componentType":5126,"type":"SCALAR","count":6,"bufferView":267,"byteOffset":0,"min":[0.0],"max":[0.20833332836628]},{"componentType":5126,"type":"VEC3","count":6,"bufferView":268,"byteOffset":0},{"componentType":5126,"type":"VEC3","count":6,"bufferView":269,"byteOffset":0},{"componentType":5126,"type":"SCALAR","count":6,"bufferView":270,"byteOffset":0,"min":[0.0],"max":[0.20833332836628]},{"componentType":5126,"type":"VEC3","count":6,"bufferView":271,"byteOffset":0},{"componentType":5126,"type":"SCALAR","count":5,"bufferView":272,"byteOffset":0,"min":[0.0],"max":[0.16666667163372]},{"componentType":5126,"type":"VEC3","count":5,"bufferView":273,"byteOffset":0},{"componentType":5126,"type":"VEC4","count":5,"bufferView":274,"byteOffset":0},{"componentType":5126,"type":"SCALAR","count":10,"bufferView":275,"byteOffset":0,"min":[0.0],"max":[0.375]},{"componentType":5126,"type":"VEC3","count":10,"bufferView":276,"byteOffset":0},{"componentType":5126,"type":"VEC4","count":10,"bufferView":277,"byteOffset":0},{"componentType":5126,"type":"SCALAR","count":2,"bufferView":278,"byteOffset":0,"min":[0.0],"max":[0.0416666679084301]},{"componentType":5126,"type":"VEC3","count":2,"bufferView":279,"byteOffset":0},{"componentType":5126,"type":"VEC4","count":2,"bufferView":280,"byteOffset":0},{"componentType":5126,"type":"SCALAR","count":6,"bufferView":281,"byteOffset":0,"min":[0.0],"max":[0.20833332836628]},{"componentType":5126,"type":"VEC3","count":6,"bufferView":282,"byteOffset":0},{"componentType":5126,"type":"VEC4","count":6,"bufferView":283,"byteOffset":0},{"componentType":5126,"type":"SCALAR","count":11,"bufferView":284,"byteOffset":0,"min":[0.0],"max":[0.416666656732559]},{"componentType":5126,"type":"VEC3","count":11,"bufferView":285,"byteOffset":0},{"componentType":5126,"type":"VEC4","count":11,"bufferView":286,"byteOffset":0},{"componentType":5126,"type":"SCALAR","count":6,"bufferView":287,"byteOffset":0,"min":[0.0],"max":[0.20833332836628]},{"componentType":5126,"type":"VEC3","count":6,"bufferView":288,"byteOffset":0},{"componentType":5126,"type":"VEC4","count":6,"bufferView":289,"byteOffset":0},{"componentType":5126,"type":"VEC3","count":6,"bufferView":290,"byteOffset":0},{"componentType":5126,"type":"SCALAR","count":6,"bufferView":291,"byteOffset":0,"min":[0.0],"max":[0.20833332836628]},{"componentType":5126,"type":"VEC3","count":6,"bufferView":292,"byteOffset":0},{"componentType":5126,"type":"VEC4","count":6,"bufferView":293,"byteOffset":0},{"componentType":5126,"type":"SCALAR","count":5,"bufferView":294,"byteOffset":0,"min":[0.0],"max":[0.16666667163372]},{"componentType":5126,"type":"VEC3","count":5,"bufferView":295,"byteOffset":0},{"componentType":5126,"type":"VEC4","count":5,"bufferView":296,"byteOffset":0},{"componentType":5126,"type":"SCALAR","count":10,"bufferView":297,"byteOffset":0,"min":[0.0],"max":[0.375]},{"componentType":5126,"type":"VEC3","count":10,"bufferView":298,"byteOffset":0},{"componentType":5126,"type":"VEC4","count":10,"bufferView":299,"byteOffset":0},{"componentType":5126,"type":"SCALAR","count":2,"bufferView":300,"byteOffset":0,"min":[0.0],"max":[0.0416666679084301]},{"componentType":5126,"type":"VEC3","count":2,"bufferView":301,"byteOffset":0},{"componentType":5126,"type":"VEC4","count":2,"bufferView":302,"byteOffset":0},{"componentType":5126,"type":"SCALAR","count":6,"bufferView":303,"byteOffset":0,"min":[0.0],"max":[0.20833332836628]},{"componentType":5126,"type":"VEC3","count":6,"bufferView":304,"byteOffset":0},{"componentType":5126,"type":"VEC4","count":6,"bufferView":305,"byteOffset":0},{"componentType":5126,"type":"SCALAR","count":11,"bufferView":306,"byteOffset":0,"min":[0.0],"max":[0.416666656732559]},{"componentType":5126,"type":"VEC3","count":11,"bufferView":307,"byteOffset":0},{"componentType":5126,"type":"VEC4","count":11,"bufferView":308,"byteOffset":0},{"componentType":5126,"type":"SCALAR","count":6,"bufferView":309,"byteOffset":0,"min":[0.0],"max":[0.20833332836628]},{"componentType":5126,"type":"VEC3","count":6,"bufferView":310,"byteOffset":0},{"componentType":5126,"type":"VEC4","count":6,"bufferView":311,"byteOffset":0},{"componentType":5126,"type":"VEC3","count":6,"bufferView":312,"byteOffset":0},{"componentType":5126,"type":"SCALAR","count":6,"bufferView":313,"byteOffset":0,"min":[0.0],"max":[0.20833332836628]},{"componentType":5126,"type":"VEC3","count":6,"bufferView":314,"byteOffset":0},{"componentType":5126,"type":"VEC4","count":6,"bufferView":315,"byteOffset":0},{"componentType":5126,"type":"SCALAR","count":5,"bufferView":316,"byteOffset":0,"min":[0.0],"max":[0.16666667163372]},{"componentType":5126,"type":"VEC3","count":5,"bufferView":317,"byteOffset":0},{"componentType":5126,"type":"VEC4","count":5,"bufferView":318,"byteOffset":0},{"componentType":5126,"type":"VEC3","count":5,"bufferView":319,"byteOffset":0},{"componentType":5126,"type":"SCALAR","count":10,"bufferView":320,"byteOffset":0,"min":[0.0],"max":[0.375]},{"componentType":5126,"type":"VEC3","count":10,"bufferView":321,"byteOffset":0},{"componentType":5126,"type":"VEC4","count":10,"bufferView":322,"byteOffset":0},{"componentType":5126,"type":"VEC3","count":10,"bufferView":323,"byteOffset":0},{"componentType":5126,"type":"SCALAR","count":2,"bufferView":324,"byteOffset":0,"min":[0.0],"max":[0.0416666679084301]},{"componentType":5126,"type":"VEC3","count":2,"bufferView":325,"byteOffset":0},{"componentType":5126,"type":"VEC4","count":2,"bufferView":326,"byteOffset":0},{"componentType":5126,"type":"VEC3","count":2,"bufferView":327,"byteOffset":0},{"componentType":5126,"type":"SCALAR","count":6,"bufferView":328,"byteOffset":0,"min":[0.0],"max":[0.20833332836628]},{"componentType":5126,"type":"VEC3","count":6,"bufferView":329,"byteOffset":0},{"componentType":5126,"type":"VEC4","count":6,"bufferView":330,"byteOffset":0},{"componentType":5126,"type":"VEC3","count":6,"bufferView":331,"byteOffset":0},{"componentType":5126,"type":"SCALAR","count":11,"bufferView":332,"byteOffset":0,"min":[0.0],"max":[0.416666656732559]},{"componentType":5126,"type":"VEC3","count":11,"bufferView":333,"byteOffset":0},{"componentType":5126,"type":"VEC4","count":11,"bufferView":334,"byteOffset":0},{"componentType":5126,"type":"VEC3","count":11,"bufferView":335,"byteOffset":0},{"componentType":5126,"type":"SCALAR","count":6,"bufferView":336,"byteOffset":0,"min":[0.0],"max":[0.20833332836628]},{"componentType":5126,"type":"VEC3","count":6,"bufferView":337,"byteOffset":0},{"componentType":5126,"type":"VEC4","count":6,"bufferView":338,"byteOffset":0},{"componentType":5126,"type":"VEC3","count":6,"bufferView":339,"byteOffset":0},{"componentType":5126,"type":"SCALAR","count":6,"bufferView":340,"byteOffset":0,"min":[0.0],"max":[0.20833332836628]},{"componentType":5126,"type":"VEC3","count":6,"bufferView":341,"byteOffset":0},{"componentType":5126,"type":"VEC4","count":6,"bufferView":342,"byteOffset":0},{"componentType":5126,"type":"VEC3","count":6,"bufferView":343,"byteOffset":0},{"componentType":5126,"type":"SCALAR","count":5,"bufferView":344,"byteOffset":0,"min":[0.0],"max":[0.16666667163372]},{"componentType":5126,"type":"VEC3","count":5,"bufferView":345,"byteOffset":0},{"componentType":5126,"type":"SCALAR","count":10,"bufferView":346,"byteOffset":0,"min":[0.0],"max":[0.375]},{"componentType":5126,"type":"VEC3","count":10,"bufferView":347,"byteOffset":0},{"componentType":5126,"type":"VEC4","count":10,"bufferView":348,"byteOffset":0},{"componentType":5126,"type":"SCALAR","count":2,"bufferView":349,"byteOffset":0,"min":[0.0],"max":[0.0416666679084301]},{"componentType":5126,"type":"VEC3","count":2,"bufferView":350,"byteOffset":0},{"componentType":5126,"type":"SCALAR","count":6,"bufferView":351,"byteOffset":0,"min":[0.0],"max":[0.20833332836628]},{"componentType":5126,"type":"VEC3","count":6,"bufferView":352,"byteOffset":0},{"componentType":5126,"type":"VEC4","count":6,"bufferView":353,"byteOffset":0},{"componentType":5126,"type":"SCALAR","count":11,"bufferView":354,"byteOffset":0,"min":[0.0],"max":[0.416666656732559]},{"componentType":5126,"type":"VEC3","count":11,"bufferView":355,"byteOffset":0},{"componentType":5126,"type":"VEC4","count":11,"bufferView":356,"byteOffset":0},{"componentType":5126,"type":"SCALAR","count":6,"bufferView":357,"byteOffset":0,"min":[0.0],"max":[0.20833332836628]},{"componentType":5126,"type":"VEC3","count":6,"bufferView":358,"byteOffset":0},{"componentType":5126,"type":"VEC3","count":6,"bufferView":359,"byteOffset":0},{"componentType":5126,"type":"SCALAR","count":6,"bufferView":360,"byteOffset":0,"min":[0.0],"max":[0.20833332836628]},{"componentType":5126,"type":"VEC3","count":6,"bufferView":361,"byteOffset":0},{"componentType":5126,"type":"SCALAR","count":5,"bufferView":362,"byteOffset":0,"min":[0.0],"max":[0.16666667163372]},{"componentType":5126,"type":"VEC3","count":5,"bufferView":363,"byteOffset":0},{"componentType":5126,"type":"SCALAR","count":10,"bufferView":364,"byteOffset":0,"min":[0.0],"max":[0.375]},{"componentType":5126,"type":"VEC3","count":10,"bufferView":365,"byteOffset":0},{"componentType":5126,"type":"VEC4","count":10,"bufferView":366,"byteOffset":0},{"componentType":5126,"type":"SCALAR","count":2,"bufferView":367,"byteOffset":0,"min":[0.0],"max":[0.0416666679084301]},{"componentType":5126,"type":"VEC3","count":2,"bufferView":368,"byteOffset":0},{"componentType":5126,"type":"SCALAR","count":6,"bufferView":369,"byteOffset":0,"min":[0.0],"max":[0.20833332836628]},{"componentType":5126,"type":"VEC3","count":6,"bufferView":370,"byteOffset":0},{"componentType":5126,"type":"VEC4","count":6,"bufferView":371,"byteOffset":0},{"componentType":5126,"type":"SCALAR","count":11,"bufferView":372,"byteOffset":0,"min":[0.0],"max":[0.416666656732559]},{"componentType":5126,"type":"VEC3","count":11,"bufferView":373,"byteOffset":0},{"componentType":5126,"type":"VEC4","count":11,"bufferView":374,"byteOffset":0},{"componentType":5126,"type":"VEC3","count":11,"bufferView":375,"byteOffset":0},{"componentType":5126,"type":"SCALAR","count":6,"bufferView":376,"byteOffset":0,"min":[0.0],"max":[0.20833332836628]},{"componentType":5126,"type":"VEC3","count":6,"bufferView":377,"byteOffset":0},{"componentType":5126,"type":"VEC3","count":6,"bufferView":378,"byteOffset":0},{"componentType":5126,"type":"SCALAR","count":6,"bufferView":379,"byteOffset":0,"min":[0.0],"max":[0.20833332836628]},{"componentType":5126,"type":"VEC3","count":6,"bufferView":380,"byteOffset":0},{"componentType":5126,"type":"SCALAR","count":5,"bufferView":381,"byteOffset":0,"min":[0.0],"max":[0.16666667163372]},{"componentType":5126,"type":"VEC3","count":5,"bufferView":382,"byteOffset":0},{"componentType":5126,"type":"VEC4","count":5,"bufferView":383,"byteOffset":0},{"componentType":5126,"type":"SCALAR","count":10,"bufferView":384,"byteOffset":0,"min":[0.0],"max":[0.375]},{"componentType":5126,"type":"VEC3","count":10,"bufferView":385,"byteOffset":0},{"componentType":5126,"type":"VEC4","count":10,"bufferView":386,"byteOffset":0},{"componentType":5126,"type":"SCALAR","count":2,"bufferView":387,"byteOffset":0,"min":[0.0],"max":[0.0416666679084301]},{"componentType":5126,"type":"VEC3","count":2,"bufferView":388,"byteOffset":0},{"componentType":5126,"type":"VEC4","count":2,"bufferView":389,"byteOffset":0},{"componentType":5126,"type":"SCALAR","count":6,"bufferView":390,"byteOffset":0,"min":[0.0],"max":[0.20833332836628]},{"componentType":5126,"type":"VEC3","count":6,"bufferView":391,"byteOffset":0},{"componentType":5126,"type":"VEC4","count":6,"bufferView":392,"byteOffset":0},{"componentType":5126,"type":"SCALAR","count":11,"bufferView":393,"byteOffset":0,"min":[0.0],"max":[0.416666656732559]},{"componentType":5126,"type":"VEC3","count":11,"bufferView":394,"byteOffset":0},{"componentType":5126,"type":"VEC4","count":11,"bufferView":395,"byteOffset":0},{"componentType":5126,"type":"VEC3","count":11,"bufferView":396,"byteOffset":0},{"componentType":5126,"type":"SCALAR","count":6,"bufferView":397,"byteOffset":0,"min":[0.0],"max":[0.20833332836628]},{"componentType":5126,"type":"VEC3","count":6,"bufferView":398,"byteOffset":0},{"componentType":5126,"type":"VEC4","count":6,"bufferView":399,"byteOffset":0},{"componentType":5126,"type":"VEC3","count":6,"bufferView":400,"byteOffset":0},{"componentType":5126,"type":"SCALAR","count":6,"bufferView":401,"byteOffset":0,"min":[0.0],"max":[0.20833332836628]},{"componentType":5126,"type":"VEC3","count":6,"bufferView":402,"byteOffset":0},{"componentType":5126,"type":"VEC4","count":6,"bufferView":403,"byteOffset":0},{"componentType":5126,"type":"SCALAR","count":5,"bufferView":404,"byteOffset":0,"min":[0.0],"max":[0.16666667163372]},{"componentType":5126,"type":"VEC3","count":5,"bufferView":405,"byteOffset":0},{"componentType":5126,"type":"SCALAR","count":10,"bufferView":406,"byteOffset":0,"min":[0.0],"max":[0.375]},{"componentType":5126,"type":"VEC3","count":10,"bufferView":407,"byteOffset":0},{"componentType":5126,"type":"VEC4","count":10,"bufferView":408,"byteOffset":0},{"componentType":5126,"type":"SCALAR","count":2,"bufferView":409,"byteOffset":0,"min":[0.0],"max":[0.0416666679084301]},{"componentType":5126,"type":"VEC3","count":2,"bufferView":410,"byteOffset":0},{"componentType":5126,"type":"SCALAR","count":6,"bufferView":411,"byteOffset":0,"min":[0.0],"max":[0.20833332836628]},{"componentType":5126,"type":"VEC3","count":6,"bufferView":412,"byteOffset":0},{"componentType":5126,"type":"VEC4","count":6,"bufferView":413,"byteOffset":0},{"componentType":5126,"type":"SCALAR","count":11,"bufferView":414,"byteOffset":0,"min":[0.0],"max":[0.416666656732559]},{"componentType":5126,"type":"VEC3","count":11,"bufferView":415,"byteOffset":0},{"componentType":5126,"type":"VEC4","count":11,"bufferView":416,"byteOffset":0},{"componentType":5126,"type":"SCALAR","count":6,"bufferView":417,"byteOffset":0,"min":[0.0],"max":[0.20833332836628]},{"componentType":5126,"type":"VEC3","count":6,"bufferView":418,"byteOffset":0},{"componentType":5126,"type":"VEC3","count":6,"bufferView":419,"byteOffset":0},{"componentType":5126,"type":"SCALAR","count":6,"bufferView":420,"byteOffset":0,"min":[0.0],"max":[0.20833332836628]},{"componentType":5126,"type":"VEC3","count":6,"bufferView":421,"byteOffset":0},{"componentType":5126,"type":"SCALAR","count":5,"bufferView":422,"byteOffset":0,"min":[0.0],"max":[0.16666667163372]},{"componentType":5126,"type":"VEC3","count":5,"bufferView":423,"byteOffset":0},{"componentType":5126,"type":"VEC4","count":5,"bufferView":424,"byteOffset":0},{"componentType":5126,"type":"SCALAR","count":10,"bufferView":425,"byteOffset":0,"min":[0.0],"max":[0.375]},{"componentType":5126,"type":"VEC3","count":10,"bufferView":426,"byteOffset":0},{"componentType":5126,"type":"VEC4","count":10,"bufferView":427,"byteOffset":0},{"componentType":5126,"type":"SCALAR","count":2,"bufferView":428,"byteOffset":0,"min":[0.0],"max":[0.0416666679084301]},{"componentType":5126,"type":"VEC3","count":2,"bufferView":429,"byteOffset":0},{"componentType":5126,"type":"VEC4","count":2,"bufferView":430,"byteOffset":0},{"componentType":5126,"type":"SCALAR","count":6,"bufferView":431,"byteOffset":0,"min":[0.0],"max":[0.20833332836628]},{"componentType":5126,"type":"VEC3","count":6,"bufferView":432,"byteOffset":0},{"componentType":5126,"type":"VEC4","count":6,"bufferView":433,"byteOffset":0},{"componentType":5126,"type":"SCALAR","count":11,"bufferView":434,"byteOffset":0,"min":[0.0],"max":[0.416666656732559]},{"componentType":5126,"type":"VEC3","count":11,"bufferView":435,"byteOffset":0},{"componentType":5126,"type":"VEC4","count":11,"bufferView":436,"byteOffset":0},{"componentType":5126,"type":"VEC3","count":11,"bufferView":437,"byteOffset":0},{"componentType":5126,"type":"SCALAR","count":6,"bufferView":438,"byteOffset":0,"min":[0.0],"max":[0.20833332836628]},{"componentType":5126,"type":"VEC3","count":6,"bufferView":439,"byteOffset":0},{"componentType":5126,"type":"VEC4","count":6,"bufferView":440,"byteOffset":0},{"componentType":5126,"type":"VEC3","count":6,"bufferView":441,"byteOffset":0},{"componentType":5126,"type":"SCALAR","count":6,"bufferView":442,"byteOffset":0,"min":[0.0],"max":[0.20833332836628]},{"componentType":5126,"type":"VEC3","count":6,"bufferView":443,"byteOffset":0},{"componentType":5126,"type":"VEC4","count":6,"bufferView":444,"byteOffset":0},{"componentType":5126,"type":"SCALAR","count":5,"bufferView":445,"byteOffset":0,"min":[0.0],"max":[0.16666667163372]},{"componentType":5126,"type":"VEC3","count":5,"bufferView":446,"byteOffset":0},{"componentType":5126,"type":"VEC4","count":5,"bufferView":447,"byteOffset":0},{"componentType":5126,"type":"VEC3","count":5,"bufferView":448,"byteOffset":0},{"componentType":5126,"type":"SCALAR","count":10,"bufferView":449,"byteOffset":0,"min":[0.0],"max":[0.375]},{"componentType":5126,"type":"VEC3","count":10,"bufferView":450,"byteOffset":0},{"componentType":5126,"type":"VEC4","count":10,"bufferView":451,"byteOffset":0},{"componentType":5126,"type":"VEC3","count":10,"bufferView":452,"byteOffset":0},{"componentType":5126,"type":"SCALAR","count":2,"bufferView":453,"byteOffset":0,"min":[0.0],"max":[0.0416666679084301]},{"componentType":5126,"type":"VEC3","count":2,"bufferView":454,"byteOffset":0},{"componentType":5126,"type":"VEC4","count":2,"bufferView":455,"byteOffset":0},{"componentType":5126,"type":"VEC3","count":2,"bufferView":456,"byteOffset":0},{"componentType":5126,"type":"SCALAR","count":6,"bufferView":457,"byteOffset":0,"min":[0.0],"max":[0.20833332836628]},{"componentType":5126,"type":"VEC3","count":6,"bufferView":458,"byteOffset":0},{"componentType":5126,"type":"VEC4","count":6,"bufferView":459,"byteOffset":0},{"componentType":5126,"type":"VEC3","count":6,"bufferView":460,"byteOffset":0},{"componentType":5126,"type":"SCALAR","count":11,"bufferView":461,"byteOffset":0,"min":[0.0],"max":[0.416666656732559]},{"componentType":5126,"type":"VEC3","count":11,"bufferView":462,"byteOffset":0},{"componentType":5126,"type":"VEC4","count":11,"bufferView":463,"byteOffset":0},{"componentType":5126,"type":"VEC3","count":11,"bufferView":464,"byteOffset":0},{"componentType":5126,"type":"SCALAR","count":6,"bufferView":465,"byteOffset":0,"min":[0.0],"max":[0.20833332836628]},{"componentType":5126,"type":"VEC3","count":6,"bufferView":466,"byteOffset":0},{"componentType":5126,"type":"VEC4","count":6,"bufferView":467,"byteOffset":0},{"componentType":5126,"type":"VEC3","count":6,"bufferView":468,"byteOffset":0},{"componentType":5126,"type":"SCALAR","count":6,"bufferView":469,"byteOffset":0,"min":[0.0],"max":[0.20833332836628]},{"componentType":5126,"type":"VEC3","count":6,"bufferView":470,"byteOffset":0},{"componentType":5126,"type":"VEC4","count":6,"bufferView":471,"byteOffset":0},{"componentType":5126,"type":"VEC3","count":6,"bufferView":472,"byteOffset":0},{"componentType":5123,"type":"SCALAR","count":456,"bufferView":473,"byteOffset":0},{"componentType":5126,"type":"VEC3","count":134,"bufferView":474,"byteOffset":0,"min":[-0.00131606857758015,-0.000148729552165605,-0.00201168772764504],"max":[0.000135851281811483,0.000161686242790893,7.55451619625092e-05]},{"componentType":5126,"type":"VEC3","count":134,"bufferView":475,"byteOffset":0},{"componentType":5126,"type":"VEC2","count":134,"bufferView":476,"byteOffset":0},{"componentType":5123,"type":"SCALAR","count":59154,"bufferView":477,"byteOffset":0},{"componentType":5126,"type":"VEC3","count":11876,"bufferView":478,"byteOffset":0,"min":[-0.00976024474948645,-0.00123902026098222,-0.00523885758593678],"max":[0.00874184630811214,0.00126108271069825,0.00566750112921]},{"componentType":5126,"type":"VEC3","count":11876,"bufferView":479,"byteOffset":0},{"componentType":5126,"type":"VEC2","count":11876,"bufferView":480,"byteOffset":0},{"componentType":5123,"type":"SCALAR","count":22434,"bufferView":481,"byteOffset":0},{"componentType":5126,"type":"VEC3","count":4984,"bufferView":482,"byteOffset":0,"min":[-0.00759495794773102,-0.00101531017571688,0.00279060681350529],"max":[0.00856643076986074,0.00101531017571688,0.00645251246169209]},{"componentType":5126,"type":"VEC3","count":4984,"bufferView":483,"byteOffset":0},{"componentType":5126,"type":"VEC2","count":4984,"bufferView":484,"byteOffset":0}],"materials":[{"name":"Material.002","alphaMode":"OPAQUE","extras":{"fromFBX":{"shadingModel":"Phong","isTruePBR":false}},"pbrMetallicRoughness":{"baseColorFactor":[0.0800113305449486,0.0800113305449486,0.0800113305449486,1.0],"metallicFactor":0.400000005960464,"roughnessFactor":0.23808166384697}},{"name":"Material.003","alphaMode":"OPAQUE","extras":{"fromFBX":{"shadingModel":"Phong","isTruePBR":false}},"pbrMetallicRoughness":{"baseColorFactor":[0.0331026427447796,0.0331026427447796,0.0331026427447796,1.0],"metallicFactor":0.400000005960464,"roughnessFactor":0.141231924295425}},{"name":"handgun","alphaMode":"OPAQUE","extras":{"fromFBX":{"shadingModel":"Phong","isTruePBR":false}},"pbrMetallicRoughness":{"baseColorFactor":[1.0,1.0,1.0,0.0],"metallicFactor":0.400000005960464,"roughnessFactor":0.415087103843689}}],"meshes":[{"name":"Gun_trigger","primitives":[{"material":2,"mode":4,"attributes":{"NORMAL":475,"POSITION":474,"TEXCOORD_0":476},"indices":473}]},{"name":"Gun","primitives":[{"material":0,"mode":4,"attributes":{"NORMAL":479,"POSITION":478,"TEXCOORD_0":480},"indices":477}]},{"name":"Cube.005","primitives":[{"material":1,"mode":4,"attributes":{"NORMAL":483,"POSITION":482,"TEXCOORD_0":484},"indices":481}]}],"cameras":[{"name":"","type":"perspective","perspective":{"znear":10.0,"zfar":10000.0,"aspectRatio":1.5,"yfov":0.471089959144592}}],"nodes":[{"name":"RootNode","translation":[0.0,0.0,0.0],"rotation":[0.0,0.0,0.0,1.0],"scale":[1.0,1.0,1.0],"children":[1,2,3,4,5,6,7,8]},{"name":"Light","translation":[4.07624530792236,5.90386199951172,-1.00545394420624],"rotation":[0.169075712561607,0.755880355834961,-0.272171318531036,0.570947468280792],"scale":[100.000007629395,100.0,100.0],"extensions":{"KHR_lights_punctual":{"light":0}}},{"name":"Camera","translation":[7.35889148712158,4.95830917358398,6.92579078674316],"rotation":[-0.209972977638245,0.38578000664711,0.0906283855438232,0.893796145915985],"scale":[100.0,100.000007629395,99.9999923706055],"camera":0},{"name":"Hemi.001","translation":[0.0,0.0,0.0],"rotation":[-3.77489506320217e-08,-0.0,0.0,1.0],"scale":[100.0,100.0,100.0]},{"name":"Hemi","translation":[0.0,0.0,0.0],"rotation":[-3.77489506320217e-08,-0.0,0.0,1.0],"scale":[100.0,100.0,100.0]},{"name":"Point.001","translation":[-2.89297413825989,2.83347320556641,-2.50804090499878],"rotation":[-3.77489506320217e-08,-0.0,0.0,1.0],"scale":[100.0,100.0,100.0],"extensions":{"KHR_lights_punctual":{"light":1}}},{"name":"Point","translation":[5.6264476776123,2.94142389297485,-4.59349203109741],"rotation":[-3.77489506320217e-08,-0.0,0.0,1.0],"scale":[100.0,100.0,100.0],"extensions":{"KHR_lights_punctual":{"light":1}}},{"name":"bullet_light","translation":[0.0,0.0,0.0],"rotation":[-3.77489506320217e-08,-0.0,0.0,1.0],"scale":[100.0,100.0,100.0]},{"name":"Gun","translation":[0.00903535820543766,0.0,0.0],"rotation":[-0.707106828689575,0.0,0.0,0.707106709480286],"scale":[100.0,100.0,100.0],"children":[9,10,11,12],"mesh":1},{"name":"muni_rot","translation":[-9.03535765246488e-05,0.0,0.0],"rotation":[8.14603353660459e-08,0.0,0.0,1.0],"scale":[1.0,1.0,1.0]},{"name":"bullet shooter","translation":[-9.03535765246488e-05,0.0,0.0],"rotation":[8.14603353660459e-08,0.0,0.0,1.0],"scale":[1.0,1.0,1.0]},{"name":"Cube.005","translation":[9.03535765246488e-05,0.0,0.0],"rotation":[-1.32348898008484e-23,-0.0,0.0,1.0],"scale":[1.0,1.0,1.0],"mesh":2},{"name":"Gun_trigger","translation":[9.03535765246488e-05,3.36256161803661e-11,0.00241000368259847],"rotation":[-1.35049358213673e-23,0.11513814330101,1.56534349815536e-24,0.993349492549896],"scale":[1.0,1.0,1.0],"mesh":0}],"extensions":{"KHR_lights_punctual":{"lights":[{"name":"","color":[0.800000011920929,0.800000011920929,0.800000011920929],"intensity":1000.0,"type":"point"},{"name":"","color":[0.800000011920929,0.800000011920929,0.800000011920929],"intensity":1.0,"type":"point"}]}}}