{"asset":{"generator":"FBX2glTF v0.9.7","version":"2.0"},"scene":0,"buffers":[{"byteLength":555320,"uri":"gun-ak-buffer.bin"}],"bufferViews":[{"buffer":0,"byteLength":52,"byteOffset":0},{"buffer":0,"byteLength":208,"byteOffset":52},{"buffer":0,"byteLength":156,"byteOffset":260},{"buffer":0,"byteLength":208,"byteOffset":416},{"buffer":0,"byteLength":38784,"byteOffset":624,"target":34963},{"buffer":0,"byteLength":85932,"byteOffset":39408,"target":34962},{"buffer":0,"byteLength":85932,"byteOffset":125340,"target":34962},{"buffer":0,"byteLength":114576,"byteOffset":211272,"target":34962},{"buffer":0,"byteLength":57288,"byteOffset":325848,"target":34962},{"buffer":0,"byteLength":57288,"byteOffset":383136,"target":34962},{"buffer":0,"byteLength":114576,"byteOffset":440424,"target":34962},{"buffer":0,"byteLength":320,"byteOffset":555000}],"scenes":[{"name":"Root Scene","nodes":[0]}],"accessors":[{"componentType":5126,"type":"SCALAR","count":13,"bufferView":0,"byteOffset":0,"min":[0.0],"max":[0.5]},{"componentType":5126,"type":"VEC4","count":13,"bufferView":1,"byteOffset":0},{"componentType":5126,"type":"VEC3","count":13,"bufferView":2,"byteOffset":0},{"componentType":5126,"type":"VEC4","count":13,"bufferView":3,"byteOffset":0},{"componentType":5123,"type":"SCALAR","count":19392,"bufferView":4,"byteOffset":0},{"componentType":5126,"type":"VEC3","count":7161,"bufferView":5,"byteOffset":0,"min":[-0.00473281182348728,-0.0666787475347519,-0.00244503491558135],"max":[0.00230732187628746,0.0310800354927778,0.0214885547757149]},{"componentType":5126,"type":"VEC3","count":7161,"bufferView":6,"byteOffset":0},{"componentType":5126,"type":"VEC4","count":7161,"bufferView":7,"byteOffset":0},{"componentType":5126,"type":"VEC2","count":7161,"bufferView":8,"byteOffset":0},{"componentType":5123,"type":"VEC4","count":7161,"bufferView":9,"byteOffset":0},{"componentType":5126,"type":"VEC4","count":7161,"bufferView":10,"byteOffset":0},{"componentType":5126,"type":"MAT4","count":5,"bufferView":11,"byteOffset":0}],"materials":[{"name":"ak","alphaMode":"OPAQUE","extras":{"fromFBX":{"shadingModel":"Phong","isTruePBR":false}},"pbrMetallicRoughness":{"baseColorFactor":[1.0,1.0,1.0,1.0],"metallicFactor":0.400000005960464,"roughnessFactor":0.272165536880493}}],"meshes":[{"name":"AK","primitives":[{"material":0,"mode":4,"attributes":{"COLOR_0":7,"JOINTS_0":9,"NORMAL":6,"POSITION":5,"TEXCOORD_0":8,"WEIGHTS_0":10},"indices":4}]}],"skins":[{"joints":[3,4,5,6,7],"inverseBindMatrices":11,"skeleton":3}],"nodes":[{"name":"RootNode","translation":[0.0,0.0,0.0],"rotation":[0.0,0.0,0.0,1.0],"scale":[1.0,1.0,1.0],"children":[1,2]},{"name":"AK","translation":[0.0,0.0,0.0],"rotation":[-0.707106709480286,3.09086161109917e-08,-3.09086232164191e-08,0.707106828689575],"scale":[100.0,100.0,100.0],"mesh":0,"skin":0},{"name":"ak47","translation":[0.0,0.0,0.0],"rotation":[-0.707106709480286,3.09086161109917e-08,-3.09086232164191e-08,0.707106828689575],"scale":[100.0,100.0,100.0],"children":[3]},{"name":"root","translation":[0.0,0.0,0.0],"rotation":[0.5,-0.5,-0.499999970197678,0.5],"scale":[1.0,1.0,1.0],"children":[4,5,6,7]},{"name":"shutter","translation":[-0.000115043520054314,0.0218545440584421,-9.55292622784043e-10],"rotation":[7.48043849085889e-09,-7.48044204357257e-09,-0.707106828689575,0.707106709480286],"scale":[1.0,1.0,1.0]},{"name":"magazine","translation":[0.0163276195526123,0.0140489861369133,-6.14100825746533e-10],"rotation":[1.0,-4.23901691638416e-18,6.29891383496783e-09,7.54979012640433e-08],"scale":[1.0,1.0,1.0]},{"name":"trigger","translation":[0.00534882303327322,0.0124968672171235,-5.46255485289748e-10],"rotation":[0.707107126712799,-1.37678711098488e-07,0.707106471061707,1.3767883899618e-07],"scale":[1.0,1.00000011920929,1.0]},{"name":"fuse","translation":[0.00277736294083297,0.0147033855319023,-6.42705499931395e-10],"rotation":[1.78399872652335e-08,-1.3389775510575e-08,-0.799789428710938,0.60028064250946],"scale":[1.0,1.0,1.0]}]}