{"asset":{"generator":"FBX2glTF v0.9.7","version":"2.0"},"scene":0,"buffers":[{"byteLength":4872,"uri":"tv-smart-buffer.bin"}],"bufferViews":[{"buffer":0,"byteLength":456,"byteOffset":0,"target":34963},{"buffer":0,"byteLength":1656,"byteOffset":456,"target":34962},{"buffer":0,"byteLength":1656,"byteOffset":2112,"target":34962},{"buffer":0,"byteLength":1104,"byteOffset":3768,"target":34962}],"scenes":[{"name":"Root Scene","nodes":[0]}],"accessors":[{"componentType":5123,"type":"SCALAR","count":228,"bufferView":0,"byteOffset":0},{"componentType":5126,"type":"VEC3","count":138,"bufferView":1,"byteOffset":0,"min":[-0.267169803380966,-0.875671088695526,-0.0193097591400146],"max":[0.859017312526703,0.880414247512817,0.0239663124084473]},{"componentType":5126,"type":"VEC3","count":138,"bufferView":2,"byteOffset":0},{"componentType":5126,"type":"VEC2","count":138,"bufferView":3,"byteOffset":0}],"samplers":[{}],"materials":[{"name":"Material","alphaMode":"OPAQUE","extras":{"fromFBX":{"shadingModel":"Phong","isTruePBR":false}},"pbrMetallicRoughness":{"baseColorFactor":[0.64000004529953,0.64000004529953,0.64000004529953,1.0],"metallicFactor":0.400000005960464,"roughnessFactor":0.415087103843689}}],"meshes":[{"name":"Cube","primitives":[{"material":0,"mode":4,"attributes":{"NORMAL":2,"POSITION":1,"TEXCOORD_0":3},"indices":0}]}],"cameras":[{"name":"","type":"perspective","perspective":{"znear":10.0,"zfar":10000.0,"aspectRatio":1.77777779102325,"yfov":0.503379940986633}}],"nodes":[{"name":"RootNode","translation":[0.0,0.0,0.0],"rotation":[0.0,0.0,0.0,1.0],"scale":[1.0,1.0,1.0],"children":[1,2]},{"name":"Cube","translation":[0.000122451790957712,-0.295847505331039,-1.01930999755859],"rotation":[0.70710676908493,0.70710676908493,4.32978030171328e-17,4.32978030171328e-17],"scale":[1.0,1.0,1.0],"mesh":0},{"name":"Camera","translation":[0.0717534720897675,-0.0217452887445688,1.64573228359222],"rotation":[0.0020514321513474,8.02576541900635e-05,-0.00539685413241386,0.999983251094818],"scale":[100.000007629395,100.000007629395,100.000007629395],"camera":0}]}