{"asset":{"generator":"FBX2glTF v0.9.7","version":"2.0"},"scene":0,"buffers":[{"byteLength":2714928,"uri":"wardrobe-buffer.bin"}],"bufferViews":[{"buffer":0,"byteLength":564,"byteOffset":0},{"buffer":0,"byteLength":2256,"byteOffset":564},{"buffer":0,"byteLength":1692,"byteOffset":2820},{"buffer":0,"byteLength":1692,"byteOffset":4512},{"buffer":0,"byteLength":2256,"byteOffset":6204},{"buffer":0,"byteLength":1692,"byteOffset":8460},{"buffer":0,"byteLength":2256,"byteOffset":10152},{"buffer":0,"byteLength":1692,"byteOffset":12408},{"buffer":0,"byteLength":2256,"byteOffset":14100},{"buffer":0,"byteLength":2256,"byteOffset":16356},{"buffer":0,"byteLength":1692,"byteOffset":18612},{"buffer":0,"byteLength":2256,"byteOffset":20304},{"buffer":0,"byteLength":1692,"byteOffset":22560},{"buffer":0,"byteLength":2256,"byteOffset":24252},{"buffer":0,"byteLength":1692,"byteOffset":26508},{"buffer":0,"byteLength":2256,"byteOffset":28200},{"buffer":0,"byteLength":2256,"byteOffset":30456},{"buffer":0,"byteLength":1692,"byteOffset":32712},{"buffer":0,"byteLength":1692,"byteOffset":34404},{"buffer":0,"byteLength":2256,"byteOffset":36096},{"buffer":0,"byteLength":2256,"byteOffset":38352},{"buffer":0,"byteLength":1692,"byteOffset":40608},{"buffer":0,"byteLength":2256,"byteOffset":42300},{"buffer":0,"byteLength":2256,"byteOffset":44556},{"buffer":0,"byteLength":1692,"byteOffset":46812},{"buffer":0,"byteLength":2256,"byteOffset":48504},{"buffer":0,"byteLength":2256,"byteOffset":50760},{"buffer":0,"byteLength":1692,"byteOffset":53016},{"buffer":0,"byteLength":2256,"byteOffset":54708},{"buffer":0,"byteLength":1692,"byteOffset":56964},{"buffer":0,"byteLength":1692,"byteOffset":58656},{"buffer":0,"byteLength":1692,"byteOffset":60348},{"buffer":0,"byteLength":1692,"byteOffset":62040},{"buffer":0,"byteLength":1692,"byteOffset":63732},{"buffer":0,"byteLength":1692,"byteOffset":65424},{"buffer":0,"byteLength":3780,"byteOffset":67116,"target":34963},{"buffer":0,"byteLength":6996,"byteOffset":70896,"target":34962},{"buffer":0,"byteLength":6996,"byteOffset":77892,"target":34962},{"buffer":0,"byteLength":4664,"byteOffset":84888,"target":34962},{"buffer":0,"byteLength":264,"byteOffset":89552,"target":34963},{"buffer":0,"byteLength":456,"byteOffset":89816,"target":34962},{"buffer":0,"byteLength":456,"byteOffset":90272,"target":34962},{"buffer":0,"byteLength":304,"byteOffset":90728,"target":34962},{"buffer":0,"byteLength":304,"byteOffset":91032,"target":34962},{"buffer":0,"byteLength":608,"byteOffset":91336,"target":34962},{"buffer":0,"byteLength":264,"byteOffset":91944,"target":34963},{"buffer":0,"byteLength":456,"byteOffset":92208,"target":34962},{"buffer":0,"byteLength":456,"byteOffset":92664,"target":34962},{"buffer":0,"byteLength":304,"byteOffset":93120,"target":34962},{"buffer":0,"byteLength":304,"byteOffset":93424,"target":34962},{"buffer":0,"byteLength":608,"byteOffset":93728,"target":34962},{"buffer":0,"byteLength":264,"byteOffset":94336,"target":34963},{"buffer":0,"byteLength":456,"byteOffset":94600,"target":34962},{"buffer":0,"byteLength":456,"byteOffset":95056,"target":34962},{"buffer":0,"byteLength":304,"byteOffset":95512,"target":34962},{"buffer":0,"byteLength":304,"byteOffset":95816,"target":34962},{"buffer":0,"byteLength":608,"byteOffset":96120,"target":34962},{"buffer":0,"byteLength":264,"byteOffset":96728,"target":34963},{"buffer":0,"byteLength":456,"byteOffset":96992,"target":34962},{"buffer":0,"byteLength":456,"byteOffset":97448,"target":34962},{"buffer":0,"byteLength":304,"byteOffset":97904,"target":34962},{"buffer":0,"byteLength":304,"byteOffset":98208,"target":34962},{"buffer":0,"byteLength":608,"byteOffset":98512,"target":34962},{"buffer":0,"byteLength":264,"byteOffset":99120,"target":34963},{"buffer":0,"byteLength":456,"byteOffset":99384,"target":34962},{"buffer":0,"byteLength":456,"byteOffset":99840,"target":34962},{"buffer":0,"byteLength":304,"byteOffset":100296,"target":34962},{"buffer":0,"byteLength":304,"byteOffset":100600,"target":34962},{"buffer":0,"byteLength":608,"byteOffset":100904,"target":34962},{"buffer":0,"byteLength":2112,"byteOffset":101512,"target":34963},{"buffer":0,"byteLength":3384,"byteOffset":103624,"target":34962},{"buffer":0,"byteLength":3384,"byteOffset":107008,"target":34962},{"buffer":0,"byteLength":2256,"byteOffset":110392,"target":34962},{"buffer":0,"byteLength":2256,"byteOffset":112648,"target":34962},{"buffer":0,"byteLength":4512,"byteOffset":114904,"target":34962},{"buffer":0,"byteLength":2112,"byteOffset":119416,"target":34963},{"buffer":0,"byteLength":3384,"byteOffset":121528,"target":34962},{"buffer":0,"byteLength":3384,"byteOffset":124912,"target":34962},{"buffer":0,"byteLength":2256,"byteOffset":128296,"target":34962},{"buffer":0,"byteLength":2256,"byteOffset":130552,"target":34962},{"buffer":0,"byteLength":4512,"byteOffset":132808,"target":34962},{"buffer":0,"byteLength":2112,"byteOffset":137320,"target":34963},{"buffer":0,"byteLength":3384,"byteOffset":139432,"target":34962},{"buffer":0,"byteLength":3384,"byteOffset":142816,"target":34962},{"buffer":0,"byteLength":2256,"byteOffset":146200,"target":34962},{"buffer":0,"byteLength":2256,"byteOffset":148456,"target":34962},{"buffer":0,"byteLength":4512,"byteOffset":150712,"target":34962},{"buffer":0,"byteLength":2112,"byteOffset":155224,"target":34963},{"buffer":0,"byteLength":3384,"byteOffset":157336,"target":34962},{"buffer":0,"byteLength":3384,"byteOffset":160720,"target":34962},{"buffer":0,"byteLength":2256,"byteOffset":164104,"target":34962},{"buffer":0,"byteLength":2256,"byteOffset":166360,"target":34962},{"buffer":0,"byteLength":4512,"byteOffset":168616,"target":34962},{"buffer":0,"byteLength":2112,"byteOffset":173128,"target":34963},{"buffer":0,"byteLength":3384,"byteOffset":175240,"target":34962},{"buffer":0,"byteLength":3384,"byteOffset":178624,"target":34962},{"buffer":0,"byteLength":2256,"byteOffset":182008,"target":34962},{"buffer":0,"byteLength":2256,"byteOffset":184264,"target":34962},{"buffer":0,"byteLength":4512,"byteOffset":186520,"target":34962},{"buffer":0,"byteLength":26016,"byteOffset":191032,"target":34963},{"buffer":0,"byteLength":55944,"byteOffset":217048,"target":34962},{"buffer":0,"byteLength":55944,"byteOffset":272992,"target":34962},{"buffer":0,"byteLength":37296,"byteOffset":328936,"target":34962},{"buffer":0,"byteLength":37296,"byteOffset":366232,"target":34962},{"buffer":0,"byteLength":74592,"byteOffset":403528,"target":34962},{"buffer":0,"byteLength":26016,"byteOffset":478120,"target":34963},{"buffer":0,"byteLength":55944,"byteOffset":504136,"target":34962},{"buffer":0,"byteLength":55944,"byteOffset":560080,"target":34962},{"buffer":0,"byteLength":37296,"byteOffset":616024,"target":34962},{"buffer":0,"byteLength":37296,"byteOffset":653320,"target":34962},{"buffer":0,"byteLength":74592,"byteOffset":690616,"target":34962},{"buffer":0,"byteLength":26016,"byteOffset":765208,"target":34963},{"buffer":0,"byteLength":55944,"byteOffset":791224,"target":34962},{"buffer":0,"byteLength":55944,"byteOffset":847168,"target":34962},{"buffer":0,"byteLength":37296,"byteOffset":903112,"target":34962},{"buffer":0,"byteLength":37296,"byteOffset":940408,"target":34962},{"buffer":0,"byteLength":74592,"byteOffset":977704,"target":34962},{"buffer":0,"byteLength":26016,"byteOffset":1052296,"target":34963},{"buffer":0,"byteLength":55944,"byteOffset":1078312,"target":34962},{"buffer":0,"byteLength":55944,"byteOffset":1134256,"target":34962},{"buffer":0,"byteLength":37296,"byteOffset":1190200,"target":34962},{"buffer":0,"byteLength":37296,"byteOffset":1227496,"target":34962},{"buffer":0,"byteLength":74592,"byteOffset":1264792,"target":34962},{"buffer":0,"byteLength":27624,"byteOffset":1339384,"target":34963},{"buffer":0,"byteLength":57660,"byteOffset":1367008,"target":34962},{"buffer":0,"byteLength":57660,"byteOffset":1424668,"target":34962},{"buffer":0,"byteLength":38440,"byteOffset":1482328,"target":34962},{"buffer":0,"byteLength":27624,"byteOffset":1520768,"target":34963},{"buffer":0,"byteLength":57660,"byteOffset":1548392,"target":34962},{"buffer":0,"byteLength":57660,"byteOffset":1606052,"target":34962},{"buffer":0,"byteLength":38440,"byteOffset":1663712,"target":34962},{"buffer":0,"byteLength":27624,"byteOffset":1702152,"target":34963},{"buffer":0,"byteLength":57660,"byteOffset":1729776,"target":34962},{"buffer":0,"byteLength":57660,"byteOffset":1787436,"target":34962},{"buffer":0,"byteLength":38440,"byteOffset":1845096,"target":34962},{"buffer":0,"byteLength":27624,"byteOffset":1883536,"target":34963},{"buffer":0,"byteLength":57660,"byteOffset":1911160,"target":34962},{"buffer":0,"byteLength":57660,"byteOffset":1968820,"target":34962},{"buffer":0,"byteLength":38440,"byteOffset":2026480,"target":34962},{"buffer":0,"byteLength":6792,"byteOffset":2064920,"target":34963},{"buffer":0,"byteLength":16872,"byteOffset":2071712,"target":34962},{"buffer":0,"byteLength":16872,"byteOffset":2088584,"target":34962},{"buffer":0,"byteLength":11248,"byteOffset":2105456,"target":34962},{"buffer":0,"byteLength":11248,"byteOffset":2116704,"target":34962},{"buffer":0,"byteLength":22496,"byteOffset":2127952,"target":34962},{"buffer":0,"byteLength":6792,"byteOffset":2150448,"target":34963},{"buffer":0,"byteLength":16872,"byteOffset":2157240,"target":34962},{"buffer":0,"byteLength":16872,"byteOffset":2174112,"target":34962},{"buffer":0,"byteLength":11248,"byteOffset":2190984,"target":34962},{"buffer":0,"byteLength":11248,"byteOffset":2202232,"target":34962},{"buffer":0,"byteLength":22496,"byteOffset":2213480,"target":34962},{"buffer":0,"byteLength":6792,"byteOffset":2235976,"target":34963},{"buffer":0,"byteLength":16872,"byteOffset":2242768,"target":34962},{"buffer":0,"byteLength":16872,"byteOffset":2259640,"target":34962},{"buffer":0,"byteLength":11248,"byteOffset":2276512,"target":34962},{"buffer":0,"byteLength":11248,"byteOffset":2287760,"target":34962},{"buffer":0,"byteLength":22496,"byteOffset":2299008,"target":34962},{"buffer":0,"byteLength":1272,"byteOffset":2321504,"target":34963},{"buffer":0,"byteLength":3744,"byteOffset":2322776,"target":34962},{"buffer":0,"byteLength":3744,"byteOffset":2326520,"target":34962},{"buffer":0,"byteLength":2496,"byteOffset":2330264,"target":34962},{"buffer":0,"byteLength":2496,"byteOffset":2332760,"target":34962},{"buffer":0,"byteLength":4992,"byteOffset":2335256,"target":34962},{"buffer":0,"byteLength":1272,"byteOffset":2340248,"target":34963},{"buffer":0,"byteLength":3744,"byteOffset":2341520,"target":34962},{"buffer":0,"byteLength":3744,"byteOffset":2345264,"target":34962},{"buffer":0,"byteLength":2496,"byteOffset":2349008,"target":34962},{"buffer":0,"byteLength":2496,"byteOffset":2351504,"target":34962},{"buffer":0,"byteLength":4992,"byteOffset":2354000,"target":34962},{"buffer":0,"byteLength":1272,"byteOffset":2358992,"target":34963},{"buffer":0,"byteLength":3744,"byteOffset":2360264,"target":34962},{"buffer":0,"byteLength":3744,"byteOffset":2364008,"target":34962},{"buffer":0,"byteLength":2496,"byteOffset":2367752,"target":34962},{"buffer":0,"byteLength":2496,"byteOffset":2370248,"target":34962},{"buffer":0,"byteLength":4992,"byteOffset":2372744,"target":34962},{"buffer":0,"byteLength":1056,"byteOffset":2377736,"target":34963},{"buffer":0,"byteLength":2256,"byteOffset":2378792,"target":34962},{"buffer":0,"byteLength":2256,"byteOffset":2381048,"target":34962},{"buffer":0,"byteLength":1504,"byteOffset":2383304,"target":34962},{"buffer":0,"byteLength":1504,"byteOffset":2384808,"target":34962},{"buffer":0,"byteLength":3008,"byteOffset":2386312,"target":34962},{"buffer":0,"byteLength":1056,"byteOffset":2389320,"target":34963},{"buffer":0,"byteLength":2256,"byteOffset":2390376,"target":34962},{"buffer":0,"byteLength":2256,"byteOffset":2392632,"target":34962},{"buffer":0,"byteLength":1504,"byteOffset":2394888,"target":34962},{"buffer":0,"byteLength":1504,"byteOffset":2396392,"target":34962},{"buffer":0,"byteLength":3008,"byteOffset":2397896,"target":34962},{"buffer":0,"byteLength":1056,"byteOffset":2400904,"target":34963},{"buffer":0,"byteLength":2256,"byteOffset":2401960,"target":34962},{"buffer":0,"byteLength":2256,"byteOffset":2404216,"target":34962},{"buffer":0,"byteLength":1504,"byteOffset":2406472,"target":34962},{"buffer":0,"byteLength":1504,"byteOffset":2407976,"target":34962},{"buffer":0,"byteLength":3008,"byteOffset":2409480,"target":34962},{"buffer":0,"byteLength":33552,"byteOffset":2412488,"target":34963},{"buffer":0,"byteLength":87480,"byteOffset":2446040,"target":34962},{"buffer":0,"byteLength":87480,"byteOffset":2533520,"target":34962},{"buffer":0,"byteLength":58320,"byteOffset":2621000,"target":34962},{"buffer":0,"byteLength":5016,"byteOffset":2679320,"target":34963},{"buffer":0,"byteLength":10704,"byteOffset":2684336,"target":34962},{"buffer":0,"byteLength":10704,"byteOffset":2695040,"target":34962},{"buffer":0,"byteLength":7136,"byteOffset":2705744,"target":34962},{"buffer":0,"byteLength":64,"byteOffset":2712880},{"buffer":0,"byteLength":384,"byteOffset":2712944},{"buffer":0,"byteLength":384,"byteOffset":2713328},{"buffer":0,"byteLength":384,"byteOffset":2713712},{"buffer":0,"byteLength":384,"byteOffset":2714096},{"buffer":0,"byteLength":64,"byteOffset":2714480},{"buffer":0,"byteLength":64,"byteOffset":2714544},{"buffer":0,"byteLength":64,"byteOffset":2714608},{"buffer":0,"byteLength":64,"byteOffset":2714672},{"buffer":0,"byteLength":64,"byteOffset":2714736},{"buffer":0,"byteLength":64,"byteOffset":2714800},{"buffer":0,"byteLength":64,"byteOffset":2714864}],"scenes":[{"name":"Root Scene","nodes":[0]}],"accessors":[{"componentType":5126,"type":"SCALAR","count":141,"bufferView":0,"byteOffset":0,"min":[0.0],"max":[5.83333349227905]},{"componentType":5126,"type":"VEC4","count":141,"bufferView":1,"byteOffset":0},{"componentType":5126,"type":"VEC3","count":141,"bufferView":2,"byteOffset":0},{"componentType":5126,"type":"VEC3","count":141,"bufferView":3,"byteOffset":0},{"componentType":5126,"type":"VEC4","count":141,"bufferView":4,"byteOffset":0},{"componentType":5126,"type":"VEC3","count":141,"bufferView":5,"byteOffset":0},{"componentType":5126,"type":"VEC4","count":141,"bufferView":6,"byteOffset":0},{"componentType":5126,"type":"VEC3","count":141,"bufferView":7,"byteOffset":0},{"componentType":5126,"type":"VEC4","count":141,"bufferView":8,"byteOffset":0},{"componentType":5126,"type":"VEC4","count":141,"bufferView":9,"byteOffset":0},{"componentType":5126,"type":"VEC3","count":141,"bufferView":10,"byteOffset":0},{"componentType":5126,"type":"VEC4","count":141,"bufferView":11,"byteOffset":0},{"componentType":5126,"type":"VEC3","count":141,"bufferView":12,"byteOffset":0},{"componentType":5126,"type":"VEC4","count":141,"bufferView":13,"byteOffset":0},{"componentType":5126,"type":"VEC3","count":141,"bufferView":14,"byteOffset":0},{"componentType":5126,"type":"VEC4","count":141,"bufferView":15,"byteOffset":0},{"componentType":5126,"type":"VEC4","count":141,"bufferView":16,"byteOffset":0},{"componentType":5126,"type":"VEC3","count":141,"bufferView":17,"byteOffset":0},{"componentType":5126,"type":"VEC3","count":141,"bufferView":18,"byteOffset":0},{"componentType":5126,"type":"VEC4","count":141,"bufferView":19,"byteOffset":0},{"componentType":5126,"type":"VEC4","count":141,"bufferView":20,"byteOffset":0},{"componentType":5126,"type":"VEC3","count":141,"bufferView":21,"byteOffset":0},{"componentType":5126,"type":"VEC4","count":141,"bufferView":22,"byteOffset":0},{"componentType":5126,"type":"VEC4","count":141,"bufferView":23,"byteOffset":0},{"componentType":5126,"type":"VEC3","count":141,"bufferView":24,"byteOffset":0},{"componentType":5126,"type":"VEC4","count":141,"bufferView":25,"byteOffset":0},{"componentType":5126,"type":"VEC4","count":141,"bufferView":26,"byteOffset":0},{"componentType":5126,"type":"VEC3","count":141,"bufferView":27,"byteOffset":0},{"componentType":5126,"type":"VEC4","count":141,"bufferView":28,"byteOffset":0},{"componentType":5126,"type":"VEC3","count":141,"bufferView":29,"byteOffset":0},{"componentType":5126,"type":"VEC3","count":141,"bufferView":30,"byteOffset":0},{"componentType":5126,"type":"VEC3","count":141,"bufferView":31,"byteOffset":0},{"componentType":5126,"type":"VEC3","count":141,"bufferView":32,"byteOffset":0},{"componentType":5126,"type":"VEC3","count":141,"bufferView":33,"byteOffset":0},{"componentType":5126,"type":"VEC3","count":141,"bufferView":34,"byteOffset":0},{"componentType":5123,"type":"SCALAR","count":1890,"bufferView":35,"byteOffset":0},{"componentType":5126,"type":"VEC3","count":583,"bufferView":36,"byteOffset":0,"min":[-3.75,-11.3249998092651,-2.37329840660095],"max":[3.75,11.3249998092651,2.37329912185669]},{"componentType":5126,"type":"VEC3","count":583,"bufferView":37,"byteOffset":0},{"componentType":5126,"type":"VEC2","count":583,"bufferView":38,"byteOffset":0},{"componentType":5123,"type":"SCALAR","count":132,"bufferView":39,"byteOffset":0},{"componentType":5126,"type":"VEC3","count":38,"bufferView":40,"byteOffset":0,"min":[-1.76999998092651,-5.3799991607666,-0.0799999982118607],"max":[1.76999998092651,5.38000059127808,0.0799999982118607]},{"componentType":5126,"type":"VEC3","count":38,"bufferView":41,"byteOffset":0},{"componentType":5126,"type":"VEC2","count":38,"bufferView":42,"byteOffset":0},{"componentType":5123,"type":"VEC4","count":38,"bufferView":43,"byteOffset":0},{"componentType":5126,"type":"VEC4","count":38,"bufferView":44,"byteOffset":0},{"componentType":5123,"type":"SCALAR","count":132,"bufferView":45,"byteOffset":0},{"componentType":5126,"type":"VEC3","count":38,"bufferView":46,"byteOffset":0,"min":[-1.7700001001358,-5.3799991607666,-0.0799999982118607],"max":[1.76999986171722,5.38000059127808,0.0799999982118607]},{"componentType":5126,"type":"VEC3","count":38,"bufferView":47,"byteOffset":0},{"componentType":5126,"type":"VEC2","count":38,"bufferView":48,"byteOffset":0},{"componentType":5123,"type":"VEC4","count":38,"bufferView":49,"byteOffset":0},{"componentType":5126,"type":"VEC4","count":38,"bufferView":50,"byteOffset":0},{"componentType":5123,"type":"SCALAR","count":132,"bufferView":51,"byteOffset":0},{"componentType":5126,"type":"VEC3","count":38,"bufferView":52,"byteOffset":0,"min":[-3.55499982833862,-0.889999985694885,-0.0799999982118607],"max":[3.55499982833862,0.889999985694885,0.0799999982118607]},{"componentType":5126,"type":"VEC3","count":38,"bufferView":53,"byteOffset":0},{"componentType":5126,"type":"VEC2","count":38,"bufferView":54,"byteOffset":0},{"componentType":5123,"type":"VEC4","count":38,"bufferView":55,"byteOffset":0},{"componentType":5126,"type":"VEC4","count":38,"bufferView":56,"byteOffset":0},{"componentType":5123,"type":"SCALAR","count":132,"bufferView":57,"byteOffset":0},{"componentType":5126,"type":"VEC3","count":38,"bufferView":58,"byteOffset":0,"min":[-3.55499982833862,-0.889999985694885,-0.0799999982118607],"max":[3.55499982833862,0.889999985694885,0.0800003036856651]},{"componentType":5126,"type":"VEC3","count":38,"bufferView":59,"byteOffset":0},{"componentType":5126,"type":"VEC2","count":38,"bufferView":60,"byteOffset":0},{"componentType":5123,"type":"VEC4","count":38,"bufferView":61,"byteOffset":0},{"componentType":5126,"type":"VEC4","count":38,"bufferView":62,"byteOffset":0},{"componentType":5123,"type":"SCALAR","count":132,"bufferView":63,"byteOffset":0},{"componentType":5126,"type":"VEC3","count":38,"bufferView":64,"byteOffset":0,"min":[-3.55499982833862,-0.889999985694885,-0.0799999982118607],"max":[3.55499982833862,0.889999985694885,0.0800003036856651]},{"componentType":5126,"type":"VEC3","count":38,"bufferView":65,"byteOffset":0},{"componentType":5126,"type":"VEC2","count":38,"bufferView":66,"byteOffset":0},{"componentType":5123,"type":"VEC4","count":38,"bufferView":67,"byteOffset":0},{"componentType":5126,"type":"VEC4","count":38,"bufferView":68,"byteOffset":0},{"componentType":5123,"type":"SCALAR","count":1056,"bufferView":69,"byteOffset":0},{"componentType":5126,"type":"VEC3","count":282,"bufferView":70,"byteOffset":0,"min":[-0.769999980926514,-0.0500025078654289,0.0793890357017517],"max":[0.769999980926514,0.0499978736042976,0.380600869655609]},{"componentType":5126,"type":"VEC3","count":282,"bufferView":71,"byteOffset":0},{"componentType":5126,"type":"VEC2","count":282,"bufferView":72,"byteOffset":0},{"componentType":5123,"type":"VEC4","count":282,"bufferView":73,"byteOffset":0},{"componentType":5126,"type":"VEC4","count":282,"bufferView":74,"byteOffset":0},{"componentType":5123,"type":"SCALAR","count":1056,"bufferView":75,"byteOffset":0},{"componentType":5126,"type":"VEC3","count":282,"bufferView":76,"byteOffset":0,"min":[-0.770000159740448,-0.0500025078654289,0.0793890357017517],"max":[0.769999802112579,0.0499978736042976,0.380600869655609]},{"componentType":5126,"type":"VEC3","count":282,"bufferView":77,"byteOffset":0},{"componentType":5126,"type":"VEC2","count":282,"bufferView":78,"byteOffset":0},{"componentType":5123,"type":"VEC4","count":282,"bufferView":79,"byteOffset":0},{"componentType":5126,"type":"VEC4","count":282,"bufferView":80,"byteOffset":0},{"componentType":5123,"type":"SCALAR","count":1056,"bufferView":81,"byteOffset":0},{"componentType":5126,"type":"VEC3","count":282,"bufferView":82,"byteOffset":0,"min":[-0.769999980926514,-0.0501202382147312,0.0793933123350143],"max":[0.769999980926514,0.0498803704977036,0.380605161190033]},{"componentType":5126,"type":"VEC3","count":282,"bufferView":83,"byteOffset":0},{"componentType":5126,"type":"VEC2","count":282,"bufferView":84,"byteOffset":0},{"componentType":5123,"type":"VEC4","count":282,"bufferView":85,"byteOffset":0},{"componentType":5126,"type":"VEC4","count":282,"bufferView":86,"byteOffset":0},{"componentType":5123,"type":"SCALAR","count":1056,"bufferView":87,"byteOffset":0},{"componentType":5126,"type":"VEC3","count":282,"bufferView":88,"byteOffset":0,"min":[-0.769999980926514,-0.0500006079673767,0.0793933123350143],"max":[0.769999980926514,0.0499999970197678,0.380605161190033]},{"componentType":5126,"type":"VEC3","count":282,"bufferView":89,"byteOffset":0},{"componentType":5126,"type":"VEC2","count":282,"bufferView":90,"byteOffset":0},{"componentType":5123,"type":"VEC4","count":282,"bufferView":91,"byteOffset":0},{"componentType":5126,"type":"VEC4","count":282,"bufferView":92,"byteOffset":0},{"componentType":5123,"type":"SCALAR","count":1056,"bufferView":93,"byteOffset":0},{"componentType":5126,"type":"VEC3","count":282,"bufferView":94,"byteOffset":0,"min":[-0.769999980926514,-0.0500006079673767,0.0793933123350143],"max":[0.769999980926514,0.0499999970197678,0.380605161190033]},{"componentType":5126,"type":"VEC3","count":282,"bufferView":95,"byteOffset":0},{"componentType":5126,"type":"VEC2","count":282,"bufferView":96,"byteOffset":0},{"componentType":5123,"type":"VEC4","count":282,"bufferView":97,"byteOffset":0},{"componentType":5126,"type":"VEC4","count":282,"bufferView":98,"byteOffset":0},{"componentType":5123,"type":"SCALAR","count":13008,"bufferView":99,"byteOffset":0},{"componentType":5126,"type":"VEC3","count":4662,"bufferView":100,"byteOffset":0,"min":[-0.308182507753372,-0.356804043054581,-0.187077239155769],"max":[0.308181971311569,-0.164934501051903,0.198048040270805]},{"componentType":5126,"type":"VEC3","count":4662,"bufferView":101,"byteOffset":0},{"componentType":5126,"type":"VEC2","count":4662,"bufferView":102,"byteOffset":0},{"componentType":5123,"type":"VEC4","count":4662,"bufferView":103,"byteOffset":0},{"componentType":5126,"type":"VEC4","count":4662,"bufferView":104,"byteOffset":0},{"componentType":5123,"type":"SCALAR","count":13008,"bufferView":105,"byteOffset":0},{"componentType":5126,"type":"VEC3","count":4662,"bufferView":106,"byteOffset":0,"min":[-0.308182507753372,-0.356804043054581,-0.187077239155769],"max":[0.308181971311569,-0.164934501051903,0.198048040270805]},{"componentType":5126,"type":"VEC3","count":4662,"bufferView":107,"byteOffset":0},{"componentType":5126,"type":"VEC2","count":4662,"bufferView":108,"byteOffset":0},{"componentType":5123,"type":"VEC4","count":4662,"bufferView":109,"byteOffset":0},{"componentType":5126,"type":"VEC4","count":4662,"bufferView":110,"byteOffset":0},{"componentType":5123,"type":"SCALAR","count":13008,"bufferView":111,"byteOffset":0},{"componentType":5126,"type":"VEC3","count":4662,"bufferView":112,"byteOffset":0,"min":[-0.308182507753372,-0.356804043054581,-0.187077239155769],"max":[0.308181971311569,-0.164934501051903,0.198048040270805]},{"componentType":5126,"type":"VEC3","count":4662,"bufferView":113,"byteOffset":0},{"componentType":5126,"type":"VEC2","count":4662,"bufferView":114,"byteOffset":0},{"componentType":5123,"type":"VEC4","count":4662,"bufferView":115,"byteOffset":0},{"componentType":5126,"type":"VEC4","count":4662,"bufferView":116,"byteOffset":0},{"componentType":5123,"type":"SCALAR","count":13008,"bufferView":117,"byteOffset":0},{"componentType":5126,"type":"VEC3","count":4662,"bufferView":118,"byteOffset":0,"min":[-0.308182507753372,-0.356804043054581,-0.187077239155769],"max":[0.308181971311569,-0.164934501051903,0.198048040270805]},{"componentType":5126,"type":"VEC3","count":4662,"bufferView":119,"byteOffset":0},{"componentType":5126,"type":"VEC2","count":4662,"bufferView":120,"byteOffset":0},{"componentType":5123,"type":"VEC4","count":4662,"bufferView":121,"byteOffset":0},{"componentType":5126,"type":"VEC4","count":4662,"bufferView":122,"byteOffset":0},{"componentType":5123,"type":"SCALAR","count":13812,"bufferView":123,"byteOffset":0},{"componentType":5126,"type":"VEC3","count":4805,"bufferView":124,"byteOffset":0,"min":[-0.258925288915634,-0.302724540233612,-0.198047533631325],"max":[0.25940990447998,0.356804221868515,0.137334421277046]},{"componentType":5126,"type":"VEC3","count":4805,"bufferView":125,"byteOffset":0},{"componentType":5126,"type":"VEC2","count":4805,"bufferView":126,"byteOffset":0},{"componentType":5123,"type":"SCALAR","count":13812,"bufferView":127,"byteOffset":0},{"componentType":5126,"type":"VEC3","count":4805,"bufferView":128,"byteOffset":0,"min":[-0.258925288915634,-0.302724540233612,-0.198047533631325],"max":[0.25940990447998,0.356804221868515,0.137334421277046]},{"componentType":5126,"type":"VEC3","count":4805,"bufferView":129,"byteOffset":0},{"componentType":5126,"type":"VEC2","count":4805,"bufferView":130,"byteOffset":0},{"componentType":5123,"type":"SCALAR","count":13812,"bufferView":131,"byteOffset":0},{"componentType":5126,"type":"VEC3","count":4805,"bufferView":132,"byteOffset":0,"min":[-0.258925288915634,-0.302724540233612,-0.198047533631325],"max":[0.25940990447998,0.356804221868515,0.137334421277046]},{"componentType":5126,"type":"VEC3","count":4805,"bufferView":133,"byteOffset":0},{"componentType":5126,"type":"VEC2","count":4805,"bufferView":134,"byteOffset":0},{"componentType":5123,"type":"SCALAR","count":13812,"bufferView":135,"byteOffset":0},{"componentType":5126,"type":"VEC3","count":4805,"bufferView":136,"byteOffset":0,"min":[-0.258925288915634,-0.302724540233612,-0.198047533631325],"max":[0.25940990447998,0.356804221868515,0.137334421277046]},{"componentType":5126,"type":"VEC3","count":4805,"bufferView":137,"byteOffset":0},{"componentType":5126,"type":"VEC2","count":4805,"bufferView":138,"byteOffset":0},{"componentType":5123,"type":"SCALAR","count":3396,"bufferView":139,"byteOffset":0},{"componentType":5126,"type":"VEC3","count":1406,"bufferView":140,"byteOffset":0,"min":[-3.54172110557556,-0.396535038948059,-3.49596548080444],"max":[3.54172730445862,-0.264228522777557,-0.135894775390625]},{"componentType":5126,"type":"VEC3","count":1406,"bufferView":141,"byteOffset":0},{"componentType":5126,"type":"VEC2","count":1406,"bufferView":142,"byteOffset":0},{"componentType":5123,"type":"VEC4","count":1406,"bufferView":143,"byteOffset":0},{"componentType":5126,"type":"VEC4","count":1406,"bufferView":144,"byteOffset":0},{"componentType":5123,"type":"SCALAR","count":3396,"bufferView":145,"byteOffset":0},{"componentType":5126,"type":"VEC3","count":1406,"bufferView":146,"byteOffset":0,"min":[-3.54172110557556,-0.396672964096069,-3.49596548080444],"max":[3.54172658920288,-0.264366447925568,-0.135894164443016]},{"componentType":5126,"type":"VEC3","count":1406,"bufferView":147,"byteOffset":0},{"componentType":5126,"type":"VEC2","count":1406,"bufferView":148,"byteOffset":0},{"componentType":5123,"type":"VEC4","count":1406,"bufferView":149,"byteOffset":0},{"componentType":5126,"type":"VEC4","count":1406,"bufferView":150,"byteOffset":0},{"componentType":5123,"type":"SCALAR","count":3396,"bufferView":151,"byteOffset":0},{"componentType":5126,"type":"VEC3","count":1406,"bufferView":152,"byteOffset":0,"min":[-3.54172110557556,-0.396422117948532,-3.49596548080444],"max":[3.54172658920288,-0.264116197824478,-0.135894164443016]},{"componentType":5126,"type":"VEC3","count":1406,"bufferView":153,"byteOffset":0},{"componentType":5126,"type":"VEC2","count":1406,"bufferView":154,"byteOffset":0},{"componentType":5123,"type":"VEC4","count":1406,"bufferView":155,"byteOffset":0},{"componentType":5126,"type":"VEC4","count":1406,"bufferView":156,"byteOffset":0},{"componentType":5123,"type":"SCALAR","count":636,"bufferView":157,"byteOffset":0},{"componentType":5126,"type":"VEC3","count":312,"bufferView":158,"byteOffset":0,"min":[-2.50116896629333,-1.64591705799103,-0.0956451371312141],"max":[2.50116872787476,1.64591705799103,0.0956442207098007]},{"componentType":5126,"type":"VEC3","count":312,"bufferView":159,"byteOffset":0},{"componentType":5126,"type":"VEC2","count":312,"bufferView":160,"byteOffset":0},{"componentType":5123,"type":"VEC4","count":312,"bufferView":161,"byteOffset":0},{"componentType":5126,"type":"VEC4","count":312,"bufferView":162,"byteOffset":0},{"componentType":5123,"type":"SCALAR","count":636,"bufferView":163,"byteOffset":0},{"componentType":5126,"type":"VEC3","count":312,"bufferView":164,"byteOffset":0,"min":[-2.50116872787476,-1.64591705799103,-0.0956448316574097],"max":[2.50116872787476,1.64591705799103,0.0956442207098007]},{"componentType":5126,"type":"VEC3","count":312,"bufferView":165,"byteOffset":0},{"componentType":5126,"type":"VEC2","count":312,"bufferView":166,"byteOffset":0},{"componentType":5123,"type":"VEC4","count":312,"bufferView":167,"byteOffset":0},{"componentType":5126,"type":"VEC4","count":312,"bufferView":168,"byteOffset":0},{"componentType":5123,"type":"SCALAR","count":636,"bufferView":169,"byteOffset":0},{"componentType":5126,"type":"VEC3","count":312,"bufferView":170,"byteOffset":0,"min":[-2.50116872787476,-1.64591705799103,-0.0956448316574097],"max":[2.50116872787476,1.64591705799103,0.0956442207098007]},{"componentType":5126,"type":"VEC3","count":312,"bufferView":171,"byteOffset":0},{"componentType":5126,"type":"VEC2","count":312,"bufferView":172,"byteOffset":0},{"componentType":5123,"type":"VEC4","count":312,"bufferView":173,"byteOffset":0},{"componentType":5126,"type":"VEC4","count":312,"bufferView":174,"byteOffset":0},{"componentType":5123,"type":"SCALAR","count":528,"bufferView":175,"byteOffset":0},{"componentType":5126,"type":"VEC3","count":188,"bufferView":176,"byteOffset":0,"min":[-3.45499992370605,-0.680000007152557,-4.08000040054321],"max":[3.45500063896179,0.520000576972961,-0.00999999977648258]},{"componentType":5126,"type":"VEC3","count":188,"bufferView":177,"byteOffset":0},{"componentType":5126,"type":"VEC2","count":188,"bufferView":178,"byteOffset":0},{"componentType":5123,"type":"VEC4","count":188,"bufferView":179,"byteOffset":0},{"componentType":5126,"type":"VEC4","count":188,"bufferView":180,"byteOffset":0},{"componentType":5123,"type":"SCALAR","count":528,"bufferView":181,"byteOffset":0},{"componentType":5126,"type":"VEC3","count":188,"bufferView":182,"byteOffset":0,"min":[-3.45499992370605,-0.680000007152557,-4.08000040054321],"max":[3.45500063896179,0.520000576972961,-0.00999999977648258]},{"componentType":5126,"type":"VEC3","count":188,"bufferView":183,"byteOffset":0},{"componentType":5126,"type":"VEC2","count":188,"bufferView":184,"byteOffset":0},{"componentType":5123,"type":"VEC4","count":188,"bufferView":185,"byteOffset":0},{"componentType":5126,"type":"VEC4","count":188,"bufferView":186,"byteOffset":0},{"componentType":5123,"type":"SCALAR","count":528,"bufferView":187,"byteOffset":0},{"componentType":5126,"type":"VEC3","count":188,"bufferView":188,"byteOffset":0,"min":[-3.45499992370605,-0.680000007152557,-4.07999992370605],"max":[3.45500063896179,0.520000576972961,-0.00999969430267811]},{"componentType":5126,"type":"VEC3","count":188,"bufferView":189,"byteOffset":0},{"componentType":5126,"type":"VEC2","count":188,"bufferView":190,"byteOffset":0},{"componentType":5123,"type":"VEC4","count":188,"bufferView":191,"byteOffset":0},{"componentType":5126,"type":"VEC4","count":188,"bufferView":192,"byteOffset":0},{"componentType":5123,"type":"SCALAR","count":16776,"bufferView":193,"byteOffset":0},{"componentType":5126,"type":"VEC3","count":7290,"bufferView":194,"byteOffset":0,"min":[-2.51365447044373,-1.67950832843781,-1.93519341945648],"max":[2.5136547088623,1.67950832843781,1.9351931810379]},{"componentType":5126,"type":"VEC3","count":7290,"bufferView":195,"byteOffset":0},{"componentType":5126,"type":"VEC2","count":7290,"bufferView":196,"byteOffset":0},{"componentType":5123,"type":"SCALAR","count":2508,"bufferView":197,"byteOffset":0},{"componentType":5126,"type":"VEC3","count":892,"bufferView":198,"byteOffset":0,"min":[-0.292340010404587,-0.264682829380035,-2.00000023841858],"max":[0.292341500520706,0.264682203531265,2.0]},{"componentType":5126,"type":"VEC3","count":892,"bufferView":199,"byteOffset":0},{"componentType":5126,"type":"VEC2","count":892,"bufferView":200,"byteOffset":0},{"componentType":5126,"type":"MAT4","count":1,"bufferView":201,"byteOffset":0},{"componentType":5126,"type":"MAT4","count":6,"bufferView":202,"byteOffset":0},{"componentType":5126,"type":"MAT4","count":6,"bufferView":203,"byteOffset":0},{"componentType":5126,"type":"MAT4","count":6,"bufferView":204,"byteOffset":0},{"componentType":5126,"type":"MAT4","count":6,"bufferView":205,"byteOffset":0},{"componentType":5126,"type":"MAT4","count":1,"bufferView":206,"byteOffset":0},{"componentType":5126,"type":"MAT4","count":1,"bufferView":207,"byteOffset":0},{"componentType":5126,"type":"MAT4","count":1,"bufferView":208,"byteOffset":0},{"componentType":5126,"type":"MAT4","count":1,"bufferView":209,"byteOffset":0},{"componentType":5126,"type":"MAT4","count":1,"bufferView":210,"byteOffset":0},{"componentType":5126,"type":"MAT4","count":1,"bufferView":211,"byteOffset":0},{"componentType":5126,"type":"MAT4","count":1,"bufferView":212,"byteOffset":0}],"materials":[{"name":"Korpus","alphaMode":"OPAQUE","extras":{"fromFBX":{"shadingModel":"Phong","isTruePBR":false}},"pbrMetallicRoughness":{"baseColorFactor":[0.587999999523163,0.587999999523163,0.587999999523163,1.0],"metallicFactor":0.400000005960464,"roughnessFactor":0.70710676908493}},{"name":"Fasad","alphaMode":"OPAQUE","extras":{"fromFBX":{"shadingModel":"Phong","isTruePBR":false}},"pbrMetallicRoughness":{"baseColorFactor":[0.587999999523163,0.587999999523163,0.587999999523163,1.0],"metallicFactor":0.400000005960464,"roughnessFactor":0.70710676908493}},{"name":"Ru4ki","alphaMode":"OPAQUE","extras":{"fromFBX":{"shadingModel":"Phong","isTruePBR":false}},"pbrMetallicRoughness":{"baseColorFactor":[0.587999999523163,0.587999999523163,0.587999999523163,1.0],"metallicFactor":0.400000005960464,"roughnessFactor":0.70710676908493}},{"name":"Mexanizm","alphaMode":"OPAQUE","extras":{"fromFBX":{"shadingModel":"Phong","isTruePBR":false}},"pbrMetallicRoughness":{"baseColorFactor":[0.587999999523163,0.587999999523163,0.587999999523163,1.0],"metallicFactor":0.400000005960464,"roughnessFactor":0.70710676908493}},{"name":"Mexanizm","alphaMode":"OPAQUE","extras":{"fromFBX":{"shadingModel":"Phong","isTruePBR":false}},"pbrMetallicRoughness":{"baseColorFactor":[0.587999999523163,0.587999999523163,0.587999999523163,1.0],"metallicFactor":0.400000005960464,"roughnessFactor":0.70710676908493}},{"name":"Napr","alphaMode":"OPAQUE","extras":{"fromFBX":{"shadingModel":"Phong","isTruePBR":false}},"pbrMetallicRoughness":{"baseColorFactor":[0.587999999523163,0.587999999523163,0.587999999523163,1.0],"metallicFactor":0.400000005960464,"roughnessFactor":0.70710676908493}},{"name":"Tumb","alphaMode":"OPAQUE","extras":{"fromFBX":{"shadingModel":"Phong","isTruePBR":false}},"pbrMetallicRoughness":{"baseColorFactor":[0.587999999523163,0.587999999523163,0.587999999523163,1.0],"metallicFactor":0.400000005960464,"roughnessFactor":0.70710676908493}},{"name":"Napr","alphaMode":"OPAQUE","extras":{"fromFBX":{"shadingModel":"Phong","isTruePBR":false}},"pbrMetallicRoughness":{"baseColorFactor":[0.587999999523163,0.587999999523163,0.587999999523163,1.0],"metallicFactor":0.400000005960464,"roughnessFactor":0.70710676908493}},{"name":"DefaultMaterial","alphaMode":"OPAQUE","extras":{"fromFBX":{"shadingModel":"Lambert","isTruePBR":false}},"pbrMetallicRoughness":{"baseColorFactor":[0.5,0.5,0.5,1.0],"metallicFactor":0.200000002980232,"roughnessFactor":0.800000011920929}}],"meshes":[{"name":"VIFS408","primitives":[{"material":0,"mode":4,"attributes":{"NORMAL":37,"POSITION":36,"TEXCOORD_0":38},"indices":35}]},{"name":"Object212","primitives":[{"material":1,"mode":4,"attributes":{"JOINTS_0":43,"NORMAL":41,"POSITION":40,"TEXCOORD_0":42,"WEIGHTS_0":44},"indices":39},{"material":2,"mode":4,"attributes":{"JOINTS_0":73,"NORMAL":71,"POSITION":70,"TEXCOORD_0":72,"WEIGHTS_0":74},"indices":69}]},{"name":"Object","primitives":[{"material":1,"mode":4,"attributes":{"JOINTS_0":49,"NORMAL":47,"POSITION":46,"TEXCOORD_0":48,"WEIGHTS_0":50},"indices":45},{"material":2,"mode":4,"attributes":{"JOINTS_0":79,"NORMAL":77,"POSITION":76,"TEXCOORD_0":78,"WEIGHTS_0":80},"indices":75}]},{"name":"Object249","primitives":[{"material":1,"mode":4,"attributes":{"JOINTS_0":55,"NORMAL":53,"POSITION":52,"TEXCOORD_0":54,"WEIGHTS_0":56},"indices":51},{"material":2,"mode":4,"attributes":{"JOINTS_0":85,"NORMAL":83,"POSITION":82,"TEXCOORD_0":84,"WEIGHTS_0":86},"indices":81},{"material":7,"mode":4,"attributes":{"JOINTS_0":143,"NORMAL":141,"POSITION":140,"TEXCOORD_0":142,"WEIGHTS_0":144},"indices":139},{"material":6,"mode":4,"attributes":{"JOINTS_0":179,"NORMAL":177,"POSITION":176,"TEXCOORD_0":178,"WEIGHTS_0":180},"indices":175}]},{"name":"Object251","primitives":[{"material":1,"mode":4,"attributes":{"JOINTS_0":61,"NORMAL":59,"POSITION":58,"TEXCOORD_0":60,"WEIGHTS_0":62},"indices":57},{"material":2,"mode":4,"attributes":{"JOINTS_0":91,"NORMAL":89,"POSITION":88,"TEXCOORD_0":90,"WEIGHTS_0":92},"indices":87},{"material":7,"mode":4,"attributes":{"JOINTS_0":149,"NORMAL":147,"POSITION":146,"TEXCOORD_0":148,"WEIGHTS_0":150},"indices":145},{"material":6,"mode":4,"attributes":{"JOINTS_0":185,"NORMAL":183,"POSITION":182,"TEXCOORD_0":184,"WEIGHTS_0":186},"indices":181}]},{"name":"Object253","primitives":[{"material":1,"mode":4,"attributes":{"JOINTS_0":67,"NORMAL":65,"POSITION":64,"TEXCOORD_0":66,"WEIGHTS_0":68},"indices":63},{"material":2,"mode":4,"attributes":{"JOINTS_0":97,"NORMAL":95,"POSITION":94,"TEXCOORD_0":96,"WEIGHTS_0":98},"indices":93},{"material":7,"mode":4,"attributes":{"JOINTS_0":155,"NORMAL":153,"POSITION":152,"TEXCOORD_0":154,"WEIGHTS_0":156},"indices":151},{"material":6,"mode":4,"attributes":{"JOINTS_0":191,"NORMAL":189,"POSITION":188,"TEXCOORD_0":190,"WEIGHTS_0":192},"indices":187}]},{"name":"Plane008","primitives":[{"material":4,"mode":4,"attributes":{"JOINTS_0":103,"NORMAL":101,"POSITION":100,"TEXCOORD_0":102,"WEIGHTS_0":104},"indices":99}]},{"name":"Plane009","primitives":[{"material":4,"mode":4,"attributes":{"JOINTS_0":109,"NORMAL":107,"POSITION":106,"TEXCOORD_0":108,"WEIGHTS_0":110},"indices":105}]},{"name":"Plane010","primitives":[{"material":4,"mode":4,"attributes":{"JOINTS_0":115,"NORMAL":113,"POSITION":112,"TEXCOORD_0":114,"WEIGHTS_0":116},"indices":111}]},{"name":"Plane011","primitives":[{"material":4,"mode":4,"attributes":{"JOINTS_0":121,"NORMAL":119,"POSITION":118,"TEXCOORD_0":120,"WEIGHTS_0":122},"indices":117}]},{"name":"Object026","primitives":[{"material":4,"mode":4,"attributes":{"NORMAL":125,"POSITION":124,"TEXCOORD_0":126},"indices":123}]},{"name":"Object213","primitives":[{"material":4,"mode":4,"attributes":{"NORMAL":129,"POSITION":128,"TEXCOORD_0":130},"indices":127}]},{"name":"Object214","primitives":[{"material":4,"mode":4,"attributes":{"NORMAL":133,"POSITION":132,"TEXCOORD_0":134},"indices":131}]},{"name":"Object215","primitives":[{"material":4,"mode":4,"attributes":{"NORMAL":137,"POSITION":136,"TEXCOORD_0":138},"indices":135}]},{"name":"Object255","primitives":[{"material":7,"mode":4,"attributes":{"JOINTS_0":161,"NORMAL":159,"POSITION":158,"TEXCOORD_0":160,"WEIGHTS_0":162},"indices":157}]},{"name":"Object263","primitives":[{"material":7,"mode":4,"attributes":{"JOINTS_0":167,"NORMAL":165,"POSITION":164,"TEXCOORD_0":166,"WEIGHTS_0":168},"indices":163}]},{"name":"Object264","primitives":[{"material":7,"mode":4,"attributes":{"JOINTS_0":173,"NORMAL":171,"POSITION":170,"TEXCOORD_0":172,"WEIGHTS_0":174},"indices":169}]},{"name":"Object261","primitives":[{"material":7,"mode":4,"attributes":{"NORMAL":195,"POSITION":194,"TEXCOORD_0":196},"indices":193}]},{"name":"Box002","primitives":[{"material":8,"mode":4,"attributes":{"NORMAL":199,"POSITION":198,"TEXCOORD_0":200},"indices":197}]}],"skins":[{"joints":[23],"inverseBindMatrices":201,"skeleton":23},{"joints":[5,8,6,7,4,9],"inverseBindMatrices":202,"skeleton":4},{"joints":[12,15,13,14,11,16],"inverseBindMatrices":203,"skeleton":11},{"joints":[20,23,21,22,19,24],"inverseBindMatrices":204,"skeleton":19},{"joints":[28,31,29,30,27,32],"inverseBindMatrices":205,"skeleton":27},{"joints":[8],"inverseBindMatrices":206,"skeleton":8},{"joints":[43],"inverseBindMatrices":207,"skeleton":43},{"joints":[45],"inverseBindMatrices":208,"skeleton":45},{"joints":[47],"inverseBindMatrices":209,"skeleton":47},{"joints":[44],"inverseBindMatrices":210,"skeleton":44},{"joints":[48],"inverseBindMatrices":211,"skeleton":48},{"joints":[46],"inverseBindMatrices":212,"skeleton":46}],"animations":[{"name":"Take 001","channels":[{"sampler":0,"target":{"node":4,"path":"rotation"}},{"sampler":1,"target":{"node":5,"path":"translation"}},{"sampler":2,"target":{"node":6,"path":"translation"}},{"sampler":3,"target":{"node":6,"path":"rotation"}},{"sampler":4,"target":{"node":7,"path":"translation"}},{"sampler":5,"target":{"node":7,"path":"rotation"}},{"sampler":6,"target":{"node":8,"path":"translation"}},{"sampler":7,"target":{"node":9,"path":"rotation"}},{"sampler":8,"target":{"node":11,"path":"rotation"}},{"sampler":9,"target":{"node":13,"path":"translation"}},{"sampler":10,"target":{"node":13,"path":"rotation"}},{"sampler":11,"target":{"node":14,"path":"translation"}},{"sampler":12,"target":{"node":14,"path":"rotation"}},{"sampler":13,"target":{"node":15,"path":"translation"}},{"sampler":14,"target":{"node":16,"path":"rotation"}},{"sampler":15,"target":{"node":19,"path":"rotation"}},{"sampler":16,"target":{"node":20,"path":"translation"}},{"sampler":17,"target":{"node":21,"path":"translation"}},{"sampler":18,"target":{"node":21,"path":"rotation"}},{"sampler":19,"target":{"node":22,"path":"rotation"}},{"sampler":20,"target":{"node":23,"path":"translation"}},{"sampler":21,"target":{"node":24,"path":"rotation"}},{"sampler":22,"target":{"node":27,"path":"rotation"}},{"sampler":23,"target":{"node":29,"path":"translation"}},{"sampler":24,"target":{"node":29,"path":"rotation"}},{"sampler":25,"target":{"node":30,"path":"rotation"}},{"sampler":26,"target":{"node":31,"path":"translation"}},{"sampler":27,"target":{"node":32,"path":"rotation"}},{"sampler":28,"target":{"node":43,"path":"translation"}},{"sampler":29,"target":{"node":44,"path":"translation"}},{"sampler":30,"target":{"node":45,"path":"translation"}},{"sampler":31,"target":{"node":46,"path":"translation"}},{"sampler":32,"target":{"node":47,"path":"translation"}},{"sampler":33,"target":{"node":48,"path":"translation"}}],"samplers":[{"input":0,"interpolation":"LINEAR","output":1},{"input":0,"interpolation":"LINEAR","output":2},{"input":0,"interpolation":"LINEAR","output":3},{"input":0,"interpolation":"LINEAR","output":4},{"input":0,"interpolation":"LINEAR","output":5},{"input":0,"interpolation":"LINEAR","output":6},{"input":0,"interpolation":"LINEAR","output":7},{"input":0,"interpolation":"LINEAR","output":8},{"input":0,"interpolation":"LINEAR","output":9},{"input":0,"interpolation":"LINEAR","output":10},{"input":0,"interpolation":"LINEAR","output":11},{"input":0,"interpolation":"LINEAR","output":12},{"input":0,"interpolation":"LINEAR","output":13},{"input":0,"interpolation":"LINEAR","output":14},{"input":0,"interpolation":"LINEAR","output":15},{"input":0,"interpolation":"LINEAR","output":16},{"input":0,"interpolation":"LINEAR","output":17},{"input":0,"interpolation":"LINEAR","output":18},{"input":0,"interpolation":"LINEAR","output":19},{"input":0,"interpolation":"LINEAR","output":20},{"input":0,"interpolation":"LINEAR","output":21},{"input":0,"interpolation":"LINEAR","output":22},{"input":0,"interpolation":"LINEAR","output":23},{"input":0,"interpolation":"LINEAR","output":24},{"input":0,"interpolation":"LINEAR","output":25},{"input":0,"interpolation":"LINEAR","output":26},{"input":0,"interpolation":"LINEAR","output":27},{"input":0,"interpolation":"LINEAR","output":28},{"input":0,"interpolation":"LINEAR","output":29},{"input":0,"interpolation":"LINEAR","output":30},{"input":0,"interpolation":"LINEAR","output":31},{"input":0,"interpolation":"LINEAR","output":32},{"input":0,"interpolation":"LINEAR","output":33},{"input":0,"interpolation":"LINEAR","output":34}]}],"nodes":[{"name":"RootNode","translation":[0.0,0.0,0.0],"rotation":[0.0,0.0,0.0,1.0],"scale":[1.0,1.0,1.0],"children":[1,2,3,4,9,10,11,16,17,18,19,24,25,26,27,32,33,34,35,36,37,38,39,40,41,42,43,44,45,46,47,48,49]},{"name":"VIFS408","translation":[0.00356303388252854,1.13339519500732,0.00105068960692734],"rotation":[8.14603424714733e-08,0.0,0.0,1.0],"scale":[0.100000001490116,0.100000001490116,0.100000001490116],"mesh":0},{"name":"Object212","translation":[-0.174936935305595,1.15189516544342,0.228380769491196],"rotation":[8.14603424714733e-08,0.0,0.0,1.0],"scale":[0.100000001490116,0.100000001490116,0.100000001490116],"mesh":1,"skin":0},{"name":"Plane008","translation":[0.349712133407593,1.55368673801422,0.193967267870903],"rotation":[0.521333813667297,0.521333694458008,-0.477714419364929,-0.477714508771896],"scale":[0.100000001490116,0.100000001490116,0.100000001490116],"mesh":6,"skin":1},{"name":"Bone001","translation":[0.347936898469925,1.56222987174988,0.214292958378792],"rotation":[0.557454228401184,-0.557453155517578,-0.435022979974747,0.435023844242096],"scale":[0.100000001490116,0.100000001490116,0.100000001490116],"children":[5]},{"name":"Bone002","translation":[0.170865476131439,-1.52587887214395e-07,1.13686835180517e-15],"rotation":[0.72292149066925,0.0980952903628349,-0.675833761692047,-0.104931332170963],"scale":[1.00000011920929,0.99999988079071,1.00000011920929],"children":[6]},{"name":"Bone003","translation":[0.175281062722206,3.0517577442879e-07,-3.66210929314548e-06],"rotation":[0.180099651217461,-0.704636693000793,0.192648410797119,0.658739566802979],"scale":[0.999999701976776,0.999999225139618,1.0],"children":[7]},{"name":"Bone004","translation":[0.194445803761482,0.0,-3.0517577442879e-07],"rotation":[0.656216859817505,-0.263381332159042,0.656234085559845,-0.263375282287598],"scale":[1.00000011920929,1.00000047683716,1.0],"children":[8]},{"name":"Bone005","translation":[0.0497019961476326,0.0,-2.27373670361034e-15],"rotation":[-1.22245401144028e-05,-2.49678487307392e-06,0.928043305873871,0.372472286224365],"scale":[1.0,1.0,1.00000011920929]},{"name":"Bone006","translation":[0.339087933301926,1.56297934055328,0.221807882189751],"rotation":[0.0308434907346964,-0.0308434814214706,-0.706433653831482,0.706433892250061],"scale":[0.100000001490116,0.100000001490116,0.100000001490116]},{"name":"Object026","translation":[0.349712133407593,1.55368673801422,0.193967267870903],"rotation":[0.521333813667297,0.521333634853363,-0.477714419364929,-0.477714568376541],"scale":[0.100000001490116,0.100000001490116,0.100000001490116],"mesh":10},{"name":"Bone007","translation":[0.347936898469925,0.770811200141907,0.214292958378792],"rotation":[0.557454228401184,-0.557453155517578,-0.435022979974747,0.435023844242096],"scale":[0.100000001490116,0.100000001490116,0.100000001490116],"children":[12]},{"name":"Bone008","translation":[0.17086486518383,-7.62939436071974e-08,5.68434175902586e-16],"rotation":[0.72292149066925,0.0980952903628349,-0.675833761692047,-0.104931332170963],"scale":[1.00000011920929,0.99999988079071,1.00000011920929],"children":[13]},{"name":"Bone009","translation":[0.17528136074543,3.00407407394232e-07,-4.27246095568989e-06],"rotation":[0.180099651217461,-0.704636693000793,0.192648410797119,0.658739566802979],"scale":[0.999999701976776,0.999999225139618,1.0],"children":[14]},{"name":"Bone010","translation":[0.19444639980793,2.84217087951293e-16,-3.0517577442879e-07],"rotation":[0.656216859817505,-0.263381332159042,0.656234085559845,-0.263375282287598],"scale":[1.00000011920929,1.00000047683716,1.0],"children":[15]},{"name":"Bone011","translation":[0.0497019961476326,0.0,0.0],"rotation":[-1.22245401144028e-05,-2.49678487307392e-06,0.928043305873871,0.372472286224365],"scale":[1.0,1.0,1.00000011920929]},{"name":"Bone012","translation":[0.339087933301926,0.771560728549957,0.221807882189751],"rotation":[0.0308434907346964,-0.0308434814214706,-0.706433653831482,0.706433892250061],"scale":[0.100000001490116,0.100000001490116,0.100000001490116]},{"name":"Object213","translation":[0.349712133407593,0.76226818561554,0.193967267870903],"rotation":[0.521333813667297,0.521333634853363,-0.477714419364929,-0.477714568376541],"scale":[0.100000001490116,0.100000001490116,0.100000001490116],"mesh":11},{"name":"Plane009","translation":[0.349712133407593,0.76226818561554,0.193967267870903],"rotation":[0.521333813667297,0.521333694458008,-0.477714419364929,-0.477714508771896],"scale":[0.100000001490116,0.100000001490116,0.100000001490116],"mesh":7,"skin":2},{"name":"Bone013","translation":[-0.340637862682343,1.54514265060425,0.214292958378792],"rotation":[0.549652099609375,0.549651145935059,0.444840162992477,0.444840937852859],"scale":[0.100000001490116,0.100000001490116,0.100000001490116],"children":[20]},{"name":"Bone014","translation":[0.170865476131439,-1.52587887214395e-07,0.0],"rotation":[0.72292149066925,0.0980952829122543,-0.675833761692047,-0.104931354522705],"scale":[1.00000011920929,0.99999988079071,1.00000011920929],"children":[21]},{"name":"Bone015","translation":[0.175281673669815,4.19616696945013e-07,-4.88281239086064e-06],"rotation":[0.180099681019783,-0.704636693000793,0.19264842569828,0.658739566802979],"scale":[0.999999701976776,0.999999225139618,1.0],"children":[22]},{"name":"Bone016","translation":[0.194445803761482,0.0,-5.68434175902586e-16],"rotation":[0.656216859817505,-0.263381361961365,0.656234085559845,-0.263375282287598],"scale":[1.00000011920929,1.00000047683716,1.0],"children":[23]},{"name":"Bone017","translation":[0.0497023016214371,-3.0517577442879e-07,0.0],"rotation":[-1.22245410238975e-05,-2.49678373620554e-06,0.928043305873871,0.372472316026688],"scale":[1.0,1.0,1.00000011920929]},{"name":"Bone018","translation":[-0.331788897514343,1.54439318180084,0.221807882189751],"rotation":[0.0308435205370188,0.0308435037732124,0.706433594226837,0.706433951854706],"scale":[0.100000001490116,0.100000001490116,0.100000001490116]},{"name":"Object214","translation":[-0.34241309762001,1.55368554592133,0.193967267870903],"rotation":[0.521333932876587,-0.521333813667297,0.47771430015564,-0.477714419364929],"scale":[0.100000001490116,0.100000001490116,0.100000001490116],"mesh":12},{"name":"Plane010","translation":[-0.34241309762001,1.55368554592133,0.193967267870903],"rotation":[0.521333932876587,-0.521333694458008,0.477714329957962,-0.477714508771896],"scale":[0.100000001490116,0.100000001490116,0.100000001490116],"mesh":8,"skin":3},{"name":"Bone019","translation":[-0.340637862682343,0.75372451543808,0.214292943477631],"rotation":[0.549652099609375,0.549651145935059,0.444840162992477,0.444840937852859],"scale":[0.100000001490116,0.100000001490116,0.100000001490116],"children":[28]},{"name":"Bone020","translation":[0.17086486518383,0.0,0.0],"rotation":[0.72292149066925,0.0980952829122543,-0.675833761692047,-0.104931354522705],"scale":[1.00000011920929,0.99999988079071,1.00000011920929],"children":[29]},{"name":"Bone021","translation":[0.17528136074543,4.38690165083244e-07,-3.05175763060106e-06],"rotation":[0.180099681019783,-0.704636693000793,0.19264842569828,0.658739566802979],"scale":[0.999999701976776,0.999999225139618,1.0],"children":[30]},{"name":"Bone022","translation":[0.194445803761482,0.0,0.0],"rotation":[0.656216859817505,-0.263381361961365,0.656234085559845,-0.263375282287598],"scale":[1.00000011920929,1.00000047683716,1.0],"children":[31]},{"name":"Bone023","translation":[0.0497023016214371,0.0,6.10351548857579e-07],"rotation":[-1.22245410238975e-05,-2.49678373620554e-06,0.928043305873871,0.372472316026688],"scale":[1.0,1.0,1.00000011920929]},{"name":"Bone024","translation":[-0.331788897514343,0.752974987030029,0.221807837486267],"rotation":[0.0308435205370188,0.0308435037732124,0.706433594226837,0.706433951854706],"scale":[0.100000001490116,0.100000001490116,0.100000001490116]},{"name":"Object215","translation":[-0.34241309762001,0.762267529964447,0.193967238068581],"rotation":[0.521333932876587,-0.521333813667297,0.47771430015564,-0.477714419364929],"scale":[0.100000001490116,0.100000001490116,0.100000001490116],"mesh":13},{"name":"Plane011","translation":[-0.34241309762001,0.762267529964447,0.193967238068581],"rotation":[0.521333932876587,-0.521333694458008,0.477714329957962,-0.477714508771896],"scale":[0.100000001490116,0.100000001490116,0.100000001490116],"mesh":9,"skin":4},{"name":"Object","translation":[0.182063043117523,1.15189516544342,0.228380769491196],"rotation":[8.14603424714733e-08,0.0,0.0,1.0],"scale":[0.100000001490116,0.100000001490116,0.100000001490116],"mesh":2,"skin":5},{"name":"Object249","translation":[0.00356304924935102,0.520895183086395,0.228380307555199],"rotation":[8.14603424714733e-08,0.0,0.0,1.0],"scale":[0.100000001490116,0.100000001490116,0.100000001490116],"mesh":3,"skin":6},{"name":"Object251","translation":[0.00356304924935102,0.339895188808441,0.228380277752876],"rotation":[8.14603424714733e-08,0.0,0.0,1.0],"scale":[0.100000001490116,0.100000001490116,0.100000001490116],"mesh":4,"skin":7},{"name":"Object253","translation":[0.00356304924935102,0.158895209431648,0.228380233049393],"rotation":[8.14603424714733e-08,0.0,0.0,1.0],"scale":[0.100000001490116,0.100000001490116,0.100000001490116],"mesh":5,"skin":8},{"name":"Object255","translation":[0.00356311025097966,0.487857133150101,0.0184121858328581],"rotation":[-0.70710676908493,-0.0,0.0,0.70710676908493],"scale":[0.141999989748001,0.100000001490116,0.100000001490116],"mesh":14,"skin":9},{"name":"Object261","translation":[0.00356311025097966,0.306862741708755,0.000920486403629184],"rotation":[-0.70710676908493,-0.0,0.0,0.70710676908493],"scale":[0.141999989748001,0.100000001490116,0.100000001490116],"mesh":17},{"name":"Object263","translation":[0.00356304924935102,0.125868499279022,0.0184121634811163],"rotation":[-0.70710676908493,-0.0,0.0,0.70710676908493],"scale":[0.141999989748001,0.100000001490116,0.100000001490116],"mesh":15,"skin":10},{"name":"Object264","translation":[0.00356304924935102,0.306843340396881,0.0184121765196323],"rotation":[-0.70710676908493,-0.0,0.0,0.70710676908493],"scale":[0.141999989748001,0.100000001490116,0.100000001490116],"mesh":16,"skin":11},{"name":"Dummy001","translation":[0.00356304924935102,0.520895183086395,0.130250483751297],"rotation":[-0.70710676908493,-0.0,0.0,0.70710676908493],"scale":[0.100000001490116,0.100000001490116,0.100000001490116]},{"name":"Dummy002","translation":[0.00356311025097966,0.487857133150101,0.12916399538517],"rotation":[-0.70710676908493,-0.0,0.0,0.70710676908493],"scale":[0.100000001490116,0.100000001490116,0.100000001490116]},{"name":"Dummy003","translation":[0.00356304924935102,0.338895261287689,0.130250468850136],"rotation":[-0.70710676908493,-0.0,0.0,0.70710676908493],"scale":[0.100000001490116,0.100000001490116,0.100000001490116]},{"name":"Dummy004","translation":[0.00356311025097966,0.305857181549072,0.129163980484009],"rotation":[-0.70710676908493,-0.0,0.0,0.70710676908493],"scale":[0.100000001490116,0.100000001490116,0.100000001490116]},{"name":"Dummy005","translation":[0.00356304924935102,0.157895281910896,0.130250453948975],"rotation":[-0.70710676908493,-0.0,0.0,0.70710676908493],"scale":[0.100000001490116,0.100000001490116,0.100000001490116]},{"name":"Dummy006","translation":[0.00356311025097966,0.124857194721699,0.129163965582848],"rotation":[-0.70710676908493,-0.0,0.0,0.70710676908493],"scale":[0.100000001490116,0.100000001490116,0.100000001490116]},{"name":"Box002","translation":[0.00356298824772239,1.65056359767914,0.00105078122578561],"rotation":[1.73437009383121e-14,1.0,-2.1855694143369e-08,7.90753631463303e-07],"scale":[0.100000001490116,0.100000001490116,0.100000001490116],"mesh":18}]}